<ttFont>
    <TTGlyph name="A" xMin="-148" yMin="-408" xMax="817" yMax="1052">
      <contour>
        <pt x="817" y="-238" on="1"/>
        <pt x="814" y="-255" on="0"/>
        <pt x="793" y="-270" on="0"/>
        <pt x="784" y="-284" on="1"/>
        <pt x="780" y="-284" on="1"/>
        <pt x="770" y="-284" on="0"/>
        <pt x="751" y="-288" on="0"/>
        <pt x="741" y="-291" on="1"/>
        <pt x="736" y="-289" on="0"/>
        <pt x="722" y="-287" on="0"/>
        <pt x="720" y="-281" on="1"/>
        <pt x="712" y="-285" on="0"/>
        <pt x="698" y="-285" on="1"/>
        <pt x="675" y="-285" on="0"/>
        <pt x="634" y="-259" on="0"/>
        <pt x="612" y="-252" on="1"/>
        <pt x="606" y="-240" on="0"/>
        <pt x="589" y="-221" on="0"/>
        <pt x="572" y="-203" on="0"/>
        <pt x="556" y="-183" on="0"/>
        <pt x="551" y="-169" on="1"/>
        <pt x="549" y="-163" on="0"/>
        <pt x="543" y="-161" on="0"/>
        <pt x="537" y="-162" on="1"/>
        <pt x="538" y="-151" on="0"/>
        <pt x="531" y="-135" on="0"/>
        <pt x="519" y="-133" on="1"/>
        <pt x="519" y="-120" on="0"/>
        <pt x="511" y="-102" on="0"/>
        <pt x="500" y="-89" on="0"/>
        <pt x="487" y="-75" on="0"/>
        <pt x="483" y="-65" on="1"/>
        <pt x="474" y="-63" on="0"/>
        <pt x="457" y="-62" on="0"/>
        <pt x="447" y="-62" on="1"/>
        <pt x="399" y="-62" on="0"/>
        <pt x="354" y="-80" on="1"/>
        <pt x="349" y="-82" on="0"/>
        <pt x="338" y="-88" on="0"/>
        <pt x="333" y="-90" on="1"/>
        <pt x="331" y="-90" on="0"/>
        <pt x="328" y="-91" on="0"/>
        <pt x="326" y="-91" on="1"/>
        <pt x="319" y="-91" on="0"/>
        <pt x="307" y="-86" on="0"/>
        <pt x="300" y="-86" on="1"/>
        <pt x="297" y="-86" on="0"/>
        <pt x="290" y="-89" on="0"/>
        <pt x="287" y="-90" on="1"/>
        <pt x="272" y="-95" on="0"/>
        <pt x="259" y="-96" on="1"/>
        <pt x="218" y="-104" on="0"/>
        <pt x="127" y="-112" on="0"/>
        <pt x="89" y="-129" on="1"/>
        <pt x="81" y="-133" on="0"/>
        <pt x="77" y="-150" on="0"/>
        <pt x="78" y="-158" on="1"/>
        <pt x="67" y="-166" on="0"/>
        <pt x="56" y="-192" on="0"/>
        <pt x="47" y="-221" on="0"/>
        <pt x="37" y="-249" on="0"/>
        <pt x="28" y="-259" on="1"/>
        <pt x="31" y="-265" on="0"/>
        <pt x="31" y="-272" on="1"/>
        <pt x="31" y="-287" on="0"/>
        <pt x="11" y="-317" on="0"/>
        <pt x="6" y="-331" on="1"/>
        <pt x="1" y="-345" on="0"/>
        <pt x="-5" y="-372" on="0"/>
        <pt x="-17" y="-394" on="0"/>
        <pt x="-38" y="-408" on="0"/>
        <pt x="-57" y="-408" on="1"/>
        <pt x="-75" y="-408" on="0"/>
        <pt x="-101" y="-394" on="0"/>
        <pt x="-117" y="-372" on="0"/>
        <pt x="-127" y="-342" on="0"/>
        <pt x="-130" y="-327" on="1"/>
        <pt x="-119" y="-305" on="0"/>
        <pt x="-99" y="-273" on="0"/>
        <pt x="-94" y="-248" on="1"/>
        <pt x="-76" y="-235" on="0"/>
        <pt x="-59" y="-198" on="0"/>
        <pt x="-58" y="-176" on="1"/>
        <pt x="-47" y="-169" on="0"/>
        <pt x="-38" y="-146" on="0"/>
        <pt x="-37" y="-133" on="1"/>
        <pt x="-61" y="-131" on="0"/>
        <pt x="-114" y="-127" on="0"/>
        <pt x="-137" y="-119" on="1"/>
        <pt x="-137" y="-117" on="0"/>
        <pt x="-136" y="-113" on="0"/>
        <pt x="-136" y="-111" on="1"/>
        <pt x="-136" y="-98" on="0"/>
        <pt x="-148" y="-77" on="0"/>
        <pt x="-148" y="-65" on="1"/>
        <pt x="-148" y="-57" on="1"/>
        <pt x="-140" y="-49" on="0"/>
        <pt x="-127" y="-32" on="0"/>
        <pt x="-113" y="-18" on="0"/>
        <pt x="-95" y="-9" on="0"/>
        <pt x="-81" y="-9" on="1"/>
        <pt x="-62" y="-9" on="0"/>
        <pt x="-26" y="-14" on="0"/>
        <pt x="-7" y="-14" on="1"/>
        <pt x="6" y="-14" on="0"/>
        <pt x="20" y="-11" on="1"/>
        <pt x="42" y="34" on="0"/>
        <pt x="76" y="127" on="0"/>
        <pt x="85" y="175" on="1"/>
        <pt x="92" y="185" on="0"/>
        <pt x="104" y="212" on="0"/>
        <pt x="111" y="242" on="0"/>
        <pt x="114" y="271" on="0"/>
        <pt x="114" y="283" on="1"/>
        <pt x="125" y="296" on="0"/>
        <pt x="134" y="334" on="0"/>
        <pt x="140" y="375" on="0"/>
        <pt x="147" y="415" on="0"/>
        <pt x="157" y="430" on="1"/>
        <pt x="157" y="439" on="1"/>
        <pt x="158" y="454" on="0"/>
        <pt x="154" y="466" on="1"/>
        <pt x="159" y="468" on="0"/>
        <pt x="161" y="482" on="0"/>
        <pt x="164" y="487" on="1"/>
        <pt x="165" y="533" on="0"/>
        <pt x="183" y="622" on="0"/>
        <pt x="189" y="667" on="1"/>
        <pt x="189" y="670" on="1"/>
        <pt x="189" y="675" on="0"/>
        <pt x="182" y="676" on="0"/>
        <pt x="182" y="681" on="1"/>
        <pt x="182" y="690" on="0"/>
        <pt x="187" y="720" on="0"/>
        <pt x="188" y="730" on="1"/>
        <pt x="194" y="784" on="0"/>
        <pt x="194" y="837" on="1"/>
        <pt x="194" y="882" on="0"/>
        <pt x="188" y="970" on="0"/>
        <pt x="185" y="1015" on="1"/>
        <pt x="193" y="1027" on="1"/>
        <pt x="197" y="1033" on="0"/>
        <pt x="200" y="1039" on="1"/>
        <pt x="210" y="1043" on="0"/>
        <pt x="223" y="1052" on="0"/>
        <pt x="234" y="1052" on="1"/>
        <pt x="237" y="1052" on="0"/>
        <pt x="241" y="1051" on="0"/>
        <pt x="243" y="1051" on="1"/>
        <pt x="249" y="1047" on="0"/>
        <pt x="256" y="1033" on="0"/>
        <pt x="263" y="1021" on="0"/>
        <pt x="275" y="1013" on="0"/>
        <pt x="286" y="1015" on="1"/>
        <pt x="291" y="987" on="0"/>
        <pt x="314" y="986" on="1"/>
        <pt x="319" y="972" on="0"/>
        <pt x="334" y="944" on="0"/>
        <pt x="347" y="936" on="1"/>
        <pt x="346" y="932" on="0"/>
        <pt x="346" y="925" on="1"/>
        <pt x="346" y="911" on="0"/>
        <pt x="359" y="885" on="0"/>
        <pt x="369" y="874" on="1"/>
        <pt x="369" y="872" on="1"/>
        <pt x="369" y="861" on="0"/>
        <pt x="361" y="857" on="1"/>
        <pt x="370" y="847" on="0"/>
        <pt x="378" y="819" on="0"/>
        <pt x="384" y="790" on="0"/>
        <pt x="393" y="764" on="0"/>
        <pt x="404" y="757" on="1"/>
        <pt x="404" y="754" on="1"/>
        <pt x="404" y="749" on="0"/>
        <pt x="397" y="747" on="0"/>
        <pt x="397" y="742" on="1"/>
        <pt x="415" y="709" on="0"/>
        <pt x="429" y="631" on="0"/>
        <pt x="440" y="595" on="1"/>
        <pt x="444" y="591" on="0"/>
        <pt x="455" y="589" on="0"/>
        <pt x="458" y="585" on="1"/>
        <pt x="452" y="581" on="0"/>
        <pt x="452" y="561" on="0"/>
        <pt x="447" y="556" on="1"/>
        <pt x="455" y="549" on="0"/>
        <pt x="454" y="522" on="0"/>
        <pt x="462" y="516" on="1"/>
        <pt x="462" y="512" on="1"/>
        <pt x="462" y="508" on="0"/>
        <pt x="458" y="503" on="0"/>
        <pt x="458" y="499" on="1"/>
        <pt x="458" y="495" on="1"/>
        <pt x="466" y="460" on="0"/>
        <pt x="475" y="390" on="0"/>
        <pt x="485" y="320" on="0"/>
        <pt x="497" y="251" on="0"/>
        <pt x="508" y="218" on="1"/>
        <pt x="509" y="217" on="0"/>
        <pt x="509" y="215" on="1"/>
        <pt x="509" y="210" on="0"/>
        <pt x="501" y="209" on="0"/>
        <pt x="501" y="204" on="1"/>
        <pt x="501" y="199" on="0"/>
        <pt x="508" y="186" on="0"/>
        <pt x="512" y="182" on="1"/>
        <pt x="511" y="178" on="0"/>
        <pt x="511" y="170" on="1"/>
        <pt x="511" y="155" on="0"/>
        <pt x="522" y="127" on="0"/>
        <pt x="535" y="100" on="0"/>
        <pt x="545" y="70" on="0"/>
        <pt x="544" y="53" on="1"/>
        <pt x="550" y="44" on="0"/>
        <pt x="569" y="32" on="0"/>
        <pt x="589" y="22" on="0"/>
        <pt x="606" y="8" on="0"/>
        <pt x="609" y="-4" on="1"/>
        <pt x="601" y="-11" on="0"/>
        <pt x="595" y="-32" on="0"/>
        <pt x="587" y="-40" on="1"/>
        <pt x="594" y="-57" on="0"/>
        <pt x="613" y="-86" on="0"/>
        <pt x="623" y="-100" on="1"/>
        <pt x="644" y="-128" on="1"/>
        <pt x="655" y="-142" on="0"/>
        <pt x="663" y="-158" on="1"/>
        <pt x="674" y="-158" on="0"/>
        <pt x="684" y="-170" on="0"/>
        <pt x="695" y="-169" on="1"/>
        <pt x="699" y="-177" on="0"/>
        <pt x="698" y="-187" on="1"/>
        <pt x="718" y="-180" on="0"/>
        <pt x="738" y="-180" on="1"/>
        <pt x="749" y="-180" on="0"/>
        <pt x="768" y="-182" on="0"/>
        <pt x="778" y="-182" on="1"/>
        <pt x="790" y="-182" on="0"/>
        <pt x="799" y="-179" on="1"/>
        <pt x="803" y="-185" on="0"/>
        <pt x="807" y="-200" on="0"/>
        <pt x="808" y="-208" on="1"/>
        <pt x="811" y="-224" on="1"/>
        <pt x="813" y="-232" on="0"/>
      </contour>
      <contour>
        <pt x="440" y="39" on="1"/>
        <pt x="426" y="108" on="0"/>
        <pt x="397" y="245" on="0"/>
        <pt x="386" y="315" on="1"/>
        <pt x="380" y="352" on="0"/>
        <pt x="374" y="426" on="0"/>
        <pt x="365" y="499" on="0"/>
        <pt x="350" y="571" on="0"/>
        <pt x="336" y="606" on="1"/>
        <pt x="336" y="608" on="1"/>
        <pt x="336" y="611" on="0"/>
        <pt x="340" y="615" on="0"/>
        <pt x="340" y="620" on="1"/>
        <pt x="340" y="624" on="1"/>
        <pt x="327" y="633" on="0"/>
        <pt x="317" y="666" on="0"/>
        <pt x="310" y="703" on="0"/>
        <pt x="299" y="738" on="0"/>
        <pt x="286" y="750" on="1"/>
        <pt x="281" y="692" on="0"/>
        <pt x="270" y="577" on="0"/>
        <pt x="268" y="519" on="1"/>
        <pt x="258" y="513" on="0"/>
        <pt x="252" y="485" on="0"/>
        <pt x="252" y="474" on="1"/>
        <pt x="252" y="466" on="0"/>
        <pt x="254" y="449" on="0"/>
        <pt x="257" y="440" on="1"/>
        <pt x="239" y="395" on="0"/>
        <pt x="223" y="300" on="0"/>
        <pt x="213" y="253" on="1"/>
        <pt x="212" y="250" on="0"/>
        <pt x="207" y="229" on="0"/>
        <pt x="201" y="207" on="0"/>
        <pt x="197" y="190" on="0"/>
        <pt x="197" y="189" on="1"/>
        <pt x="196" y="182" on="0"/>
        <pt x="197" y="168" on="0"/>
        <pt x="197" y="161" on="1"/>
        <pt x="182" y="146" on="1"/>
        <pt x="178" y="108" on="0"/>
        <pt x="157" y="37" on="0"/>
        <pt x="146" y="0" on="1"/>
        <pt x="153" y="-1" on="0"/>
        <pt x="166" y="-2" on="0"/>
        <pt x="173" y="-2" on="1"/>
        <pt x="205" y="-2" on="0"/>
        <pt x="270" y="7" on="0"/>
        <pt x="302" y="11" on="1"/>
        <pt x="313" y="13" on="0"/>
        <pt x="337" y="16" on="0"/>
        <pt x="348" y="16" on="1"/>
        <pt x="353" y="17" on="0"/>
        <pt x="367" y="16" on="0"/>
        <pt x="372" y="17" on="1"/>
        <pt x="380" y="19" on="0"/>
        <pt x="385" y="28" on="0"/>
        <pt x="393" y="29" on="1"/>
        <pt x="399" y="26" on="0"/>
        <pt x="407" y="26" on="1"/>
        <pt x="416" y="26" on="0"/>
        <pt x="432" y="34" on="0"/>
      </contour>
    </TTGlyph>
    <TTGlyph name="AE" xMin="-143" yMin="-548" xMax="1645" yMax="1048">
      <contour>
        <pt x="1203" y="352" on="1"/>
        <pt x="1203" y="335" on="0"/>
        <pt x="1194" y="303" on="0"/>
        <pt x="1187" y="288" on="1"/>
        <pt x="1176" y="288" on="0"/>
        <pt x="1159" y="278" on="0"/>
        <pt x="1153" y="278" on="1"/>
        <pt x="1149" y="278" on="0"/>
        <pt x="1141" y="283" on="0"/>
        <pt x="1137" y="285" on="1"/>
        <pt x="1135" y="285" on="1"/>
        <pt x="1127" y="285" on="0"/>
        <pt x="1126" y="271" on="0"/>
        <pt x="1119" y="270" on="1"/>
        <pt x="1106" y="268" on="0"/>
        <pt x="1081" y="267" on="0"/>
        <pt x="1068" y="264" on="1"/>
        <pt x="1044" y="259" on="0"/>
        <pt x="998" y="246" on="0"/>
        <pt x="975" y="241" on="1"/>
        <pt x="967" y="239" on="0"/>
        <pt x="951" y="238" on="0"/>
        <pt x="943" y="238" on="1"/>
        <pt x="934" y="236" on="0"/>
        <pt x="925" y="225" on="0"/>
        <pt x="919" y="223" on="1"/>
        <pt x="905" y="220" on="0"/>
        <pt x="876" y="218" on="0"/>
        <pt x="862" y="216" on="1"/>
        <pt x="802" y="208" on="1"/>
        <pt x="772" y="204" on="0"/>
        <pt x="742" y="199" on="1"/>
        <pt x="737" y="204" on="0"/>
        <pt x="723" y="204" on="0"/>
        <pt x="718" y="209" on="1"/>
        <pt x="705" y="197" on="0"/>
        <pt x="670" y="193" on="0"/>
        <pt x="636" y="191" on="0"/>
        <pt x="606" y="185" on="0"/>
        <pt x="599" y="170" on="1"/>
        <pt x="599" y="144" on="1"/>
        <pt x="599" y="110" on="0"/>
        <pt x="595" y="42" on="0"/>
        <pt x="595" y="8" on="1"/>
        <pt x="595" y="-8" on="0"/>
        <pt x="597" y="-40" on="0"/>
        <pt x="599" y="-56" on="1"/>
        <pt x="594" y="-65" on="0"/>
        <pt x="593" y="-87" on="0"/>
        <pt x="589" y="-95" on="1"/>
        <pt x="595" y="-103" on="0"/>
        <pt x="601" y="-124" on="0"/>
        <pt x="602" y="-147" on="0"/>
        <pt x="602" y="-169" on="0"/>
        <pt x="603" y="-178" on="1"/>
        <pt x="608" y="-225" on="0"/>
        <pt x="632" y="-313" on="0"/>
        <pt x="646" y="-357" on="1"/>
        <pt x="654" y="-366" on="0"/>
        <pt x="659" y="-376" on="1"/>
        <pt x="670" y="-397" on="1"/>
        <pt x="676" y="-408" on="0"/>
        <pt x="691" y="-425" on="0"/>
        <pt x="703" y="-429" on="1"/>
        <pt x="703" y="-432" on="1"/>
        <pt x="703" y="-444" on="0"/>
        <pt x="716" y="-453" on="0"/>
        <pt x="721" y="-462" on="1"/>
        <pt x="734" y="-466" on="0"/>
        <pt x="760" y="-473" on="0"/>
        <pt x="771" y="-479" on="1"/>
        <pt x="774" y="-487" on="0"/>
        <pt x="774" y="-497" on="1"/>
        <pt x="774" y="-515" on="0"/>
        <pt x="747" y="-536" on="0"/>
        <pt x="735" y="-548" on="1"/>
        <pt x="729" y="-548" on="1"/>
        <pt x="714" y="-548" on="0"/>
        <pt x="691" y="-538" on="0"/>
        <pt x="671" y="-524" on="0"/>
        <pt x="651" y="-507" on="0"/>
        <pt x="639" y="-501" on="1"/>
        <pt x="627" y="-477" on="0"/>
        <pt x="594" y="-433" on="0"/>
        <pt x="578" y="-412" on="1"/>
        <pt x="576" y="-395" on="0"/>
        <pt x="566" y="-368" on="0"/>
        <pt x="558" y="-353" on="1"/>
        <pt x="555" y="-347" on="0"/>
        <pt x="547" y="-332" on="0"/>
        <pt x="545" y="-326" on="1"/>
        <pt x="544" y="-320" on="0"/>
        <pt x="545" y="-308" on="0"/>
        <pt x="545" y="-303" on="1"/>
        <pt x="544" y="-283" on="0"/>
        <pt x="538" y="-238" on="0"/>
        <pt x="523" y="-221" on="1"/>
        <pt x="530" y="-211" on="0"/>
        <pt x="530" y="-198" on="1"/>
        <pt x="530" y="-186" on="0"/>
        <pt x="523" y="-164" on="0"/>
        <pt x="523" y="-153" on="1"/>
        <pt x="523" y="-146" on="0"/>
        <pt x="528" y="-134" on="0"/>
        <pt x="528" y="-127" on="1"/>
        <pt x="528" y="-119" on="0"/>
        <pt x="520" y="-114" on="1"/>
        <pt x="521" y="-107" on="0"/>
        <pt x="531" y="-104" on="0"/>
        <pt x="531" y="-98" on="1"/>
        <pt x="531" y="-95" on="1"/>
        <pt x="529" y="-74" on="0"/>
        <pt x="523" y="-32" on="0"/>
        <pt x="523" y="-10" on="1"/>
        <pt x="523" y="27" on="0"/>
        <pt x="528" y="100" on="0"/>
        <pt x="528" y="137" on="1"/>
        <pt x="528" y="157" on="1"/>
        <pt x="528" y="167" on="0"/>
        <pt x="527" y="177" on="1"/>
        <pt x="512" y="177" on="1"/>
        <pt x="469" y="177" on="0"/>
        <pt x="383" y="164" on="0"/>
        <pt x="339" y="164" on="1"/>
        <pt x="318" y="164" on="1"/>
        <pt x="308" y="164" on="0"/>
        <pt x="298" y="166" on="1"/>
        <pt x="286" y="160" on="0"/>
        <pt x="258" y="161" on="0"/>
        <pt x="245" y="161" on="1"/>
        <pt x="236" y="161" on="0"/>
        <pt x="219" y="157" on="0"/>
        <pt x="212" y="152" on="1"/>
        <pt x="198" y="159" on="0"/>
        <pt x="169" y="164" on="0"/>
        <pt x="154" y="164" on="1"/>
        <pt x="141" y="164" on="1"/>
        <pt x="135" y="164" on="0"/>
        <pt x="129" y="163" on="1"/>
        <pt x="127" y="149" on="0"/>
        <pt x="110" y="132" on="0"/>
        <pt x="108" y="120" on="1"/>
        <pt x="92" y="108" on="0"/>
        <pt x="87" y="76" on="0"/>
        <pt x="86" y="58" on="1"/>
        <pt x="69" y="40" on="0"/>
        <pt x="46" y="-4" on="0"/>
        <pt x="26" y="-20" on="1"/>
        <pt x="26" y="-23" on="0"/>
        <pt x="27" y="-27" on="0"/>
        <pt x="27" y="-29" on="1"/>
        <pt x="27" y="-38" on="0"/>
        <pt x="17" y="-47" on="0"/>
        <pt x="11" y="-52" on="1"/>
        <pt x="11" y="-56" on="1"/>
        <pt x="11" y="-74" on="0"/>
        <pt x="-4" y="-93" on="0"/>
        <pt x="-14" y="-106" on="1"/>
        <pt x="-19" y="-123" on="0"/>
        <pt x="-26" y="-137" on="1"/>
        <pt x="-41" y="-166" on="1"/>
        <pt x="-49" y="-181" on="0"/>
        <pt x="-62" y="-211" on="0"/>
        <pt x="-65" y="-228" on="1"/>
        <pt x="-75" y="-239" on="0"/>
        <pt x="-90" y="-261" on="0"/>
        <pt x="-100" y="-271" on="1"/>
        <pt x="-130" y="-263" on="0"/>
        <pt x="-143" y="-240" on="1"/>
        <pt x="-140" y="-229" on="0"/>
        <pt x="-138" y="-201" on="0"/>
        <pt x="-134" y="-173" on="0"/>
        <pt x="-128" y="-148" on="0"/>
        <pt x="-121" y="-139" on="1"/>
        <pt x="-118" y="-135" on="0"/>
        <pt x="-112" y="-131" on="0"/>
        <pt x="-108" y="-128" on="1"/>
        <pt x="-105" y="-127" on="0"/>
        <pt x="-105" y="-123" on="1"/>
        <pt x="-105" y="-121" on="0"/>
        <pt x="-109" y="-116" on="0"/>
        <pt x="-109" y="-111" on="1"/>
        <pt x="-109" y="-110" on="0"/>
        <pt x="-108" y="-108" on="0"/>
        <pt x="-108" y="-106" on="1"/>
        <pt x="-91" y="-64" on="0"/>
        <pt x="-39" y="26" on="0"/>
        <pt x="-7" y="58" on="1"/>
        <pt x="-7" y="66" on="1"/>
        <pt x="-7" y="74" on="0"/>
        <pt x="-2" y="86" on="0"/>
        <pt x="-3" y="94" on="1"/>
        <pt x="7" y="104" on="0"/>
        <pt x="18" y="126" on="0"/>
        <pt x="28" y="147" on="0"/>
        <pt x="43" y="168" on="0"/>
        <pt x="57" y="177" on="1"/>
        <pt x="59" y="184" on="0"/>
        <pt x="61" y="210" on="0"/>
        <pt x="72" y="213" on="1"/>
        <pt x="66" y="220" on="0"/>
        <pt x="66" y="232" on="1"/>
        <pt x="66" y="246" on="0"/>
        <pt x="81" y="271" on="0"/>
        <pt x="86" y="285" on="1"/>
        <pt x="104" y="285" on="1"/>
        <pt x="106" y="292" on="0"/>
        <pt x="117" y="304" on="0"/>
        <pt x="127" y="316" on="0"/>
        <pt x="134" y="328" on="0"/>
        <pt x="133" y="335" on="1"/>
        <pt x="147" y="361" on="0"/>
        <pt x="173" y="411" on="0"/>
        <pt x="183" y="438" on="1"/>
        <pt x="183" y="441" on="1"/>
        <pt x="183" y="445" on="0"/>
        <pt x="191" y="446" on="0"/>
        <pt x="194" y="445" on="1"/>
        <pt x="198" y="459" on="0"/>
        <pt x="208" y="489" on="0"/>
        <pt x="222" y="497" on="1"/>
        <pt x="224" y="505" on="0"/>
        <pt x="224" y="511" on="1"/>
        <pt x="224" y="515" on="0"/>
        <pt x="222" y="525" on="1"/>
        <pt x="231" y="529" on="0"/>
        <pt x="240" y="545" on="0"/>
        <pt x="247" y="563" on="0"/>
        <pt x="256" y="579" on="0"/>
        <pt x="265" y="583" on="1"/>
        <pt x="266" y="605" on="0"/>
        <pt x="289" y="642" on="0"/>
        <pt x="291" y="665" on="1"/>
        <pt x="306" y="672" on="0"/>
        <pt x="316" y="704" on="0"/>
        <pt x="319" y="719" on="1"/>
        <pt x="339" y="741" on="0"/>
        <pt x="367" y="792" on="0"/>
        <pt x="384" y="815" on="1"/>
        <pt x="384" y="837" on="1"/>
        <pt x="393" y="838" on="0"/>
        <pt x="401" y="852" on="0"/>
        <pt x="407" y="869" on="0"/>
        <pt x="414" y="882" on="0"/>
        <pt x="423" y="884" on="1"/>
        <pt x="426" y="904" on="0"/>
        <pt x="444" y="940" on="0"/>
        <pt x="464" y="974" on="0"/>
        <pt x="481" y="1010" on="0"/>
        <pt x="484" y="1030" on="1"/>
        <pt x="498" y="1034" on="0"/>
        <pt x="525" y="1048" on="0"/>
        <pt x="539" y="1048" on="1"/>
        <pt x="547" y="1048" on="0"/>
        <pt x="567" y="1034" on="0"/>
        <pt x="567" y="1025" on="1"/>
        <pt x="567" y="1021" on="0"/>
        <pt x="564" y="1014" on="0"/>
        <pt x="563" y="1009" on="1"/>
        <pt x="572" y="1000" on="0"/>
        <pt x="583" y="993" on="0"/>
        <pt x="589" y="985" on="0"/>
        <pt x="592" y="972" on="0"/>
        <pt x="592" y="958" on="1"/>
        <pt x="592" y="952" on="0"/>
        <pt x="606" y="951" on="0"/>
        <pt x="610" y="948" on="1"/>
        <pt x="623" y="900" on="0"/>
        <pt x="629" y="800" on="0"/>
        <pt x="629" y="751" on="1"/>
        <pt x="629" y="733" on="0"/>
        <pt x="630" y="686" on="0"/>
        <pt x="628" y="669" on="1"/>
        <pt x="627" y="661" on="0"/>
        <pt x="621" y="645" on="0"/>
        <pt x="613" y="643" on="1"/>
        <pt x="616" y="598" on="0"/>
        <pt x="616" y="554" on="1"/>
        <pt x="616" y="494" on="0"/>
        <pt x="605" y="377" on="0"/>
        <pt x="609" y="318" on="1"/>
        <pt x="610" y="302" on="1"/>
        <pt x="643" y="299" on="0"/>
        <pt x="676" y="299" on="1"/>
        <pt x="700" y="299" on="0"/>
        <pt x="734" y="304" on="0"/>
        <pt x="757" y="309" on="1"/>
        <pt x="766" y="311" on="0"/>
        <pt x="791" y="312" on="0"/>
        <pt x="816" y="314" on="0"/>
        <pt x="839" y="320" on="0"/>
        <pt x="847" y="328" on="1"/>
        <pt x="849" y="326" on="0"/>
        <pt x="856" y="316" on="0"/>
        <pt x="861" y="316" on="1"/>
        <pt x="868" y="316" on="0"/>
        <pt x="884" y="328" on="0"/>
        <pt x="890" y="331" on="1"/>
        <pt x="899" y="330" on="0"/>
        <pt x="917" y="329" on="0"/>
        <pt x="928" y="329" on="1"/>
        <pt x="962" y="329" on="0"/>
        <pt x="1030" y="342" on="0"/>
        <pt x="1097" y="360" on="0"/>
        <pt x="1164" y="377" on="0"/>
        <pt x="1198" y="381" on="1"/>
        <pt x="1201" y="374" on="0"/>
        <pt x="1203" y="359" on="0"/>
      </contour>
      <contour>
        <pt x="539" y="460" on="1"/>
        <pt x="539" y="501" on="0"/>
        <pt x="537" y="582" on="0"/>
        <pt x="537" y="624" on="1"/>
        <pt x="537" y="641" on="0"/>
        <pt x="538" y="676" on="0"/>
        <pt x="539" y="693" on="1"/>
        <pt x="525" y="727" on="0"/>
        <pt x="510" y="797" on="0"/>
        <pt x="506" y="834" on="1"/>
        <pt x="501" y="834" on="0"/>
        <pt x="495" y="837" on="1"/>
        <pt x="458" y="786" on="0"/>
        <pt x="394" y="681" on="0"/>
        <pt x="373" y="622" on="1"/>
        <pt x="361" y="612" on="0"/>
        <pt x="344" y="585" on="0"/>
        <pt x="331" y="555" on="0"/>
        <pt x="319" y="524" on="0"/>
        <pt x="312" y="511" on="1"/>
        <pt x="309" y="511" on="1"/>
        <pt x="302" y="511" on="0"/>
        <pt x="301" y="498" on="0"/>
        <pt x="301" y="493" on="1"/>
        <pt x="291" y="493" on="1"/>
        <pt x="291" y="475" on="0"/>
        <pt x="282" y="451" on="0"/>
        <pt x="268" y="432" on="0"/>
        <pt x="253" y="412" on="0"/>
        <pt x="248" y="399" on="1"/>
        <pt x="248" y="392" on="1"/>
        <pt x="248" y="375" on="0"/>
        <pt x="236" y="346" on="0"/>
        <pt x="219" y="338" on="1"/>
        <pt x="219" y="331" on="1"/>
        <pt x="219" y="323" on="0"/>
        <pt x="216" y="318" on="1"/>
        <pt x="211" y="308" on="1"/>
        <pt x="209" y="303" on="0"/>
        <pt x="205" y="292" on="0"/>
        <pt x="205" y="285" on="1"/>
        <pt x="229" y="274" on="0"/>
        <pt x="254" y="274" on="1"/>
        <pt x="263" y="274" on="0"/>
        <pt x="283" y="278" on="0"/>
        <pt x="291" y="285" on="1"/>
        <pt x="290" y="280" on="0"/>
        <pt x="294" y="273" on="0"/>
        <pt x="299" y="273" on="1"/>
        <pt x="308" y="273" on="0"/>
        <pt x="328" y="275" on="0"/>
        <pt x="337" y="275" on="1"/>
        <pt x="375" y="275" on="1"/>
        <pt x="392" y="275" on="0"/>
        <pt x="428" y="280" on="0"/>
        <pt x="444" y="288" on="1"/>
        <pt x="457" y="284" on="0"/>
        <pt x="474" y="284" on="1"/>
        <pt x="488" y="284" on="0"/>
        <pt x="516" y="289" on="0"/>
        <pt x="527" y="295" on="1"/>
        <pt x="535" y="336" on="0"/>
        <pt x="539" y="418" on="0"/>
      </contour>
      <contour>
        <pt x="1645" y="71" on="1"/>
        <pt x="1645" y="54" on="0"/>
        <pt x="1616" y="22" on="0"/>
        <pt x="1599" y="19" on="1"/>
        <pt x="1592" y="18" on="0"/>
        <pt x="1577" y="18" on="0"/>
        <pt x="1570" y="17" on="1"/>
        <pt x="1543" y="16" on="0"/>
        <pt x="1481" y="12" on="0"/>
        <pt x="1456" y="1" on="1"/>
        <pt x="1451" y="3" on="0"/>
        <pt x="1446" y="8" on="0"/>
        <pt x="1439" y="8" on="1"/>
        <pt x="1436" y="8" on="0"/>
        <pt x="1422" y="0" on="0"/>
        <pt x="1420" y="-2" on="1"/>
        <pt x="1410" y="0" on="0"/>
        <pt x="1403" y="0" on="1"/>
        <pt x="1394" y="0" on="0"/>
        <pt x="1376" y="-4" on="0"/>
        <pt x="1367" y="-4" on="1"/>
        <pt x="1356" y="-4" on="0"/>
        <pt x="1346" y="1" on="1"/>
        <pt x="1335" y="-4" on="0"/>
        <pt x="1313" y="-10" on="0"/>
        <pt x="1302" y="-10" on="1"/>
        <pt x="1294" y="-10" on="0"/>
        <pt x="1283" y="-6" on="0"/>
        <pt x="1278" y="-6" on="1"/>
        <pt x="1276" y="-6" on="0"/>
        <pt x="1277" y="-15" on="0"/>
        <pt x="1277" y="-17" on="1"/>
        <pt x="1277" y="-20" on="0"/>
        <pt x="1274" y="-20" on="1"/>
        <pt x="1263" y="-20" on="0"/>
        <pt x="1232" y="-23" on="0"/>
        <pt x="1200" y="-28" on="0"/>
        <pt x="1169" y="-33" on="0"/>
        <pt x="1158" y="-35" on="1"/>
        <pt x="1140" y="-38" on="0"/>
        <pt x="1108" y="-50" on="0"/>
        <pt x="1075" y="-61" on="0"/>
        <pt x="1039" y="-69" on="0"/>
        <pt x="1019" y="-67" on="1"/>
        <pt x="1008" y="-71" on="0"/>
        <pt x="988" y="-79" on="0"/>
        <pt x="979" y="-85" on="1"/>
        <pt x="970" y="-85" on="0"/>
        <pt x="947" y="-86" on="0"/>
        <pt x="924" y="-89" on="0"/>
        <pt x="905" y="-97" on="0"/>
        <pt x="900" y="-106" on="1"/>
        <pt x="877" y="-108" on="0"/>
        <pt x="834" y="-118" on="0"/>
        <pt x="811" y="-118" on="1"/>
        <pt x="801" y="-118" on="0"/>
        <pt x="797" y="-117" on="1"/>
        <pt x="779" y="-108" on="0"/>
        <pt x="755" y="-83" on="0"/>
        <pt x="750" y="-63" on="1"/>
        <pt x="768" y="-41" on="0"/>
        <pt x="790" y="-28" on="1"/>
        <pt x="794" y="-29" on="0"/>
        <pt x="802" y="-27" on="0"/>
        <pt x="807" y="-27" on="1"/>
        <pt x="814" y="-27" on="0"/>
        <pt x="814" y="-31" on="1"/>
        <pt x="848" y="-13" on="0"/>
        <pt x="926" y="14" on="0"/>
        <pt x="965" y="12" on="1"/>
        <pt x="983" y="22" on="0"/>
        <pt x="1021" y="34" on="0"/>
        <pt x="1060" y="41" on="0"/>
        <pt x="1100" y="46" on="0"/>
        <pt x="1119" y="51" on="1"/>
        <pt x="1129" y="53" on="0"/>
        <pt x="1146" y="63" on="0"/>
        <pt x="1155" y="66" on="1"/>
        <pt x="1184" y="74" on="0"/>
        <pt x="1247" y="75" on="0"/>
        <pt x="1277" y="80" on="1"/>
        <pt x="1333" y="88" on="0"/>
        <pt x="1442" y="100" on="0"/>
        <pt x="1499" y="100" on="1"/>
        <pt x="1514" y="100" on="0"/>
        <pt x="1542" y="99" on="0"/>
        <pt x="1556" y="98" on="1"/>
        <pt x="1565" y="104" on="0"/>
        <pt x="1574" y="104" on="1"/>
        <pt x="1583" y="104" on="0"/>
        <pt x="1600" y="100" on="0"/>
        <pt x="1610" y="100" on="1"/>
        <pt x="1620" y="100" on="0"/>
        <pt x="1625" y="105" on="1"/>
        <pt x="1633" y="99" on="0"/>
        <pt x="1645" y="82" on="0"/>
      </contour>
      <contour>
        <pt x="1539" y="794" on="1"/>
        <pt x="1537" y="787" on="0"/>
        <pt x="1526" y="778" on="0"/>
        <pt x="1519" y="775" on="1"/>
        <pt x="1506" y="769" on="1"/>
        <pt x="1500" y="766" on="0"/>
        <pt x="1496" y="762" on="1"/>
        <pt x="1458" y="769" on="0"/>
        <pt x="1415" y="769" on="1"/>
        <pt x="1360" y="769" on="0"/>
        <pt x="1253" y="755" on="0"/>
        <pt x="1198" y="751" on="1"/>
        <pt x="1180" y="740" on="0"/>
        <pt x="1140" y="730" on="0"/>
        <pt x="1100" y="724" on="0"/>
        <pt x="1059" y="718" on="0"/>
        <pt x="1040" y="712" on="1"/>
        <pt x="1032" y="709" on="0"/>
        <pt x="1030" y="696" on="0"/>
        <pt x="1021" y="696" on="1"/>
        <pt x="1013" y="696" on="0"/>
        <pt x="1008" y="700" on="1"/>
        <pt x="988" y="689" on="0"/>
        <pt x="942" y="680" on="0"/>
        <pt x="895" y="674" on="0"/>
        <pt x="849" y="665" on="0"/>
        <pt x="828" y="654" on="1"/>
        <pt x="794" y="659" on="0"/>
        <pt x="742" y="702" on="0"/>
        <pt x="742" y="740" on="1"/>
        <pt x="759" y="751" on="0"/>
        <pt x="785" y="784" on="0"/>
        <pt x="804" y="791" on="1"/>
        <pt x="814" y="786" on="0"/>
        <pt x="837" y="783" on="0"/>
        <pt x="848" y="783" on="1"/>
        <pt x="864" y="783" on="0"/>
        <pt x="897" y="790" on="0"/>
        <pt x="930" y="798" on="0"/>
        <pt x="963" y="803" on="0"/>
        <pt x="979" y="801" on="1"/>
        <pt x="991" y="810" on="0"/>
        <pt x="1022" y="818" on="0"/>
        <pt x="1053" y="823" on="0"/>
        <pt x="1084" y="831" on="0"/>
        <pt x="1098" y="841" on="1"/>
        <pt x="1098" y="839" on="1"/>
        <pt x="1098" y="834" on="0"/>
        <pt x="1105" y="834" on="1"/>
        <pt x="1125" y="834" on="0"/>
        <pt x="1162" y="846" on="0"/>
        <pt x="1182" y="846" on="1"/>
        <pt x="1190" y="846" on="1"/>
        <pt x="1194" y="846" on="0"/>
        <pt x="1198" y="844" on="1"/>
        <pt x="1209" y="849" on="0"/>
        <pt x="1237" y="856" on="0"/>
        <pt x="1248" y="855" on="1"/>
        <pt x="1247" y="859" on="0"/>
        <pt x="1251" y="862" on="0"/>
        <pt x="1252" y="865" on="1"/>
        <pt x="1258" y="864" on="0"/>
        <pt x="1262" y="855" on="0"/>
        <pt x="1267" y="855" on="1"/>
        <pt x="1272" y="855" on="0"/>
        <pt x="1283" y="857" on="0"/>
        <pt x="1288" y="857" on="1"/>
        <pt x="1299" y="858" on="0"/>
        <pt x="1320" y="859" on="0"/>
        <pt x="1331" y="859" on="1"/>
        <pt x="1356" y="859" on="0"/>
        <pt x="1406" y="856" on="0"/>
        <pt x="1431" y="856" on="1"/>
        <pt x="1442" y="856" on="0"/>
        <pt x="1463" y="857" on="0"/>
        <pt x="1475" y="858" on="1"/>
        <pt x="1481" y="855" on="0"/>
        <pt x="1489" y="847" on="0"/>
        <pt x="1497" y="840" on="0"/>
        <pt x="1509" y="836" on="0"/>
        <pt x="1518" y="837" on="1"/>
        <pt x="1525" y="827" on="0"/>
        <pt x="1529" y="801" on="0"/>
      </contour>
    </TTGlyph>
    <TTGlyph name="Aacute" xMin="-148" yMin="-408" xMax="817" yMax="1544">
      <component glyphName="A" x="0" y="0" flags="0x4"/>
      <component glyphName="acute" x="164" y="358" flags="0x4"/>
    </TTGlyph>
    <TTGlyph name="Acircumflex" xMin="-148" yMin="-408" xMax="817" yMax="1408">
      <component glyphName="A" x="0" y="0" flags="0x4"/>
      <component glyphName="circumflex" x="-111" y="225" flags="0x4"/>
    </TTGlyph>
    <TTGlyph name="Adieresis" xMin="-148" yMin="-408" xMax="817" yMax="1271">
      <component glyphName="A" x="0" y="0" flags="0x204"/>
      <component glyphName="dieresis" x="-90" y="266" flags="0x4"/>
    </TTGlyph>
    <TTGlyph name="Agrave" xMin="-148" yMin="-408" xMax="817" yMax="1516">
      <component glyphName="A" x="0" y="0" flags="0x4"/>
      <component glyphName="grave" x="-121" y="625" flags="0x4"/>
    </TTGlyph>
    <TTGlyph name="Aring" xMin="-148" yMin="-408" xMax="817" yMax="1355">
      <component glyphName="A" x="0" y="0" flags="0x200"/>
      <component glyphName="ring" x="-143" y="133" flags="0x0"/>
    </TTGlyph>
    <TTGlyph name="Atilde" xMin="-148" yMin="-408" xMax="817" yMax="1399">
      <component glyphName="A" x="0" y="0" flags="0x4"/>
      <component glyphName="tilde" x="-121" y="317" flags="0x4"/>
    </TTGlyph>
    <TTGlyph name="B" xMin="102" yMin="-209" xMax="1193" yMax="938">
      <contour>
        <pt x="1193" y="170" on="1"/>
        <pt x="1193" y="157" on="0"/>
        <pt x="1179" y="136" on="0"/>
        <pt x="1182" y="122" on="1"/>
        <pt x="1178" y="115" on="0"/>
        <pt x="1165" y="107" on="0"/>
        <pt x="1167" y="96" on="1"/>
        <pt x="1146" y="85" on="0"/>
        <pt x="1111" y="52" on="0"/>
        <pt x="1091" y="37" on="1"/>
        <pt x="1079" y="28" on="0"/>
        <pt x="1062" y="21" on="0"/>
        <pt x="1050" y="14" on="1"/>
        <pt x="1025" y="-2" on="1"/>
        <pt x="1008" y="-11" on="0"/>
        <pt x="973" y="-29" on="0"/>
        <pt x="959" y="-43" on="1"/>
        <pt x="938" y="-44" on="0"/>
        <pt x="894" y="-65" on="0"/>
        <pt x="874" y="-73" on="1"/>
        <pt x="866" y="-76" on="0"/>
        <pt x="850" y="-79" on="0"/>
        <pt x="842" y="-83" on="1"/>
        <pt x="826" y="-90" on="1"/>
        <pt x="812" y="-97" on="0"/>
        <pt x="774" y="-112" on="0"/>
        <pt x="759" y="-112" on="1"/>
        <pt x="750" y="-116" on="0"/>
        <pt x="744" y="-126" on="1"/>
        <pt x="711" y="-137" on="0"/>
        <pt x="641" y="-149" on="0"/>
        <pt x="608" y="-162" on="1"/>
        <pt x="597" y="-167" on="0"/>
        <pt x="574" y="-184" on="0"/>
        <pt x="561" y="-183" on="1"/>
        <pt x="558" y="-188" on="0"/>
        <pt x="556" y="-202" on="0"/>
        <pt x="554" y="-209" on="1"/>
        <pt x="551" y="-209" on="1"/>
        <pt x="547" y="-209" on="0"/>
        <pt x="548" y="-201" on="0"/>
        <pt x="544" y="-201" on="1"/>
        <pt x="541" y="-201" on="0"/>
        <pt x="540" y="-202" on="1"/>
        <pt x="527" y="-205" on="0"/>
        <pt x="504" y="-209" on="0"/>
        <pt x="490" y="-209" on="1"/>
        <pt x="482" y="-209" on="0"/>
        <pt x="447" y="-205" on="0"/>
        <pt x="439" y="-202" on="1"/>
        <pt x="433" y="-199" on="0"/>
        <pt x="425" y="-183" on="0"/>
        <pt x="418" y="-165" on="0"/>
        <pt x="413" y="-146" on="0"/>
        <pt x="411" y="-140" on="1"/>
        <pt x="414" y="-129" on="0"/>
        <pt x="428" y="-115" on="0"/>
        <pt x="432" y="-104" on="1"/>
        <pt x="441" y="-103" on="0"/>
        <pt x="459" y="-99" on="0"/>
        <pt x="468" y="-100" on="1"/>
        <pt x="499" y="-91" on="0"/>
        <pt x="562" y="-74" on="0"/>
        <pt x="624" y="-56" on="0"/>
        <pt x="684" y="-34" on="0"/>
        <pt x="712" y="-18" on="1"/>
        <pt x="733" y="-18" on="1"/>
        <pt x="751" y="-8" on="0"/>
        <pt x="795" y="6" on="0"/>
        <pt x="809" y="22" on="1"/>
        <pt x="842" y="29" on="0"/>
        <pt x="914" y="53" on="0"/>
        <pt x="938" y="79" on="1"/>
        <pt x="953" y="81" on="0"/>
        <pt x="975" y="92" on="0"/>
        <pt x="985" y="98" on="1"/>
        <pt x="1005" y="111" on="1"/>
        <pt x="1015" y="118" on="0"/>
        <pt x="1028" y="122" on="1"/>
        <pt x="1036" y="130" on="0"/>
        <pt x="1050" y="148" on="0"/>
        <pt x="1060" y="154" on="1"/>
        <pt x="1057" y="170" on="0"/>
        <pt x="1031" y="186" on="0"/>
        <pt x="1021" y="197" on="1"/>
        <pt x="999" y="197" on="1"/>
        <pt x="973" y="213" on="0"/>
        <pt x="914" y="230" on="0"/>
        <pt x="885" y="240" on="1"/>
        <pt x="883" y="241" on="0"/>
        <pt x="880" y="241" on="1"/>
        <pt x="873" y="241" on="0"/>
        <pt x="870" y="231" on="0"/>
        <pt x="863" y="232" on="1"/>
        <pt x="854" y="238" on="0"/>
        <pt x="834" y="241" on="0"/>
        <pt x="823" y="241" on="1"/>
        <pt x="809" y="241" on="0"/>
        <pt x="782" y="238" on="0"/>
        <pt x="768" y="238" on="1"/>
        <pt x="761" y="238" on="0"/>
        <pt x="747" y="240" on="0"/>
        <pt x="740" y="244" on="1"/>
        <pt x="727" y="244" on="1"/>
        <pt x="706" y="244" on="0"/>
        <pt x="665" y="241" on="0"/>
        <pt x="645" y="241" on="1"/>
        <pt x="634" y="241" on="0"/>
        <pt x="614" y="242" on="0"/>
        <pt x="604" y="244" on="1"/>
        <pt x="583" y="234" on="0"/>
        <pt x="535" y="226" on="0"/>
        <pt x="484" y="222" on="0"/>
        <pt x="434" y="219" on="0"/>
        <pt x="411" y="215" on="1"/>
        <pt x="405" y="216" on="0"/>
        <pt x="394" y="217" on="0"/>
        <pt x="389" y="217" on="1"/>
        <pt x="384" y="217" on="0"/>
        <pt x="373" y="216" on="0"/>
        <pt x="368" y="215" on="1"/>
        <pt x="355" y="229" on="0"/>
        <pt x="318" y="242" on="0"/>
        <pt x="300" y="244" on="1"/>
        <pt x="286" y="261" on="0"/>
        <pt x="273" y="296" on="0"/>
        <pt x="271" y="318" on="1"/>
        <pt x="275" y="318" on="1"/>
        <pt x="282" y="318" on="0"/>
        <pt x="281" y="332" on="0"/>
        <pt x="286" y="337" on="1"/>
        <pt x="291" y="343" on="0"/>
        <pt x="308" y="348" on="0"/>
        <pt x="324" y="354" on="0"/>
        <pt x="339" y="363" on="0"/>
        <pt x="343" y="373" on="1"/>
        <pt x="356" y="373" on="1"/>
        <pt x="360" y="373" on="0"/>
        <pt x="369" y="372" on="0"/>
        <pt x="372" y="369" on="1"/>
        <pt x="376" y="373" on="0"/>
        <pt x="388" y="379" on="0"/>
        <pt x="399" y="385" on="0"/>
        <pt x="407" y="393" on="0"/>
        <pt x="408" y="401" on="1"/>
        <pt x="409" y="398" on="0"/>
        <pt x="413" y="398" on="1"/>
        <pt x="417" y="398" on="0"/>
        <pt x="424" y="402" on="0"/>
        <pt x="429" y="401" on="1"/>
        <pt x="434" y="415" on="0"/>
        <pt x="458" y="417" on="0"/>
        <pt x="468" y="423" on="1"/>
        <pt x="475" y="427" on="0"/>
        <pt x="487" y="438" on="0"/>
        <pt x="494" y="443" on="1"/>
        <pt x="554" y="489" on="1"/>
        <pt x="646" y="559" on="1"/>
        <pt x="692" y="594" on="0"/>
        <pt x="740" y="624" on="1"/>
        <pt x="742" y="630" on="0"/>
        <pt x="750" y="636" on="0"/>
        <pt x="758" y="643" on="0"/>
        <pt x="763" y="651" on="0"/>
        <pt x="762" y="659" on="1"/>
        <pt x="776" y="662" on="0"/>
        <pt x="791" y="678" on="0"/>
        <pt x="803" y="697" on="0"/>
        <pt x="816" y="716" on="0"/>
        <pt x="827" y="721" on="1"/>
        <pt x="826" y="724" on="0"/>
        <pt x="826" y="730" on="1"/>
        <pt x="826" y="738" on="0"/>
        <pt x="829" y="754" on="0"/>
        <pt x="835" y="760" on="1"/>
        <pt x="826" y="781" on="0"/>
        <pt x="782" y="800" on="0"/>
        <pt x="762" y="807" on="1"/>
        <pt x="759" y="807" on="1"/>
        <pt x="754" y="807" on="0"/>
        <pt x="753" y="798" on="0"/>
        <pt x="748" y="796" on="1"/>
        <pt x="732" y="800" on="0"/>
        <pt x="712" y="800" on="1"/>
        <pt x="692" y="800" on="0"/>
        <pt x="653" y="794" on="0"/>
        <pt x="633" y="796" on="1"/>
        <pt x="630" y="792" on="0"/>
        <pt x="623" y="784" on="0"/>
        <pt x="618" y="781" on="1"/>
        <pt x="597" y="780" on="0"/>
        <pt x="576" y="775" on="1"/>
        <pt x="534" y="765" on="1"/>
        <pt x="511" y="760" on="1"/>
        <pt x="506" y="758" on="0"/>
        <pt x="502" y="748" on="0"/>
        <pt x="501" y="742" on="1"/>
        <pt x="495" y="743" on="0"/>
        <pt x="492" y="751" on="0"/>
        <pt x="486" y="753" on="1"/>
        <pt x="463" y="739" on="0"/>
        <pt x="410" y="721" on="0"/>
        <pt x="389" y="702" on="1"/>
        <pt x="382" y="710" on="0"/>
        <pt x="369" y="710" on="1"/>
        <pt x="358" y="710" on="0"/>
        <pt x="332" y="696" on="0"/>
        <pt x="329" y="685" on="1"/>
        <pt x="319" y="687" on="0"/>
        <pt x="314" y="687" on="1"/>
        <pt x="303" y="687" on="0"/>
        <pt x="288" y="675" on="0"/>
        <pt x="274" y="660" on="0"/>
        <pt x="258" y="646" on="0"/>
        <pt x="246" y="645" on="1"/>
        <pt x="246" y="640" on="0"/>
        <pt x="247" y="629" on="0"/>
        <pt x="247" y="623" on="1"/>
        <pt x="247" y="578" on="0"/>
        <pt x="237" y="489" on="0"/>
        <pt x="237" y="444" on="1"/>
        <pt x="237" y="434" on="0"/>
        <pt x="239" y="415" on="0"/>
        <pt x="239" y="404" on="1"/>
        <pt x="239" y="401" on="0"/>
        <pt x="230" y="381" on="0"/>
        <pt x="228" y="376" on="1"/>
        <pt x="232" y="365" on="0"/>
        <pt x="231" y="343" on="0"/>
        <pt x="236" y="333" on="1"/>
        <pt x="227" y="325" on="0"/>
        <pt x="227" y="311" on="1"/>
        <pt x="227" y="305" on="0"/>
        <pt x="228" y="293" on="0"/>
        <pt x="228" y="287" on="1"/>
        <pt x="228" y="275" on="1"/>
        <pt x="225" y="255" on="0"/>
        <pt x="223" y="214" on="0"/>
        <pt x="223" y="194" on="1"/>
        <pt x="223" y="185" on="0"/>
        <pt x="224" y="142" on="0"/>
        <pt x="228" y="89" on="0"/>
        <pt x="236" y="33" on="0"/>
        <pt x="249" y="-14" on="0"/>
        <pt x="269" y="-44" on="0"/>
        <pt x="283" y="-44" on="1"/>
        <pt x="286" y="-44" on="0"/>
        <pt x="295" y="-42" on="0"/>
        <pt x="295" y="-38" on="1"/>
        <pt x="295" y="-34" on="0"/>
        <pt x="292" y="-28" on="0"/>
        <pt x="292" y="-24" on="1"/>
        <pt x="293" y="-22" on="1"/>
        <pt x="301" y="-26" on="0"/>
        <pt x="320" y="-28" on="0"/>
        <pt x="340" y="-30" on="0"/>
        <pt x="358" y="-35" on="0"/>
        <pt x="365" y="-43" on="1"/>
        <pt x="361" y="-51" on="0"/>
        <pt x="361" y="-60" on="1"/>
        <pt x="361" y="-72" on="0"/>
        <pt x="373" y="-93" on="0"/>
        <pt x="375" y="-104" on="1"/>
        <pt x="356" y="-110" on="0"/>
        <pt x="325" y="-125" on="0"/>
        <pt x="295" y="-138" on="0"/>
        <pt x="261" y="-149" on="0"/>
        <pt x="239" y="-151" on="1"/>
        <pt x="225" y="-142" on="0"/>
        <pt x="205" y="-128" on="0"/>
        <pt x="188" y="-126" on="1"/>
        <pt x="162" y="-91" on="0"/>
        <pt x="128" y="-4" on="0"/>
        <pt x="109" y="90" on="0"/>
        <pt x="102" y="185" on="0"/>
        <pt x="102" y="227" on="1"/>
        <pt x="102" y="273" on="0"/>
        <pt x="109" y="364" on="0"/>
        <pt x="115" y="410" on="1"/>
        <pt x="117" y="424" on="0"/>
        <pt x="121" y="453" on="0"/>
        <pt x="123" y="467" on="1"/>
        <pt x="125" y="472" on="0"/>
        <pt x="128" y="485" on="0"/>
        <pt x="128" y="490" on="1"/>
        <pt x="128" y="507" on="0"/>
        <pt x="126" y="541" on="0"/>
        <pt x="126" y="557" on="1"/>
        <pt x="126" y="582" on="0"/>
        <pt x="129" y="608" on="1"/>
        <pt x="130" y="613" on="0"/>
        <pt x="135" y="629" on="0"/>
        <pt x="135" y="635" on="1"/>
        <pt x="135" y="643" on="0"/>
        <pt x="127" y="649" on="0"/>
        <pt x="124" y="656" on="1"/>
        <pt x="127" y="666" on="0"/>
        <pt x="131" y="685" on="0"/>
        <pt x="131" y="695" on="1"/>
        <pt x="131" y="714" on="0"/>
        <pt x="124" y="728" on="1"/>
        <pt x="129" y="754" on="0"/>
        <pt x="149" y="804" on="0"/>
        <pt x="174" y="817" on="1"/>
        <pt x="194" y="816" on="0"/>
        <pt x="235" y="810" on="0"/>
        <pt x="250" y="796" on="1"/>
        <pt x="257" y="800" on="0"/>
        <pt x="266" y="801" on="1"/>
        <pt x="285" y="803" on="1"/>
        <pt x="295" y="804" on="0"/>
        <pt x="311" y="809" on="0"/>
        <pt x="317" y="817" on="1"/>
        <pt x="337" y="821" on="0"/>
        <pt x="383" y="836" on="0"/>
        <pt x="400" y="846" on="1"/>
        <pt x="422" y="846" on="1"/>
        <pt x="429" y="851" on="0"/>
        <pt x="438" y="853" on="1"/>
        <pt x="457" y="858" on="1"/>
        <pt x="467" y="861" on="0"/>
        <pt x="484" y="867" on="0"/>
        <pt x="489" y="874" on="1"/>
        <pt x="493" y="874" on="1"/>
        <pt x="516" y="874" on="0"/>
        <pt x="560" y="894" on="0"/>
        <pt x="581" y="902" on="1"/>
        <pt x="586" y="904" on="0"/>
        <pt x="607" y="914" on="0"/>
        <pt x="611" y="914" on="1"/>
        <pt x="625" y="916" on="0"/>
        <pt x="653" y="917" on="0"/>
        <pt x="667" y="920" on="1"/>
        <pt x="699" y="925" on="0"/>
        <pt x="762" y="938" on="0"/>
        <pt x="794" y="938" on="1"/>
        <pt x="805" y="938" on="0"/>
        <pt x="824" y="937" on="0"/>
        <pt x="835" y="936" on="1"/>
        <pt x="836" y="932" on="0"/>
        <pt x="844" y="927" on="0"/>
        <pt x="851" y="923" on="0"/>
        <pt x="857" y="916" on="0"/>
        <pt x="856" y="910" on="1"/>
        <pt x="858" y="908" on="0"/>
        <pt x="860" y="908" on="1"/>
        <pt x="863" y="908" on="0"/>
        <pt x="868" y="914" on="0"/>
        <pt x="873" y="914" on="1"/>
        <pt x="878" y="914" on="1"/>
        <pt x="891" y="900" on="0"/>
        <pt x="916" y="875" on="0"/>
        <pt x="935" y="867" on="1"/>
        <pt x="943" y="837" on="0"/>
        <pt x="965" y="779" on="0"/>
        <pt x="965" y="746" on="1"/>
        <pt x="965" y="726" on="0"/>
        <pt x="959" y="707" on="1"/>
        <pt x="945" y="700" on="0"/>
        <pt x="933" y="670" on="0"/>
        <pt x="928" y="656" on="1"/>
        <pt x="900" y="642" on="0"/>
        <pt x="862" y="596" on="0"/>
        <pt x="842" y="573" on="1"/>
        <pt x="826" y="573" on="1"/>
        <pt x="822" y="573" on="0"/>
        <pt x="820" y="570" on="1"/>
        <pt x="811" y="560" on="1"/>
        <pt x="802" y="552" on="0"/>
        <pt x="781" y="536" on="0"/>
        <pt x="776" y="523" on="1"/>
        <pt x="745" y="506" on="0"/>
        <pt x="688" y="464" on="0"/>
        <pt x="662" y="441" on="1"/>
        <pt x="651" y="432" on="0"/>
        <pt x="629" y="409" on="0"/>
        <pt x="618" y="401" on="1"/>
        <pt x="612" y="396" on="0"/>
        <pt x="597" y="389" on="0"/>
        <pt x="591" y="384" on="1"/>
        <pt x="578" y="374" on="0"/>
        <pt x="556" y="353" on="0"/>
        <pt x="544" y="344" on="1"/>
        <pt x="589" y="346" on="0"/>
        <pt x="681" y="347" on="0"/>
        <pt x="726" y="348" on="1"/>
        <pt x="749" y="348" on="0"/>
        <pt x="793" y="351" on="0"/>
        <pt x="816" y="351" on="1"/>
        <pt x="820" y="351" on="0"/>
        <pt x="826" y="348" on="0"/>
        <pt x="830" y="347" on="1"/>
        <pt x="847" y="344" on="0"/>
        <pt x="860" y="340" on="1"/>
        <pt x="908" y="331" on="0"/>
        <pt x="1004" y="317" on="0"/>
        <pt x="1050" y="301" on="1"/>
        <pt x="1063" y="296" on="0"/>
        <pt x="1076" y="284" on="0"/>
        <pt x="1093" y="287" on="1"/>
        <pt x="1107" y="273" on="0"/>
        <pt x="1140" y="257" on="0"/>
        <pt x="1157" y="251" on="1"/>
        <pt x="1170" y="231" on="0"/>
        <pt x="1193" y="195" on="0"/>
      </contour>
    </TTGlyph>
    <TTGlyph name="C" xMin="10" yMin="-202" xMax="1076" yMax="989">
      <contour>
        <pt x="1076" y="57" on="1"/>
        <pt x="1076" y="49" on="0"/>
        <pt x="1065" y="43" on="0"/>
        <pt x="1068" y="32" on="1"/>
        <pt x="1060" y="31" on="0"/>
        <pt x="1048" y="17" on="0"/>
        <pt x="1040" y="17" on="1"/>
        <pt x="1035" y="17" on="0"/>
        <pt x="1032" y="22" on="1"/>
        <pt x="1030" y="15" on="0"/>
        <pt x="1019" y="9" on="0"/>
        <pt x="1007" y="5" on="0"/>
        <pt x="995" y="-1" on="0"/>
        <pt x="993" y="-7" on="1"/>
        <pt x="988" y="-7" on="1"/>
        <pt x="976" y="-7" on="0"/>
        <pt x="963" y="-27" on="0"/>
        <pt x="954" y="-27" on="1"/>
        <pt x="951" y="-27" on="0"/>
        <pt x="950" y="-26" on="1"/>
        <pt x="945" y="-27" on="0"/>
        <pt x="947" y="-38" on="0"/>
        <pt x="943" y="-40" on="1"/>
        <pt x="938" y="-40" on="1"/>
        <pt x="912" y="-40" on="0"/>
        <pt x="858" y="-62" on="0"/>
        <pt x="803" y="-90" on="0"/>
        <pt x="746" y="-115" on="0"/>
        <pt x="717" y="-119" on="1"/>
        <pt x="711" y="-125" on="0"/>
        <pt x="694" y="-132" on="0"/>
        <pt x="674" y="-136" on="0"/>
        <pt x="655" y="-141" on="0"/>
        <pt x="648" y="-147" on="1"/>
        <pt x="623" y="-149" on="0"/>
        <pt x="573" y="-163" on="0"/>
        <pt x="524" y="-176" on="0"/>
        <pt x="473" y="-185" on="0"/>
        <pt x="447" y="-183" on="1"/>
        <pt x="439" y="-189" on="0"/>
        <pt x="420" y="-196" on="0"/>
        <pt x="412" y="-202" on="1"/>
        <pt x="371" y="-196" on="0"/>
        <pt x="290" y="-190" on="0"/>
        <pt x="251" y="-179" on="1"/>
        <pt x="251" y="-176" on="0"/>
        <pt x="247" y="-174" on="0"/>
        <pt x="242" y="-173" on="0"/>
        <pt x="238" y="-170" on="0"/>
        <pt x="240" y="-166" on="1"/>
        <pt x="231" y="-169" on="0"/>
        <pt x="224" y="-169" on="1"/>
        <pt x="214" y="-169" on="0"/>
        <pt x="195" y="-159" on="0"/>
        <pt x="174" y="-147" on="0"/>
        <pt x="152" y="-136" on="0"/>
        <pt x="139" y="-136" on="1"/>
        <pt x="131" y="-128" on="0"/>
        <pt x="118" y="-112" on="0"/>
        <pt x="115" y="-100" on="1"/>
        <pt x="111" y="-99" on="0"/>
        <pt x="102" y="-101" on="0"/>
        <pt x="99" y="-101" on="1"/>
        <pt x="93" y="-101" on="0"/>
        <pt x="93" y="-97" on="1"/>
        <pt x="72" y="-82" on="0"/>
        <pt x="54" y="-48" on="0"/>
        <pt x="43" y="-26" on="1"/>
        <pt x="40" y="-19" on="0"/>
        <pt x="31" y="-10" on="0"/>
        <pt x="29" y="-4" on="1"/>
        <pt x="25" y="6" on="0"/>
        <pt x="23" y="28" on="0"/>
        <pt x="22" y="49" on="0"/>
        <pt x="17" y="70" on="0"/>
        <pt x="10" y="79" on="1"/>
        <pt x="12" y="117" on="0"/>
        <pt x="25" y="193" on="0"/>
        <pt x="35" y="231" on="1"/>
        <pt x="39" y="248" on="0"/>
        <pt x="49" y="280" on="0"/>
        <pt x="53" y="297" on="1"/>
        <pt x="54" y="303" on="0"/>
        <pt x="59" y="308" on="0"/>
        <pt x="61" y="309" on="1"/>
        <pt x="65" y="312" on="1"/>
        <pt x="67" y="314" on="0"/>
        <pt x="68" y="318" on="1"/>
        <pt x="76" y="352" on="1"/>
        <pt x="84" y="385" on="0"/>
        <pt x="110" y="447" on="0"/>
        <pt x="132" y="473" on="1"/>
        <pt x="134" y="498" on="0"/>
        <pt x="153" y="543" on="0"/>
        <pt x="177" y="586" on="0"/>
        <pt x="201" y="628" on="0"/>
        <pt x="208" y="652" on="1"/>
        <pt x="207" y="654" on="1"/>
        <pt x="207" y="658" on="0"/>
        <pt x="216" y="659" on="0"/>
        <pt x="218" y="659" on="1"/>
        <pt x="219" y="675" on="0"/>
        <pt x="232" y="698" on="0"/>
        <pt x="247" y="718" on="0"/>
        <pt x="260" y="741" on="0"/>
        <pt x="261" y="757" on="1"/>
        <pt x="280" y="768" on="0"/>
        <pt x="307" y="801" on="0"/>
        <pt x="332" y="836" on="0"/>
        <pt x="360" y="869" on="0"/>
        <pt x="380" y="879" on="1"/>
        <pt x="385" y="885" on="0"/>
        <pt x="383" y="896" on="1"/>
        <pt x="414" y="919" on="0"/>
        <pt x="480" y="955" on="0"/>
        <pt x="509" y="979" on="1"/>
        <pt x="545" y="979" on="1"/>
        <pt x="558" y="989" on="0"/>
        <pt x="574" y="989" on="1"/>
        <pt x="586" y="989" on="0"/>
        <pt x="609" y="979" on="0"/>
        <pt x="630" y="966" on="0"/>
        <pt x="652" y="953" on="0"/>
        <pt x="663" y="950" on="1"/>
        <pt x="674" y="935" on="0"/>
        <pt x="683" y="896" on="0"/>
        <pt x="688" y="879" on="1"/>
        <pt x="679" y="852" on="0"/>
        <pt x="675" y="795" on="0"/>
        <pt x="670" y="767" on="1"/>
        <pt x="663" y="759" on="0"/>
        <pt x="653" y="740" on="0"/>
        <pt x="642" y="721" on="0"/>
        <pt x="630" y="704" on="0"/>
        <pt x="620" y="699" on="1"/>
        <pt x="612" y="670" on="0"/>
        <pt x="578" y="636" on="0"/>
        <pt x="562" y="613" on="1"/>
        <pt x="547" y="603" on="0"/>
        <pt x="530" y="603" on="1"/>
        <pt x="516" y="603" on="0"/>
        <pt x="494" y="616" on="0"/>
        <pt x="476" y="637" on="0"/>
        <pt x="465" y="662" on="0"/>
        <pt x="462" y="674" on="1"/>
        <pt x="469" y="695" on="0"/>
        <pt x="500" y="725" on="0"/>
        <pt x="532" y="755" on="0"/>
        <pt x="556" y="789" on="0"/>
        <pt x="556" y="813" on="1"/>
        <pt x="556" y="815" on="0"/>
        <pt x="555" y="819" on="0"/>
        <pt x="555" y="821" on="1"/>
        <pt x="555" y="825" on="0"/>
        <pt x="561" y="831" on="0"/>
        <pt x="564" y="833" on="1"/>
        <pt x="570" y="838" on="1"/>
        <pt x="573" y="841" on="0"/>
        <pt x="573" y="845" on="1"/>
        <pt x="573" y="849" on="0"/>
        <pt x="569" y="853" on="1"/>
        <pt x="531" y="850" on="0"/>
        <pt x="492" y="830" on="0"/>
        <pt x="470" y="806" on="0"/>
        <pt x="453" y="783" on="0"/>
        <pt x="437" y="778" on="1"/>
        <pt x="434" y="770" on="0"/>
        <pt x="423" y="759" on="0"/>
        <pt x="411" y="748" on="0"/>
        <pt x="402" y="734" on="0"/>
        <pt x="401" y="724" on="1"/>
        <pt x="383" y="724" on="1"/>
        <pt x="379" y="715" on="0"/>
        <pt x="364" y="698" on="0"/>
        <pt x="349" y="682" on="0"/>
        <pt x="338" y="663" on="0"/>
        <pt x="340" y="652" on="1"/>
        <pt x="329" y="648" on="0"/>
        <pt x="318" y="630" on="0"/>
        <pt x="308" y="624" on="1"/>
        <pt x="308" y="618" on="1"/>
        <pt x="308" y="610" on="0"/>
        <pt x="302" y="596" on="0"/>
        <pt x="304" y="588" on="1"/>
        <pt x="292" y="577" on="0"/>
        <pt x="281" y="544" on="0"/>
        <pt x="275" y="530" on="1"/>
        <pt x="261" y="523" on="0"/>
        <pt x="251" y="499" on="0"/>
        <pt x="251" y="483" on="1"/>
        <pt x="236" y="468" on="0"/>
        <pt x="212" y="428" on="0"/>
        <pt x="193" y="386" on="0"/>
        <pt x="177" y="342" on="0"/>
        <pt x="168" y="323" on="1"/>
        <pt x="168" y="294" on="1"/>
        <pt x="154" y="278" on="0"/>
        <pt x="143" y="235" on="0"/>
        <pt x="132" y="218" on="1"/>
        <pt x="130" y="207" on="0"/>
        <pt x="131" y="185" on="0"/>
        <pt x="131" y="174" on="1"/>
        <pt x="131" y="162" on="0"/>
        <pt x="127" y="136" on="0"/>
        <pt x="122" y="125" on="1"/>
        <pt x="126" y="110" on="0"/>
        <pt x="130" y="69" on="0"/>
        <pt x="140" y="28" on="0"/>
        <pt x="158" y="-5" on="0"/>
        <pt x="175" y="-11" on="1"/>
        <pt x="179" y="-33" on="0"/>
        <pt x="210" y="-56" on="0"/>
        <pt x="250" y="-70" on="0"/>
        <pt x="292" y="-81" on="0"/>
        <pt x="308" y="-90" on="1"/>
        <pt x="314" y="-87" on="0"/>
        <pt x="322" y="-87" on="1"/>
        <pt x="330" y="-87" on="0"/>
        <pt x="343" y="-91" on="0"/>
        <pt x="351" y="-93" on="1"/>
        <pt x="365" y="-91" on="0"/>
        <pt x="406" y="-91" on="0"/>
        <pt x="448" y="-88" on="0"/>
        <pt x="484" y="-80" on="0"/>
        <pt x="495" y="-69" on="1"/>
        <pt x="502" y="-69" on="0"/>
        <pt x="507" y="-77" on="0"/>
        <pt x="514" y="-77" on="1"/>
        <pt x="521" y="-77" on="0"/>
        <pt x="549" y="-70" on="0"/>
        <pt x="579" y="-61" on="0"/>
        <pt x="606" y="-51" on="0"/>
        <pt x="612" y="-47" on="1"/>
        <pt x="615" y="-48" on="0"/>
        <pt x="618" y="-48" on="1"/>
        <pt x="625" y="-48" on="1"/>
        <pt x="639" y="-48" on="0"/>
        <pt x="663" y="-38" on="0"/>
        <pt x="677" y="-40" on="1"/>
        <pt x="723" y="-17" on="0"/>
        <pt x="818" y="16" on="0"/>
        <pt x="867" y="29" on="1"/>
        <pt x="873" y="38" on="0"/>
        <pt x="890" y="46" on="0"/>
        <pt x="910" y="51" on="0"/>
        <pt x="930" y="54" on="0"/>
        <pt x="939" y="57" on="1"/>
        <pt x="945" y="60" on="0"/>
        <pt x="954" y="69" on="0"/>
        <pt x="961" y="72" on="1"/>
        <pt x="968" y="75" on="0"/>
        <pt x="985" y="77" on="0"/>
        <pt x="1002" y="80" on="0"/>
        <pt x="1017" y="86" on="0"/>
        <pt x="1022" y="93" on="1"/>
        <pt x="1036" y="87" on="0"/>
        <pt x="1065" y="73" on="0"/>
        <pt x="1075" y="60" on="1"/>
      </contour>
    </TTGlyph>
    <TTGlyph name="Ccedilla" xMin="10" yMin="-787" xMax="1076" yMax="989">
      <component glyphName="C" x="0" y="0" flags="0x200"/>
      <component glyphName="cedilla" x="112" y="-183" flags="0x0"/>
    </TTGlyph>
    <TTGlyph name="D" xMin="-82" yMin="-198" xMax="935" yMax="1066">
      <contour>
        <pt x="935" y="698" on="1"/>
        <pt x="935" y="641" on="0"/>
        <pt x="905" y="545" on="0"/>
        <pt x="858" y="457" on="0"/>
        <pt x="804" y="371" on="0"/>
        <pt x="780" y="323" on="1"/>
        <pt x="774" y="323" on="0"/>
        <pt x="769" y="317" on="0"/>
        <pt x="766" y="308" on="0"/>
        <pt x="761" y="301" on="0"/>
        <pt x="755" y="301" on="1"/>
        <pt x="746" y="279" on="0"/>
        <pt x="718" y="240" on="0"/>
        <pt x="687" y="203" on="0"/>
        <pt x="658" y="165" on="0"/>
        <pt x="647" y="143" on="1"/>
        <pt x="637" y="143" on="1"/>
        <pt x="583" y="65" on="0"/>
        <pt x="448" y="-59" on="0"/>
        <pt x="368" y="-108" on="1"/>
        <pt x="366" y="-114" on="0"/>
        <pt x="358" y="-122" on="0"/>
        <pt x="360" y="-129" on="1"/>
        <pt x="349" y="-135" on="0"/>
        <pt x="334" y="-154" on="0"/>
        <pt x="320" y="-174" on="0"/>
        <pt x="305" y="-193" on="0"/>
        <pt x="293" y="-198" on="1"/>
        <pt x="278" y="-195" on="0"/>
        <pt x="251" y="-191" on="0"/>
        <pt x="237" y="-190" on="1"/>
        <pt x="231" y="-190" on="0"/>
        <pt x="219" y="-191" on="0"/>
        <pt x="214" y="-190" on="1"/>
        <pt x="203" y="-188" on="0"/>
        <pt x="188" y="-175" on="0"/>
        <pt x="174" y="-175" on="1"/>
        <pt x="167" y="-175" on="0"/>
        <pt x="163" y="-176" on="1"/>
        <pt x="155" y="-162" on="0"/>
        <pt x="134" y="-133" on="0"/>
        <pt x="134" y="-116" on="1"/>
        <pt x="134" y="-103" on="0"/>
        <pt x="141" y="-81" on="0"/>
        <pt x="141" y="-69" on="1"/>
        <pt x="141" y="-45" on="0"/>
        <pt x="124" y="1" on="0"/>
        <pt x="124" y="25" on="1"/>
        <pt x="124" y="33" on="0"/>
        <pt x="128" y="48" on="0"/>
        <pt x="128" y="56" on="1"/>
        <pt x="128" y="65" on="0"/>
        <pt x="120" y="72" on="1"/>
        <pt x="121" y="77" on="0"/>
        <pt x="127" y="87" on="0"/>
        <pt x="127" y="93" on="1"/>
        <pt x="129" y="101" on="0"/>
        <pt x="127" y="120" on="0"/>
        <pt x="127" y="128" on="1"/>
        <pt x="127" y="149" on="0"/>
        <pt x="131" y="191" on="0"/>
        <pt x="138" y="211" on="1"/>
        <pt x="137" y="217" on="0"/>
        <pt x="135" y="222" on="1"/>
        <pt x="131" y="232" on="1"/>
        <pt x="138" y="253" on="0"/>
        <pt x="142" y="305" on="0"/>
        <pt x="142" y="331" on="1"/>
        <pt x="142" y="384" on="1"/>
        <pt x="142" y="410" on="0"/>
        <pt x="145" y="433" on="1"/>
        <pt x="147" y="443" on="0"/>
        <pt x="152" y="462" on="0"/>
        <pt x="152" y="471" on="1"/>
        <pt x="152" y="479" on="0"/>
        <pt x="146" y="492" on="0"/>
        <pt x="141" y="498" on="1"/>
        <pt x="148" y="500" on="0"/>
        <pt x="150" y="513" on="0"/>
        <pt x="150" y="518" on="1"/>
        <pt x="150" y="532" on="0"/>
        <pt x="145" y="549" on="1"/>
        <pt x="149" y="566" on="0"/>
        <pt x="151" y="601" on="0"/>
        <pt x="151" y="618" on="1"/>
        <pt x="151" y="678" on="0"/>
        <pt x="136" y="794" on="0"/>
        <pt x="134" y="853" on="1"/>
        <pt x="131" y="853" on="1"/>
        <pt x="124" y="853" on="0"/>
        <pt x="116" y="847" on="0"/>
        <pt x="108" y="840" on="0"/>
        <pt x="98" y="835" on="0"/>
        <pt x="91" y="836" on="1"/>
        <pt x="79" y="822" on="0"/>
        <pt x="48" y="802" on="0"/>
        <pt x="14" y="786" on="0"/>
        <pt x="-22" y="773" on="0"/>
        <pt x="-38" y="767" on="1"/>
        <pt x="-52" y="772" on="0"/>
        <pt x="-72" y="795" on="0"/>
        <pt x="-81" y="807" on="1"/>
        <pt x="-82" y="811" on="0"/>
        <pt x="-82" y="815" on="1"/>
        <pt x="-82" y="823" on="1"/>
        <pt x="-82" y="851" on="0"/>
        <pt x="-56" y="880" on="0"/>
        <pt x="-41" y="900" on="1"/>
        <pt x="-36" y="900" on="1"/>
        <pt x="-31" y="900" on="0"/>
        <pt x="-24" y="896" on="0"/>
        <pt x="-19" y="896" on="1"/>
        <pt x="-16" y="896" on="1"/>
        <pt x="13" y="920" on="0"/>
        <pt x="78" y="949" on="0"/>
        <pt x="113" y="957" on="1"/>
        <pt x="128" y="972" on="0"/>
        <pt x="159" y="988" on="0"/>
        <pt x="180" y="988" on="1"/>
        <pt x="185" y="988" on="0"/>
        <pt x="198" y="987" on="0"/>
        <pt x="203" y="986" on="1"/>
        <pt x="244" y="1005" on="0"/>
        <pt x="317" y="1032" on="0"/>
        <pt x="365" y="1032" on="1"/>
        <pt x="371" y="1032" on="0"/>
        <pt x="376" y="1038" on="0"/>
        <pt x="380" y="1045" on="0"/>
        <pt x="384" y="1051" on="0"/>
        <pt x="389" y="1051" on="1"/>
        <pt x="389" y="1049" on="0"/>
        <pt x="391" y="1041" on="0"/>
        <pt x="395" y="1041" on="1"/>
        <pt x="399" y="1041" on="0"/>
        <pt x="406" y="1046" on="0"/>
        <pt x="411" y="1046" on="1"/>
        <pt x="416" y="1046" on="0"/>
        <pt x="418" y="1039" on="1"/>
        <pt x="429" y="1046" on="0"/>
        <pt x="449" y="1058" on="0"/>
        <pt x="461" y="1061" on="1"/>
        <pt x="476" y="1058" on="0"/>
        <pt x="507" y="1054" on="0"/>
        <pt x="523" y="1054" on="1"/>
        <pt x="535" y="1054" on="0"/>
        <pt x="559" y="1057" on="0"/>
        <pt x="568" y="1065" on="1"/>
        <pt x="572" y="1066" on="0"/>
        <pt x="572" y="1061" on="1"/>
        <pt x="581" y="1053" on="0"/>
        <pt x="601" y="1048" on="0"/>
        <pt x="623" y="1047" on="0"/>
        <pt x="645" y="1045" on="0"/>
        <pt x="654" y="1039" on="1"/>
        <pt x="662" y="1037" on="0"/>
        <pt x="672" y="1028" on="0"/>
        <pt x="680" y="1025" on="1"/>
        <pt x="686" y="1023" on="0"/>
        <pt x="707" y="1021" on="0"/>
        <pt x="712" y="1018" on="1"/>
        <pt x="717" y="1016" on="0"/>
        <pt x="718" y="1007" on="0"/>
        <pt x="723" y="1004" on="1"/>
        <pt x="732" y="997" on="0"/>
        <pt x="762" y="994" on="0"/>
        <pt x="773" y="986" on="1"/>
        <pt x="777" y="964" on="0"/>
        <pt x="813" y="950" on="0"/>
        <pt x="830" y="943" on="1"/>
        <pt x="836" y="937" on="0"/>
        <pt x="834" y="929" on="1"/>
        <pt x="846" y="920" on="0"/>
        <pt x="865" y="898" on="0"/>
        <pt x="882" y="873" on="0"/>
        <pt x="898" y="849" on="0"/>
        <pt x="909" y="839" on="1"/>
        <pt x="908" y="830" on="0"/>
        <pt x="915" y="820" on="0"/>
        <pt x="913" y="810" on="1"/>
        <pt x="925" y="799" on="0"/>
        <pt x="935" y="781" on="1"/>
        <pt x="929" y="772" on="0"/>
        <pt x="929" y="761" on="1"/>
        <pt x="929" y="751" on="0"/>
        <pt x="935" y="731" on="0"/>
        <pt x="935" y="721" on="1"/>
      </contour>
      <contour>
        <pt x="842" y="720" on="1"/>
        <pt x="842" y="749" on="0"/>
        <pt x="820" y="804" on="0"/>
        <pt x="812" y="831" on="1"/>
        <pt x="799" y="831" on="0"/>
        <pt x="792" y="850" on="0"/>
        <pt x="783" y="857" on="1"/>
        <pt x="764" y="861" on="0"/>
        <pt x="759" y="886" on="1"/>
        <pt x="739" y="894" on="0"/>
        <pt x="697" y="914" on="0"/>
        <pt x="683" y="932" on="1"/>
        <pt x="647" y="943" on="0"/>
        <pt x="574" y="966" on="0"/>
        <pt x="536" y="966" on="1"/>
        <pt x="529" y="966" on="0"/>
        <pt x="518" y="965" on="0"/>
        <pt x="513" y="965" on="1"/>
        <pt x="505" y="965" on="0"/>
        <pt x="487" y="959" on="0"/>
        <pt x="479" y="959" on="1"/>
        <pt x="470" y="959" on="0"/>
        <pt x="461" y="965" on="1"/>
        <pt x="441" y="954" on="0"/>
        <pt x="394" y="942" on="0"/>
        <pt x="346" y="933" on="0"/>
        <pt x="300" y="920" on="0"/>
        <pt x="282" y="907" on="1"/>
        <pt x="276" y="909" on="0"/>
        <pt x="265" y="911" on="0"/>
        <pt x="260" y="911" on="1"/>
        <pt x="251" y="911" on="0"/>
        <pt x="246" y="907" on="1"/>
        <pt x="243" y="905" on="0"/>
        <pt x="242" y="899" on="0"/>
        <pt x="241" y="892" on="0"/>
        <pt x="237" y="888" on="0"/>
        <pt x="231" y="889" on="1"/>
        <pt x="231" y="884" on="0"/>
        <pt x="230" y="876" on="0"/>
        <pt x="230" y="871" on="1"/>
        <pt x="230" y="845" on="0"/>
        <pt x="241" y="794" on="0"/>
        <pt x="241" y="768" on="1"/>
        <pt x="241" y="759" on="0"/>
        <pt x="239" y="740" on="0"/>
        <pt x="236" y="731" on="1"/>
        <pt x="241" y="719" on="0"/>
        <pt x="242" y="691" on="0"/>
        <pt x="242" y="663" on="0"/>
        <pt x="244" y="636" on="0"/>
        <pt x="250" y="624" on="1"/>
        <pt x="247" y="609" on="0"/>
        <pt x="245" y="579" on="0"/>
        <pt x="245" y="564" on="1"/>
        <pt x="245" y="529" on="0"/>
        <pt x="252" y="461" on="0"/>
        <pt x="252" y="426" on="1"/>
        <pt x="252" y="417" on="0"/>
        <pt x="251" y="397" on="0"/>
        <pt x="250" y="387" on="1"/>
        <pt x="248" y="374" on="0"/>
        <pt x="238" y="350" on="0"/>
        <pt x="238" y="336" on="1"/>
        <pt x="238" y="327" on="0"/>
        <pt x="240" y="308" on="0"/>
        <pt x="240" y="298" on="1"/>
        <pt x="240" y="294" on="0"/>
        <pt x="239" y="287" on="0"/>
        <pt x="239" y="283" on="1"/>
        <pt x="234" y="248" on="0"/>
        <pt x="228" y="176" on="0"/>
        <pt x="228" y="141" on="1"/>
        <pt x="228" y="108" on="0"/>
        <pt x="232" y="43" on="0"/>
        <pt x="236" y="10" on="1"/>
        <pt x="232" y="3" on="0"/>
        <pt x="232" y="-6" on="1"/>
        <pt x="232" y="-20" on="0"/>
        <pt x="246" y="-49" on="0"/>
        <pt x="260" y="-54" on="1"/>
        <pt x="292" y="-42" on="0"/>
        <pt x="347" y="-3" on="0"/>
        <pt x="375" y="17" on="1"/>
        <pt x="382" y="22" on="0"/>
        <pt x="410" y="39" on="0"/>
        <pt x="415" y="43" on="1"/>
        <pt x="420" y="47" on="0"/>
        <pt x="427" y="56" on="0"/>
        <pt x="432" y="61" on="1"/>
        <pt x="476" y="108" on="1"/>
        <pt x="514" y="147" on="0"/>
        <pt x="589" y="227" on="0"/>
        <pt x="621" y="272" on="1"/>
        <pt x="630" y="286" on="0"/>
        <pt x="648" y="313" on="0"/>
        <pt x="656" y="328" on="1"/>
        <pt x="660" y="333" on="0"/>
        <pt x="664" y="346" on="0"/>
        <pt x="669" y="351" on="1"/>
        <pt x="672" y="355" on="0"/>
        <pt x="681" y="363" on="0"/>
        <pt x="684" y="367" on="1"/>
        <pt x="692" y="376" on="0"/>
        <pt x="707" y="395" on="0"/>
        <pt x="715" y="406" on="1"/>
        <pt x="737" y="438" on="0"/>
        <pt x="775" y="503" on="0"/>
        <pt x="798" y="535" on="1"/>
        <pt x="800" y="555" on="0"/>
        <pt x="812" y="590" on="0"/>
        <pt x="824" y="623" on="0"/>
        <pt x="832" y="659" on="0"/>
        <pt x="830" y="681" on="1"/>
        <pt x="835" y="688" on="0"/>
        <pt x="842" y="694" on="0"/>
        <pt x="842" y="703" on="1"/>
      </contour>
    </TTGlyph>
    <TTGlyph name="E" xMin="51" yMin="-430" xMax="1101" yMax="1154">
      <contour>
        <pt x="1101" y="1093" on="1"/>
        <pt x="1101" y="1084" on="0"/>
        <pt x="1100" y="1066" on="0"/>
        <pt x="1099" y="1058" on="1"/>
        <pt x="1096" y="1053" on="0"/>
        <pt x="1079" y="1055" on="0"/>
        <pt x="1074" y="1055" on="1"/>
        <pt x="1069" y="1055" on="0"/>
        <pt x="1062" y="1052" on="0"/>
        <pt x="1062" y="1047" on="1"/>
        <pt x="1062" y="1041" on="0"/>
        <pt x="1063" y="1039" on="1"/>
        <pt x="1055" y="1040" on="0"/>
        <pt x="1037" y="1042" on="0"/>
        <pt x="1030" y="1047" on="1"/>
        <pt x="1016" y="1044" on="0"/>
        <pt x="991" y="1034" on="0"/>
        <pt x="967" y="1022" on="0"/>
        <pt x="941" y="1012" on="0"/>
        <pt x="927" y="1011" on="1"/>
        <pt x="918" y="1001" on="0"/>
        <pt x="890" y="991" on="0"/>
        <pt x="860" y="983" on="0"/>
        <pt x="834" y="972" on="0"/>
        <pt x="826" y="961" on="1"/>
        <pt x="804" y="959" on="0"/>
        <pt x="764" y="941" on="0"/>
        <pt x="725" y="921" on="0"/>
        <pt x="685" y="903" on="0"/>
        <pt x="662" y="900" on="1"/>
        <pt x="656" y="894" on="0"/>
        <pt x="639" y="886" on="0"/>
        <pt x="621" y="879" on="0"/>
        <pt x="605" y="871" on="0"/>
        <pt x="600" y="864" on="1"/>
        <pt x="598" y="864" on="1"/>
        <pt x="594" y="864" on="0"/>
        <pt x="590" y="868" on="0"/>
        <pt x="586" y="868" on="1"/>
        <pt x="583" y="868" on="0"/>
        <pt x="582" y="867" on="1"/>
        <pt x="558" y="856" on="0"/>
        <pt x="510" y="832" on="0"/>
        <pt x="484" y="821" on="1"/>
        <pt x="433" y="800" on="0"/>
        <pt x="329" y="760" on="0"/>
        <pt x="281" y="731" on="1"/>
        <pt x="270" y="691" on="0"/>
        <pt x="256" y="608" on="0"/>
        <pt x="238" y="570" on="1"/>
        <pt x="238" y="523" on="1"/>
        <pt x="228" y="504" on="0"/>
        <pt x="222" y="458" on="0"/>
        <pt x="222" y="437" on="1"/>
        <pt x="222" y="429" on="0"/>
        <pt x="223" y="416" on="0"/>
        <pt x="223" y="409" on="1"/>
        <pt x="252" y="417" on="0"/>
        <pt x="307" y="437" on="0"/>
        <pt x="335" y="445" on="1"/>
        <pt x="349" y="450" on="0"/>
        <pt x="378" y="454" on="0"/>
        <pt x="392" y="459" on="1"/>
        <pt x="403" y="462" on="0"/>
        <pt x="427" y="473" on="0"/>
        <pt x="438" y="478" on="1"/>
        <pt x="468" y="491" on="0"/>
        <pt x="531" y="511" on="0"/>
        <pt x="564" y="516" on="1"/>
        <pt x="574" y="524" on="0"/>
        <pt x="598" y="538" on="0"/>
        <pt x="610" y="538" on="1"/>
        <pt x="619" y="538" on="0"/>
        <pt x="625" y="535" on="1"/>
        <pt x="642" y="545" on="0"/>
        <pt x="688" y="561" on="0"/>
        <pt x="708" y="559" on="1"/>
        <pt x="713" y="566" on="0"/>
        <pt x="727" y="571" on="0"/>
        <pt x="735" y="571" on="1"/>
        <pt x="739" y="571" on="0"/>
        <pt x="746" y="570" on="0"/>
        <pt x="751" y="570" on="1"/>
        <pt x="761" y="577" on="0"/>
        <pt x="785" y="583" on="0"/>
        <pt x="809" y="587" on="0"/>
        <pt x="832" y="594" on="0"/>
        <pt x="841" y="602" on="1"/>
        <pt x="855" y="601" on="0"/>
        <pt x="872" y="587" on="0"/>
        <pt x="884" y="567" on="0"/>
        <pt x="892" y="545" on="0"/>
        <pt x="898" y="535" on="1"/>
        <pt x="896" y="527" on="0"/>
        <pt x="888" y="518" on="0"/>
        <pt x="878" y="510" on="0"/>
        <pt x="870" y="502" on="0"/>
        <pt x="869" y="495" on="1"/>
        <pt x="834" y="495" on="0"/>
        <pt x="769" y="475" on="0"/>
        <pt x="706" y="449" on="0"/>
        <pt x="641" y="426" on="0"/>
        <pt x="607" y="423" on="1"/>
        <pt x="602" y="418" on="0"/>
        <pt x="594" y="415" on="1"/>
        <pt x="579" y="410" on="1"/>
        <pt x="572" y="408" on="0"/>
        <pt x="560" y="401" on="0"/>
        <pt x="557" y="394" on="1"/>
        <pt x="551" y="397" on="0"/>
        <pt x="544" y="397" on="1"/>
        <pt x="527" y="397" on="0"/>
        <pt x="495" y="379" on="0"/>
        <pt x="475" y="379" on="1"/>
        <pt x="467" y="379" on="0"/>
        <pt x="464" y="380" on="1"/>
        <pt x="459" y="371" on="0"/>
        <pt x="440" y="363" on="0"/>
        <pt x="419" y="358" on="0"/>
        <pt x="400" y="350" on="0"/>
        <pt x="395" y="340" on="1"/>
        <pt x="392" y="341" on="0"/>
        <pt x="388" y="341" on="1"/>
        <pt x="382" y="341" on="1"/>
        <pt x="366" y="341" on="0"/>
        <pt x="325" y="330" on="0"/>
        <pt x="316" y="315" on="1"/>
        <pt x="308" y="317" on="0"/>
        <pt x="302" y="317" on="1"/>
        <pt x="288" y="317" on="0"/>
        <pt x="266" y="306" on="0"/>
        <pt x="255" y="299" on="1"/>
        <pt x="233" y="285" on="1"/>
        <pt x="222" y="278" on="0"/>
        <pt x="209" y="275" on="1"/>
        <pt x="183" y="238" on="0"/>
        <pt x="163" y="142" on="0"/>
        <pt x="154" y="38" on="0"/>
        <pt x="146" y="-65" on="0"/>
        <pt x="134" y="-108" on="1"/>
        <pt x="140" y="-124" on="0"/>
        <pt x="146" y="-160" on="0"/>
        <pt x="150" y="-197" on="0"/>
        <pt x="154" y="-235" on="0"/>
        <pt x="159" y="-252" on="1"/>
        <pt x="164" y="-273" on="0"/>
        <pt x="193" y="-306" on="0"/>
        <pt x="199" y="-327" on="1"/>
        <pt x="204" y="-328" on="0"/>
        <pt x="215" y="-329" on="0"/>
        <pt x="221" y="-329" on="1"/>
        <pt x="257" y="-329" on="0"/>
        <pt x="312" y="-301" on="0"/>
        <pt x="360" y="-260" on="0"/>
        <pt x="405" y="-213" on="0"/>
        <pt x="431" y="-195" on="1"/>
        <pt x="450" y="-195" on="1"/>
        <pt x="457" y="-187" on="0"/>
        <pt x="467" y="-169" on="0"/>
        <pt x="479" y="-153" on="0"/>
        <pt x="495" y="-142" on="0"/>
        <pt x="507" y="-140" on="1"/>
        <pt x="510" y="-125" on="0"/>
        <pt x="532" y="-109" on="0"/>
        <pt x="536" y="-93" on="1"/>
        <pt x="538" y="-94" on="0"/>
        <pt x="541" y="-94" on="1"/>
        <pt x="549" y="-94" on="0"/>
        <pt x="553" y="-90" on="1"/>
        <pt x="568" y="-76" on="1"/>
        <pt x="576" y="-68" on="0"/>
        <pt x="595" y="-53" on="0"/>
        <pt x="604" y="-46" on="1"/>
        <pt x="633" y="-25" on="0"/>
        <pt x="691" y="16" on="0"/>
        <pt x="715" y="43" on="1"/>
        <pt x="716" y="42" on="0"/>
        <pt x="718" y="42" on="1"/>
        <pt x="726" y="42" on="0"/>
        <pt x="732" y="52" on="0"/>
        <pt x="743" y="50" on="1"/>
        <pt x="749" y="59" on="0"/>
        <pt x="759" y="78" on="0"/>
        <pt x="762" y="89" on="1"/>
        <pt x="794" y="85" on="1"/>
        <pt x="810" y="83" on="0"/>
        <pt x="826" y="83" on="1"/>
        <pt x="831" y="83" on="0"/>
        <pt x="840" y="84" on="0"/>
        <pt x="844" y="86" on="1"/>
        <pt x="856" y="67" on="0"/>
        <pt x="858" y="24" on="0"/>
        <pt x="862" y="3" on="1"/>
        <pt x="860" y="3" on="0"/>
        <pt x="859" y="4" on="0"/>
        <pt x="857" y="4" on="1"/>
        <pt x="852" y="4" on="0"/>
        <pt x="843" y="-3" on="0"/>
        <pt x="838" y="-8" on="1"/>
        <pt x="828" y="-18" on="1"/>
        <pt x="823" y="-23" on="0"/>
        <pt x="819" y="-26" on="1"/>
        <pt x="808" y="-33" on="0"/>
        <pt x="784" y="-44" on="0"/>
        <pt x="762" y="-56" on="0"/>
        <pt x="742" y="-73" on="0"/>
        <pt x="736" y="-86" on="1"/>
        <pt x="716" y="-94" on="0"/>
        <pt x="679" y="-112" on="0"/>
        <pt x="662" y="-122" on="1"/>
        <pt x="657" y="-127" on="0"/>
        <pt x="649" y="-137" on="0"/>
        <pt x="647" y="-143" on="1"/>
        <pt x="620" y="-152" on="0"/>
        <pt x="585" y="-188" on="0"/>
        <pt x="567" y="-209" on="1"/>
        <pt x="566" y="-208" on="1"/>
        <pt x="559" y="-208" on="0"/>
        <pt x="556" y="-218" on="0"/>
        <pt x="546" y="-216" on="1"/>
        <pt x="527" y="-237" on="0"/>
        <pt x="485" y="-273" on="0"/>
        <pt x="441" y="-309" on="0"/>
        <pt x="397" y="-346" on="0"/>
        <pt x="378" y="-367" on="1"/>
        <pt x="365" y="-371" on="0"/>
        <pt x="341" y="-383" on="0"/>
        <pt x="335" y="-395" on="1"/>
        <pt x="332" y="-395" on="1"/>
        <pt x="321" y="-395" on="0"/>
        <pt x="312" y="-405" on="0"/>
        <pt x="306" y="-413" on="1"/>
        <pt x="285" y="-418" on="0"/>
        <pt x="241" y="-430" on="0"/>
        <pt x="218" y="-430" on="1"/>
        <pt x="202" y="-430" on="0"/>
        <pt x="173" y="-418" on="0"/>
        <pt x="146" y="-399" on="0"/>
        <pt x="123" y="-377" on="0"/>
        <pt x="113" y="-367" on="1"/>
        <pt x="107" y="-347" on="0"/>
        <pt x="88" y="-304" on="0"/>
        <pt x="88" y="-284" on="1"/>
        <pt x="88" y="-279" on="0"/>
        <pt x="91" y="-270" on="0"/>
        <pt x="91" y="-266" on="1"/>
        <pt x="91" y="-259" on="0"/>
        <pt x="82" y="-261" on="0"/>
        <pt x="80" y="-255" on="1"/>
        <pt x="78" y="-245" on="0"/>
        <pt x="77" y="-220" on="0"/>
        <pt x="75" y="-209" on="1"/>
        <pt x="72" y="-186" on="0"/>
        <pt x="63" y="-138" on="0"/>
        <pt x="58" y="-115" on="1"/>
        <pt x="62" y="-113" on="0"/>
        <pt x="67" y="-104" on="0"/>
        <pt x="70" y="-100" on="1"/>
        <pt x="67" y="-92" on="0"/>
        <pt x="62" y="-73" on="0"/>
        <pt x="62" y="-63" on="1"/>
        <pt x="62" y="-43" on="0"/>
        <pt x="77" y="-33" on="1"/>
        <pt x="77" y="-26" on="0"/>
        <pt x="70" y="-19" on="0"/>
        <pt x="70" y="-11" on="1"/>
        <pt x="70" y="-9" on="0"/>
        <pt x="73" y="10" on="0"/>
        <pt x="78" y="34" on="0"/>
        <pt x="82" y="56" on="0"/>
        <pt x="83" y="60" on="1"/>
        <pt x="90" y="106" on="0"/>
        <pt x="100" y="195" on="0"/>
        <pt x="109" y="240" on="1"/>
        <pt x="99" y="248" on="0"/>
        <pt x="68" y="257" on="0"/>
        <pt x="62" y="265" on="1"/>
        <pt x="57" y="272" on="0"/>
        <pt x="51" y="294" on="0"/>
        <pt x="51" y="302" on="1"/>
        <pt x="51" y="331" on="0"/>
        <pt x="97" y="366" on="0"/>
        <pt x="123" y="369" on="1"/>
        <pt x="136" y="404" on="0"/>
        <pt x="149" y="477" on="0"/>
        <pt x="153" y="514" on="1"/>
        <pt x="161" y="589" on="1"/>
        <pt x="165" y="627" on="0"/>
        <pt x="173" y="664" on="1"/>
        <pt x="167" y="664" on="1"/>
        <pt x="147" y="664" on="0"/>
        <pt x="109" y="652" on="0"/>
        <pt x="89" y="652" on="1"/>
        <pt x="87" y="652" on="1"/>
        <pt x="58" y="675" on="0"/>
        <pt x="58" y="707" on="1"/>
        <pt x="58" y="726" on="0"/>
        <pt x="66" y="745" on="1"/>
        <pt x="82" y="751" on="0"/>
        <pt x="108" y="771" on="0"/>
        <pt x="135" y="792" on="0"/>
        <pt x="163" y="808" on="0"/>
        <pt x="180" y="810" on="1"/>
        <pt x="182" y="839" on="0"/>
        <pt x="198" y="897" on="0"/>
        <pt x="198" y="926" on="1"/>
        <pt x="198" y="932" on="0"/>
        <pt x="197" y="944" on="0"/>
        <pt x="195" y="950" on="1"/>
        <pt x="202" y="959" on="0"/>
        <pt x="207" y="979" on="0"/>
        <pt x="207" y="990" on="1"/>
        <pt x="207" y="1002" on="0"/>
        <pt x="204" y="1025" on="0"/>
        <pt x="202" y="1036" on="1"/>
        <pt x="211" y="1040" on="0"/>
        <pt x="221" y="1049" on="0"/>
        <pt x="230" y="1057" on="0"/>
        <pt x="244" y="1063" on="0"/>
        <pt x="257" y="1063" on="1"/>
        <pt x="276" y="1063" on="0"/>
        <pt x="303" y="1048" on="0"/>
        <pt x="323" y="1024" on="0"/>
        <pt x="338" y="994" on="0"/>
        <pt x="345" y="979" on="1"/>
        <pt x="343" y="968" on="0"/>
        <pt x="329" y="958" on="0"/>
        <pt x="324" y="950" on="1"/>
        <pt x="326" y="934" on="0"/>
        <pt x="330" y="905" on="0"/>
        <pt x="328" y="889" on="1"/>
        <pt x="338" y="884" on="0"/>
        <pt x="347" y="884" on="1"/>
        <pt x="362" y="884" on="0"/>
        <pt x="387" y="900" on="0"/>
        <pt x="392" y="914" on="1"/>
        <pt x="394" y="914" on="1"/>
        <pt x="397" y="914" on="0"/>
        <pt x="402" y="910" on="0"/>
        <pt x="406" y="910" on="1"/>
        <pt x="410" y="910" on="1"/>
        <pt x="421" y="920" on="0"/>
        <pt x="447" y="931" on="0"/>
        <pt x="475" y="941" on="0"/>
        <pt x="502" y="952" on="0"/>
        <pt x="514" y="961" on="1"/>
        <pt x="520" y="958" on="0"/>
        <pt x="527" y="958" on="1"/>
        <pt x="537" y="958" on="0"/>
        <pt x="556" y="966" on="0"/>
        <pt x="574" y="975" on="0"/>
        <pt x="595" y="983" on="0"/>
        <pt x="607" y="983" on="1"/>
        <pt x="609" y="983" on="0"/>
        <pt x="615" y="982" on="0"/>
        <pt x="617" y="982" on="1"/>
        <pt x="624" y="982" on="0"/>
        <pt x="626" y="992" on="0"/>
        <pt x="625" y="996" on="1"/>
        <pt x="657" y="1004" on="0"/>
        <pt x="704" y="1025" on="0"/>
        <pt x="733" y="1039" on="1"/>
        <pt x="733" y="1040" on="0"/>
        <pt x="735" y="1040" on="1"/>
        <pt x="738" y="1040" on="0"/>
        <pt x="740" y="1034" on="0"/>
        <pt x="740" y="1032" on="1"/>
        <pt x="746" y="1035" on="0"/>
        <pt x="747" y="1049" on="0"/>
        <pt x="751" y="1054" on="1"/>
        <pt x="755" y="1053" on="0"/>
        <pt x="762" y="1053" on="1"/>
        <pt x="771" y="1053" on="0"/>
        <pt x="790" y="1061" on="0"/>
        <pt x="808" y="1071" on="0"/>
        <pt x="826" y="1079" on="0"/>
        <pt x="835" y="1079" on="1"/>
        <pt x="843" y="1079" on="0"/>
        <pt x="848" y="1075" on="1"/>
        <pt x="854" y="1078" on="0"/>
        <pt x="866" y="1089" on="0"/>
        <pt x="873" y="1089" on="1"/>
        <pt x="875" y="1089" on="0"/>
        <pt x="878" y="1087" on="0"/>
        <pt x="880" y="1086" on="1"/>
        <pt x="885" y="1091" on="0"/>
        <pt x="894" y="1097" on="0"/>
        <pt x="894" y="1104" on="1"/>
        <pt x="931" y="1108" on="0"/>
        <pt x="994" y="1133" on="0"/>
        <pt x="1023" y="1154" on="1"/>
        <pt x="1034" y="1152" on="0"/>
        <pt x="1055" y="1147" on="0"/>
        <pt x="1066" y="1147" on="1"/>
        <pt x="1072" y="1136" on="0"/>
        <pt x="1082" y="1114" on="0"/>
        <pt x="1099" y="1115" on="1"/>
        <pt x="1100" y="1110" on="0"/>
        <pt x="1101" y="1098" on="0"/>
      </contour>
    </TTGlyph>
    <TTGlyph name="Eacute" xMin="51" yMin="-430" xMax="1101" yMax="1501">
      <component glyphName="E" x="0" y="0" flags="0x204"/>
      <component glyphName="acute" x="462" y="315" flags="0x4"/>
    </TTGlyph>
    <TTGlyph name="Ecircumflex" xMin="51" yMin="-430" xMax="1101" yMax="1562">
      <component glyphName="E" x="0" y="0" flags="0x4"/>
      <component glyphName="circumflex" x="133" y="379" flags="0x4"/>
    </TTGlyph>
    <TTGlyph name="Edieresis" xMin="51" yMin="-430" xMax="1101" yMax="1455">
      <component glyphName="E" x="0" y="0" flags="0x4"/>
      <component glyphName="dieresis" x="297" y="450" flags="0x4"/>
    </TTGlyph>
    <TTGlyph name="Egrave" xMin="51" yMin="-430" xMax="1101" yMax="1577">
      <component glyphName="E" x="0" y="0" flags="0x4"/>
      <component glyphName="grave" x="205" y="686" flags="0x4"/>
    </TTGlyph>
    <TTGlyph name="Eth" xMin="-31" yMin="-198" xMax="1048" yMax="1066">
      <contour>
        <pt x="256" y="415" on="1"/>
        <pt x="246" y="414" on="0"/>
        <pt x="227" y="411" on="0"/>
        <pt x="218" y="406" on="1"/>
        <pt x="214" y="416" on="0"/>
        <pt x="201" y="416" on="1"/>
        <pt x="195" y="416" on="0"/>
        <pt x="182" y="415" on="0"/>
        <pt x="176" y="415" on="1"/>
        <pt x="166" y="415" on="0"/>
        <pt x="161" y="420" on="1"/>
        <pt x="157" y="419" on="0"/>
        <pt x="158" y="409" on="0"/>
        <pt x="157" y="406" on="1"/>
        <pt x="140" y="412" on="0"/>
        <pt x="125" y="412" on="1"/>
        <pt x="111" y="412" on="0"/>
        <pt x="85" y="406" on="0"/>
        <pt x="72" y="406" on="1"/>
        <pt x="64" y="406" on="0"/>
        <pt x="51" y="410" on="0"/>
        <pt x="46" y="410" on="1"/>
        <pt x="40" y="410" on="0"/>
        <pt x="34" y="405" on="0"/>
        <pt x="29" y="399" on="0"/>
        <pt x="22" y="394" on="0"/>
        <pt x="16" y="394" on="1"/>
        <pt x="11" y="394" on="0"/>
        <pt x="4" y="398" on="0"/>
        <pt x="-1" y="404" on="0"/>
        <pt x="-7" y="409" on="0"/>
        <pt x="-11" y="410" on="1"/>
        <pt x="-11" y="429" on="0"/>
        <pt x="-31" y="459" on="0"/>
        <pt x="-31" y="478" on="1"/>
        <pt x="-31" y="481" on="0"/>
        <pt x="-30" y="488" on="0"/>
        <pt x="-30" y="492" on="1"/>
        <pt x="-16" y="511" on="0"/>
        <pt x="37" y="528" on="0"/>
        <pt x="59" y="528" on="1"/>
        <pt x="70" y="528" on="0"/>
        <pt x="81" y="520" on="0"/>
        <pt x="89" y="513" on="1"/>
        <pt x="132" y="518" on="0"/>
        <pt x="218" y="524" on="0"/>
        <pt x="262" y="526" on="1"/>
        <pt x="261" y="532" on="0"/>
        <pt x="260" y="544" on="0"/>
        <pt x="258" y="549" on="1"/>
        <pt x="261" y="566" on="0"/>
        <pt x="263" y="601" on="0"/>
        <pt x="263" y="618" on="1"/>
        <pt x="263" y="678" on="0"/>
        <pt x="249" y="794" on="0"/>
        <pt x="247" y="853" on="1"/>
        <pt x="244" y="853" on="1"/>
        <pt x="237" y="853" on="0"/>
        <pt x="228" y="847" on="0"/>
        <pt x="220" y="840" on="0"/>
        <pt x="211" y="835" on="0"/>
        <pt x="204" y="836" on="1"/>
        <pt x="192" y="822" on="0"/>
        <pt x="161" y="802" on="0"/>
        <pt x="127" y="786" on="0"/>
        <pt x="91" y="773" on="0"/>
        <pt x="75" y="767" on="1"/>
        <pt x="60" y="772" on="0"/>
        <pt x="41" y="795" on="0"/>
        <pt x="32" y="807" on="1"/>
        <pt x="31" y="811" on="0"/>
        <pt x="31" y="815" on="1"/>
        <pt x="31" y="823" on="1"/>
        <pt x="31" y="851" on="0"/>
        <pt x="56" y="880" on="0"/>
        <pt x="72" y="900" on="1"/>
        <pt x="77" y="900" on="1"/>
        <pt x="82" y="900" on="0"/>
        <pt x="88" y="896" on="0"/>
        <pt x="93" y="896" on="1"/>
        <pt x="96" y="896" on="1"/>
        <pt x="125" y="920" on="0"/>
        <pt x="190" y="949" on="0"/>
        <pt x="225" y="957" on="1"/>
        <pt x="241" y="972" on="0"/>
        <pt x="271" y="988" on="0"/>
        <pt x="293" y="988" on="1"/>
        <pt x="298" y="988" on="0"/>
        <pt x="310" y="987" on="0"/>
        <pt x="315" y="986" on="1"/>
        <pt x="357" y="1005" on="0"/>
        <pt x="430" y="1032" on="0"/>
        <pt x="477" y="1032" on="1"/>
        <pt x="483" y="1032" on="0"/>
        <pt x="488" y="1038" on="0"/>
        <pt x="492" y="1045" on="0"/>
        <pt x="497" y="1051" on="0"/>
        <pt x="502" y="1051" on="1"/>
        <pt x="502" y="1049" on="0"/>
        <pt x="504" y="1041" on="0"/>
        <pt x="508" y="1041" on="1"/>
        <pt x="512" y="1041" on="0"/>
        <pt x="518" y="1046" on="0"/>
        <pt x="523" y="1046" on="1"/>
        <pt x="528" y="1046" on="0"/>
        <pt x="530" y="1039" on="1"/>
        <pt x="541" y="1046" on="0"/>
        <pt x="562" y="1058" on="0"/>
        <pt x="573" y="1061" on="1"/>
        <pt x="589" y="1058" on="0"/>
        <pt x="619" y="1054" on="0"/>
        <pt x="636" y="1054" on="1"/>
        <pt x="647" y="1054" on="0"/>
        <pt x="672" y="1057" on="0"/>
        <pt x="681" y="1065" on="1"/>
        <pt x="685" y="1066" on="0"/>
        <pt x="685" y="1061" on="1"/>
        <pt x="694" y="1053" on="0"/>
        <pt x="714" y="1048" on="0"/>
        <pt x="736" y="1047" on="0"/>
        <pt x="757" y="1045" on="0"/>
        <pt x="767" y="1039" on="1"/>
        <pt x="774" y="1037" on="0"/>
        <pt x="785" y="1028" on="0"/>
        <pt x="793" y="1025" on="1"/>
        <pt x="799" y="1023" on="0"/>
        <pt x="819" y="1021" on="0"/>
        <pt x="824" y="1018" on="1"/>
        <pt x="829" y="1016" on="0"/>
        <pt x="831" y="1007" on="0"/>
        <pt x="836" y="1004" on="1"/>
        <pt x="845" y="997" on="0"/>
        <pt x="875" y="994" on="0"/>
        <pt x="886" y="986" on="1"/>
        <pt x="890" y="964" on="0"/>
        <pt x="926" y="950" on="0"/>
        <pt x="943" y="943" on="1"/>
        <pt x="948" y="937" on="0"/>
        <pt x="946" y="929" on="1"/>
        <pt x="959" y="920" on="0"/>
        <pt x="978" y="898" on="0"/>
        <pt x="994" y="873" on="0"/>
        <pt x="1011" y="849" on="0"/>
        <pt x="1022" y="839" on="1"/>
        <pt x="1021" y="830" on="0"/>
        <pt x="1028" y="820" on="0"/>
        <pt x="1026" y="810" on="1"/>
        <pt x="1032" y="804" on="0"/>
        <pt x="1043" y="789" on="0"/>
        <pt x="1048" y="781" on="1"/>
        <pt x="1041" y="773" on="0"/>
        <pt x="1041" y="761" on="1"/>
        <pt x="1041" y="751" on="0"/>
        <pt x="1048" y="731" on="0"/>
        <pt x="1048" y="721" on="1"/>
        <pt x="1048" y="698" on="1"/>
        <pt x="1048" y="641" on="0"/>
        <pt x="1017" y="545" on="0"/>
        <pt x="971" y="457" on="0"/>
        <pt x="917" y="371" on="0"/>
        <pt x="893" y="323" on="1"/>
        <pt x="887" y="323" on="0"/>
        <pt x="882" y="317" on="0"/>
        <pt x="878" y="308" on="0"/>
        <pt x="873" y="301" on="0"/>
        <pt x="867" y="301" on="1"/>
        <pt x="858" y="279" on="0"/>
        <pt x="830" y="240" on="0"/>
        <pt x="800" y="203" on="0"/>
        <pt x="770" y="165" on="0"/>
        <pt x="760" y="143" on="1"/>
        <pt x="750" y="143" on="1"/>
        <pt x="696" y="65" on="0"/>
        <pt x="561" y="-59" on="0"/>
        <pt x="480" y="-108" on="1"/>
        <pt x="478" y="-114" on="0"/>
        <pt x="471" y="-122" on="0"/>
        <pt x="473" y="-129" on="1"/>
        <pt x="461" y="-135" on="0"/>
        <pt x="446" y="-154" on="0"/>
        <pt x="432" y="-174" on="0"/>
        <pt x="417" y="-193" on="0"/>
        <pt x="406" y="-198" on="1"/>
        <pt x="391" y="-195" on="0"/>
        <pt x="363" y="-191" on="0"/>
        <pt x="349" y="-190" on="1"/>
        <pt x="344" y="-190" on="0"/>
        <pt x="332" y="-191" on="0"/>
        <pt x="327" y="-190" on="1"/>
        <pt x="316" y="-188" on="0"/>
        <pt x="301" y="-175" on="0"/>
        <pt x="287" y="-175" on="1"/>
        <pt x="280" y="-175" on="0"/>
        <pt x="275" y="-176" on="1"/>
        <pt x="267" y="-162" on="0"/>
        <pt x="247" y="-133" on="0"/>
        <pt x="247" y="-116" on="1"/>
        <pt x="247" y="-103" on="0"/>
        <pt x="254" y="-81" on="0"/>
        <pt x="254" y="-69" on="1"/>
        <pt x="254" y="-45" on="0"/>
        <pt x="237" y="1" on="0"/>
        <pt x="237" y="25" on="1"/>
        <pt x="237" y="33" on="0"/>
        <pt x="241" y="48" on="0"/>
        <pt x="241" y="56" on="1"/>
        <pt x="241" y="66" on="0"/>
        <pt x="232" y="72" on="1"/>
        <pt x="233" y="77" on="0"/>
        <pt x="240" y="87" on="0"/>
        <pt x="240" y="93" on="1"/>
        <pt x="242" y="101" on="0"/>
        <pt x="240" y="120" on="0"/>
        <pt x="240" y="128" on="1"/>
        <pt x="240" y="149" on="0"/>
        <pt x="244" y="191" on="0"/>
        <pt x="251" y="211" on="1"/>
        <pt x="250" y="217" on="0"/>
        <pt x="248" y="222" on="1"/>
        <pt x="244" y="232" on="1"/>
        <pt x="250" y="251" on="0"/>
        <pt x="254" y="296" on="0"/>
        <pt x="254" y="320" on="1"/>
        <pt x="254" y="368" on="1"/>
        <pt x="254" y="393" on="0"/>
      </contour>
      <contour>
        <pt x="667" y="481" on="1"/>
        <pt x="657" y="480" on="0"/>
        <pt x="642" y="472" on="0"/>
        <pt x="634" y="470" on="1"/>
        <pt x="635" y="469" on="0"/>
        <pt x="635" y="467" on="1"/>
        <pt x="635" y="462" on="0"/>
        <pt x="629" y="457" on="0"/>
        <pt x="631" y="449" on="1"/>
        <pt x="616" y="440" on="0"/>
        <pt x="584" y="432" on="0"/>
        <pt x="551" y="426" on="0"/>
        <pt x="519" y="418" on="0"/>
        <pt x="505" y="410" on="1"/>
        <pt x="505" y="420" on="1"/>
        <pt x="500" y="418" on="0"/>
        <pt x="488" y="414" on="0"/>
        <pt x="482" y="414" on="1"/>
        <pt x="472" y="414" on="0"/>
        <pt x="454" y="420" on="0"/>
        <pt x="443" y="420" on="1"/>
        <pt x="436" y="420" on="0"/>
        <pt x="430" y="417" on="1"/>
        <pt x="420" y="418" on="0"/>
        <pt x="409" y="426" on="0"/>
        <pt x="401" y="431" on="1"/>
        <pt x="396" y="422" on="0"/>
        <pt x="377" y="417" on="0"/>
        <pt x="369" y="417" on="1"/>
        <pt x="365" y="417" on="1"/>
        <pt x="362" y="387" on="1"/>
        <pt x="360" y="374" on="0"/>
        <pt x="350" y="350" on="0"/>
        <pt x="350" y="336" on="1"/>
        <pt x="350" y="327" on="0"/>
        <pt x="352" y="308" on="0"/>
        <pt x="352" y="298" on="1"/>
        <pt x="352" y="288" on="0"/>
        <pt x="351" y="283" on="1"/>
        <pt x="346" y="248" on="0"/>
        <pt x="341" y="176" on="0"/>
        <pt x="341" y="141" on="1"/>
        <pt x="341" y="108" on="0"/>
        <pt x="345" y="43" on="0"/>
        <pt x="348" y="10" on="1"/>
        <pt x="345" y="2" on="0"/>
        <pt x="345" y="-6" on="1"/>
        <pt x="345" y="-20" on="0"/>
        <pt x="358" y="-49" on="0"/>
        <pt x="373" y="-54" on="1"/>
        <pt x="405" y="-42" on="0"/>
        <pt x="459" y="-3" on="0"/>
        <pt x="487" y="17" on="1"/>
        <pt x="494" y="22" on="0"/>
        <pt x="522" y="39" on="0"/>
        <pt x="527" y="43" on="1"/>
        <pt x="532" y="47" on="0"/>
        <pt x="540" y="56" on="0"/>
        <pt x="545" y="61" on="1"/>
        <pt x="589" y="108" on="1"/>
        <pt x="627" y="147" on="0"/>
        <pt x="701" y="227" on="0"/>
        <pt x="733" y="272" on="1"/>
        <pt x="743" y="286" on="0"/>
        <pt x="761" y="313" on="0"/>
        <pt x="769" y="328" on="1"/>
        <pt x="772" y="333" on="0"/>
        <pt x="777" y="346" on="0"/>
        <pt x="781" y="351" on="1"/>
        <pt x="784" y="355" on="0"/>
        <pt x="793" y="363" on="0"/>
        <pt x="797" y="367" on="1"/>
        <pt x="813" y="385" on="0"/>
        <pt x="827" y="406" on="1"/>
        <pt x="850" y="438" on="0"/>
        <pt x="888" y="503" on="0"/>
        <pt x="910" y="535" on="1"/>
        <pt x="912" y="555" on="0"/>
        <pt x="924" y="590" on="0"/>
        <pt x="936" y="623" on="0"/>
        <pt x="945" y="659" on="0"/>
        <pt x="943" y="681" on="1"/>
        <pt x="947" y="688" on="0"/>
        <pt x="954" y="694" on="0"/>
        <pt x="954" y="703" on="1"/>
        <pt x="954" y="720" on="1"/>
        <pt x="954" y="749" on="0"/>
        <pt x="933" y="804" on="0"/>
        <pt x="925" y="831" on="1"/>
        <pt x="918" y="831" on="0"/>
        <pt x="911" y="837" on="0"/>
        <pt x="905" y="845" on="0"/>
        <pt x="900" y="854" on="0"/>
        <pt x="896" y="857" on="1"/>
        <pt x="876" y="861" on="0"/>
        <pt x="871" y="886" on="1"/>
        <pt x="851" y="894" on="0"/>
        <pt x="810" y="914" on="0"/>
        <pt x="796" y="932" on="1"/>
        <pt x="760" y="943" on="0"/>
        <pt x="686" y="966" on="0"/>
        <pt x="648" y="966" on="1"/>
        <pt x="642" y="966" on="0"/>
        <pt x="631" y="965" on="0"/>
        <pt x="626" y="965" on="1"/>
        <pt x="617" y="965" on="0"/>
        <pt x="600" y="959" on="0"/>
        <pt x="592" y="959" on="1"/>
        <pt x="583" y="959" on="0"/>
        <pt x="573" y="965" on="1"/>
        <pt x="553" y="954" on="0"/>
        <pt x="506" y="942" on="0"/>
        <pt x="458" y="933" on="0"/>
        <pt x="412" y="920" on="0"/>
        <pt x="394" y="907" on="1"/>
        <pt x="389" y="909" on="0"/>
        <pt x="378" y="911" on="0"/>
        <pt x="373" y="911" on="1"/>
        <pt x="363" y="911" on="0"/>
        <pt x="358" y="907" on="1"/>
        <pt x="355" y="905" on="0"/>
        <pt x="354" y="899" on="0"/>
        <pt x="353" y="892" on="0"/>
        <pt x="350" y="888" on="0"/>
        <pt x="344" y="889" on="1"/>
        <pt x="344" y="884" on="0"/>
        <pt x="343" y="876" on="0"/>
        <pt x="343" y="871" on="1"/>
        <pt x="343" y="845" on="0"/>
        <pt x="353" y="794" on="0"/>
        <pt x="353" y="768" on="1"/>
        <pt x="353" y="759" on="0"/>
        <pt x="351" y="740" on="0"/>
        <pt x="348" y="731" on="1"/>
        <pt x="353" y="719" on="0"/>
        <pt x="355" y="691" on="0"/>
        <pt x="355" y="663" on="0"/>
        <pt x="356" y="636" on="0"/>
        <pt x="362" y="624" on="1"/>
        <pt x="359" y="609" on="0"/>
        <pt x="357" y="579" on="0"/>
        <pt x="357" y="564" on="1"/>
        <pt x="357" y="547" on="1"/>
        <pt x="357" y="539" on="0"/>
        <pt x="358" y="531" on="1"/>
        <pt x="370" y="531" on="1"/>
        <pt x="393" y="531" on="0"/>
        <pt x="439" y="536" on="0"/>
        <pt x="462" y="539" on="1"/>
        <pt x="465" y="539" on="0"/>
        <pt x="467" y="544" on="0"/>
        <pt x="468" y="549" on="0"/>
        <pt x="471" y="553" on="0"/>
        <pt x="475" y="553" on="1"/>
        <pt x="485" y="553" on="0"/>
        <pt x="493" y="541" on="0"/>
        <pt x="502" y="539" on="1"/>
        <pt x="509" y="543" on="0"/>
        <pt x="528" y="546" on="0"/>
        <pt x="546" y="550" on="0"/>
        <pt x="563" y="555" on="0"/>
        <pt x="569" y="560" on="1"/>
        <pt x="577" y="561" on="0"/>
        <pt x="579" y="552" on="0"/>
        <pt x="584" y="550" on="1"/>
        <pt x="589" y="551" on="0"/>
        <pt x="601" y="554" on="0"/>
        <pt x="606" y="554" on="1"/>
        <pt x="612" y="554" on="1"/>
        <pt x="616" y="554" on="0"/>
        <pt x="620" y="553" on="1"/>
        <pt x="629" y="533" on="0"/>
        <pt x="658" y="501" on="0"/>
      </contour>
    </TTGlyph>
    <TTGlyph name="Euro" xMin="-82" yMin="-63" xMax="1473" yMax="800">
      <contour>
        <pt x="1473" y="131" on="1"/>
        <pt x="1473" y="116" on="0"/>
        <pt x="1464" y="105" on="0"/>
        <pt x="1452" y="101" on="0"/>
        <pt x="1441" y="96" on="0"/>
        <pt x="1440" y="89" on="1"/>
        <pt x="1405" y="81" on="0"/>
        <pt x="1336" y="60" on="0"/>
        <pt x="1268" y="38" on="0"/>
        <pt x="1199" y="19" on="0"/>
        <pt x="1163" y="14" on="1"/>
        <pt x="1153" y="12" on="0"/>
        <pt x="1150" y="4" on="0"/>
        <pt x="1146" y="-4" on="1"/>
        <pt x="1140" y="-1" on="0"/>
        <pt x="1126" y="1" on="0"/>
        <pt x="1120" y="3" on="1"/>
        <pt x="1062" y="-11" on="0"/>
        <pt x="948" y="-40" on="0"/>
        <pt x="888" y="-48" on="1"/>
        <pt x="867" y="-51" on="0"/>
        <pt x="826" y="-55" on="0"/>
        <pt x="806" y="-56" on="1"/>
        <pt x="797" y="-57" on="0"/>
        <pt x="778" y="-56" on="0"/>
        <pt x="769" y="-57" on="1"/>
        <pt x="759" y="-58" on="0"/>
        <pt x="741" y="-63" on="0"/>
        <pt x="731" y="-63" on="1"/>
        <pt x="723" y="-63" on="0"/>
        <pt x="708" y="-61" on="0"/>
        <pt x="700" y="-57" on="1"/>
        <pt x="677" y="-61" on="0"/>
        <pt x="646" y="-61" on="1"/>
        <pt x="586" y="-61" on="0"/>
        <pt x="469" y="-35" on="0"/>
        <pt x="412" y="-17" on="1"/>
        <pt x="400" y="-14" on="0"/>
        <pt x="371" y="-5" on="0"/>
        <pt x="360" y="0" on="1"/>
        <pt x="352" y="4" on="0"/>
        <pt x="335" y="19" on="0"/>
        <pt x="327" y="25" on="1"/>
        <pt x="289" y="51" on="0"/>
        <pt x="231" y="110" on="0"/>
        <pt x="220" y="158" on="1"/>
        <pt x="203" y="156" on="0"/>
        <pt x="163" y="153" on="0"/>
        <pt x="122" y="146" on="0"/>
        <pt x="85" y="135" on="0"/>
        <pt x="70" y="125" on="1"/>
        <pt x="46" y="125" on="0"/>
        <pt x="-1" y="120" on="0"/>
        <pt x="-24" y="115" on="1"/>
        <pt x="-45" y="124" on="0"/>
        <pt x="-82" y="159" on="0"/>
        <pt x="-82" y="184" on="1"/>
        <pt x="-82" y="193" on="0"/>
        <pt x="-77" y="203" on="0"/>
        <pt x="-74" y="207" on="1"/>
        <pt x="-69" y="215" on="1"/>
        <pt x="-67" y="219" on="0"/>
        <pt x="-67" y="225" on="1"/>
        <pt x="-53" y="220" on="0"/>
        <pt x="-27" y="221" on="0"/>
        <pt x="-13" y="221" on="1"/>
        <pt x="-6" y="221" on="0"/>
        <pt x="6" y="220" on="0"/>
        <pt x="12" y="218" on="1"/>
        <pt x="28" y="226" on="0"/>
        <pt x="65" y="232" on="0"/>
        <pt x="103" y="237" on="0"/>
        <pt x="138" y="246" on="0"/>
        <pt x="152" y="258" on="1"/>
        <pt x="158" y="251" on="0"/>
        <pt x="171" y="251" on="1"/>
        <pt x="181" y="251" on="0"/>
        <pt x="200" y="256" on="0"/>
        <pt x="209" y="258" on="1"/>
        <pt x="211" y="264" on="0"/>
        <pt x="219" y="277" on="0"/>
        <pt x="219" y="285" on="1"/>
        <pt x="219" y="289" on="0"/>
        <pt x="216" y="294" on="1"/>
        <pt x="205" y="294" on="0"/>
        <pt x="181" y="295" on="0"/>
        <pt x="170" y="295" on="1"/>
        <pt x="155" y="295" on="1"/>
        <pt x="146" y="295" on="0"/>
        <pt x="128" y="292" on="0"/>
        <pt x="113" y="286" on="0"/>
        <pt x="109" y="280" on="1"/>
        <pt x="88" y="283" on="0"/>
        <pt x="47" y="289" on="0"/>
        <pt x="27" y="294" on="1"/>
        <pt x="24" y="308" on="0"/>
        <pt x="12" y="333" on="0"/>
        <pt x="12" y="347" on="1"/>
        <pt x="14" y="348" on="0"/>
        <pt x="15" y="352" on="0"/>
        <pt x="15" y="354" on="1"/>
        <pt x="37" y="364" on="0"/>
        <pt x="87" y="373" on="0"/>
        <pt x="110" y="373" on="1"/>
        <pt x="138" y="373" on="0"/>
        <pt x="163" y="366" on="1"/>
        <pt x="201" y="385" on="0"/>
        <pt x="246" y="385" on="1"/>
        <pt x="251" y="385" on="0"/>
        <pt x="261" y="384" on="0"/>
        <pt x="266" y="383" on="1"/>
        <pt x="294" y="397" on="0"/>
        <pt x="333" y="441" on="0"/>
        <pt x="349" y="466" on="1"/>
        <pt x="371" y="476" on="0"/>
        <pt x="410" y="505" on="0"/>
        <pt x="448" y="533" on="0"/>
        <pt x="488" y="558" on="0"/>
        <pt x="511" y="566" on="1"/>
        <pt x="541" y="590" on="0"/>
        <pt x="608" y="627" on="0"/>
        <pt x="679" y="658" on="0"/>
        <pt x="751" y="686" on="0"/>
        <pt x="786" y="702" on="1"/>
        <pt x="808" y="702" on="1"/>
        <pt x="827" y="717" on="0"/>
        <pt x="879" y="731" on="0"/>
        <pt x="933" y="743" on="0"/>
        <pt x="983" y="758" on="0"/>
        <pt x="1001" y="774" on="1"/>
        <pt x="1022" y="776" on="0"/>
        <pt x="1068" y="785" on="0"/>
        <pt x="1084" y="800" on="1"/>
        <pt x="1095" y="797" on="0"/>
        <pt x="1106" y="785" on="0"/>
        <pt x="1120" y="788" on="1"/>
        <pt x="1124" y="784" on="0"/>
        <pt x="1132" y="762" on="0"/>
        <pt x="1139" y="736" on="0"/>
        <pt x="1144" y="712" on="0"/>
        <pt x="1144" y="707" on="1"/>
        <pt x="1144" y="687" on="0"/>
        <pt x="1121" y="664" on="0"/>
        <pt x="1106" y="656" on="1"/>
        <pt x="1098" y="661" on="0"/>
        <pt x="1079" y="664" on="0"/>
        <pt x="1070" y="664" on="1"/>
        <pt x="1045" y="664" on="0"/>
        <pt x="998" y="650" on="0"/>
        <pt x="973" y="652" on="1"/>
        <pt x="940" y="635" on="0"/>
        <pt x="872" y="611" on="0"/>
        <pt x="834" y="613" on="1"/>
        <pt x="822" y="605" on="0"/>
        <pt x="809" y="601" on="1"/>
        <pt x="783" y="593" on="1"/>
        <pt x="770" y="589" on="0"/>
        <pt x="745" y="578" on="0"/>
        <pt x="736" y="566" on="1"/>
        <pt x="735" y="566" on="0"/>
        <pt x="733" y="565" on="0"/>
        <pt x="732" y="565" on="1"/>
        <pt x="727" y="565" on="0"/>
        <pt x="722" y="574" on="0"/>
        <pt x="717" y="573" on="1"/>
        <pt x="715" y="573" on="1"/>
        <pt x="691" y="558" on="0"/>
        <pt x="647" y="535" on="0"/>
        <pt x="618" y="530" on="1"/>
        <pt x="588" y="503" on="0"/>
        <pt x="513" y="464" on="0"/>
        <pt x="478" y="444" on="1"/>
        <pt x="477" y="438" on="0"/>
        <pt x="468" y="431" on="0"/>
        <pt x="459" y="425" on="0"/>
        <pt x="452" y="418" on="0"/>
        <pt x="452" y="413" on="1"/>
        <pt x="452" y="408" on="0"/>
        <pt x="454" y="404" on="1"/>
        <pt x="461" y="404" on="1"/>
        <pt x="483" y="404" on="0"/>
        <pt x="524" y="419" on="0"/>
        <pt x="547" y="419" on="1"/>
        <pt x="554" y="419" on="0"/>
        <pt x="566" y="412" on="0"/>
        <pt x="574" y="412" on="1"/>
        <pt x="587" y="412" on="0"/>
        <pt x="610" y="423" on="0"/>
        <pt x="622" y="423" on="1"/>
        <pt x="628" y="423" on="0"/>
        <pt x="634" y="416" on="0"/>
        <pt x="640" y="416" on="1"/>
        <pt x="654" y="416" on="0"/>
        <pt x="684" y="427" on="0"/>
        <pt x="700" y="427" on="1"/>
        <pt x="714" y="427" on="0"/>
        <pt x="722" y="419" on="1"/>
        <pt x="729" y="422" on="0"/>
        <pt x="746" y="427" on="0"/>
        <pt x="751" y="433" on="1"/>
        <pt x="757" y="434" on="0"/>
        <pt x="757" y="423" on="0"/>
        <pt x="762" y="423" on="1"/>
        <pt x="766" y="423" on="0"/>
        <pt x="793" y="435" on="0"/>
        <pt x="798" y="437" on="1"/>
        <pt x="809" y="436" on="0"/>
        <pt x="832" y="435" on="0"/>
        <pt x="844" y="435" on="1"/>
        <pt x="906" y="435" on="0"/>
        <pt x="1028" y="450" on="0"/>
        <pt x="1090" y="450" on="1"/>
        <pt x="1152" y="450" on="0"/>
        <pt x="1210" y="437" on="1"/>
        <pt x="1218" y="430" on="0"/>
        <pt x="1226" y="412" on="0"/>
        <pt x="1228" y="401" on="1"/>
        <pt x="1223" y="390" on="0"/>
        <pt x="1204" y="379" on="0"/>
        <pt x="1196" y="373" on="1"/>
        <pt x="1184" y="378" on="0"/>
        <pt x="1158" y="380" on="0"/>
        <pt x="1146" y="380" on="1"/>
        <pt x="1120" y="380" on="0"/>
        <pt x="1071" y="374" on="0"/>
        <pt x="1046" y="374" on="1"/>
        <pt x="1038" y="374" on="0"/>
        <pt x="1024" y="376" on="0"/>
        <pt x="1016" y="376" on="1"/>
        <pt x="1004" y="376" on="0"/>
        <pt x="992" y="375" on="1"/>
        <pt x="968" y="373" on="1"/>
        <pt x="943" y="371" on="0"/>
        <pt x="893" y="368" on="0"/>
        <pt x="867" y="366" on="1"/>
        <pt x="857" y="364" on="0"/>
        <pt x="820" y="358" on="0"/>
        <pt x="812" y="358" on="1"/>
        <pt x="807" y="358" on="0"/>
        <pt x="799" y="361" on="0"/>
        <pt x="794" y="361" on="1"/>
        <pt x="792" y="361" on="0"/>
        <pt x="785" y="353" on="0"/>
        <pt x="783" y="351" on="1"/>
        <pt x="782" y="350" on="0"/>
        <pt x="778" y="350" on="1"/>
        <pt x="773" y="350" on="1"/>
        <pt x="764" y="350" on="0"/>
        <pt x="746" y="352" on="0"/>
        <pt x="736" y="352" on="1"/>
        <pt x="717" y="352" on="0"/>
        <pt x="705" y="344" on="1"/>
        <pt x="618" y="344" on="1"/>
        <pt x="604" y="339" on="0"/>
        <pt x="571" y="336" on="0"/>
        <pt x="538" y="335" on="0"/>
        <pt x="508" y="330" on="0"/>
        <pt x="497" y="323" on="1"/>
        <pt x="482" y="323" on="1"/>
        <pt x="459" y="323" on="0"/>
        <pt x="436" y="319" on="1"/>
        <pt x="390" y="311" on="1"/>
        <pt x="371" y="308" on="1"/>
        <pt x="366" y="306" on="0"/>
        <pt x="361" y="292" on="0"/>
        <pt x="353" y="294" on="1"/>
        <pt x="359" y="283" on="0"/>
        <pt x="373" y="283" on="1"/>
        <pt x="384" y="283" on="0"/>
        <pt x="403" y="289" on="0"/>
        <pt x="414" y="289" on="1"/>
        <pt x="424" y="289" on="0"/>
        <pt x="428" y="287" on="1"/>
        <pt x="439" y="292" on="0"/>
        <pt x="464" y="295" on="0"/>
        <pt x="476" y="295" on="1"/>
        <pt x="493" y="295" on="0"/>
        <pt x="524" y="293" on="0"/>
        <pt x="540" y="293" on="1"/>
        <pt x="563" y="293" on="0"/>
        <pt x="583" y="297" on="1"/>
        <pt x="589" y="294" on="0"/>
        <pt x="601" y="289" on="0"/>
        <pt x="607" y="287" on="1"/>
        <pt x="613" y="289" on="0"/>
        <pt x="626" y="295" on="0"/>
        <pt x="629" y="301" on="1"/>
        <pt x="638" y="301" on="0"/>
        <pt x="655" y="300" on="0"/>
        <pt x="665" y="300" on="1"/>
        <pt x="703" y="300" on="0"/>
        <pt x="779" y="303" on="0"/>
        <pt x="817" y="303" on="1"/>
        <pt x="869" y="303" on="0"/>
        <pt x="970" y="294" on="0"/>
        <pt x="1020" y="280" on="1"/>
        <pt x="1018" y="261" on="0"/>
        <pt x="1002" y="230" on="0"/>
        <pt x="985" y="222" on="1"/>
        <pt x="977" y="218" on="1"/>
        <pt x="967" y="218" on="0"/>
        <pt x="962" y="229" on="0"/>
        <pt x="951" y="229" on="1"/>
        <pt x="934" y="229" on="0"/>
        <pt x="901" y="227" on="0"/>
        <pt x="884" y="226" on="1"/>
        <pt x="843" y="225" on="0"/>
        <pt x="764" y="223" on="0"/>
        <pt x="726" y="215" on="1"/>
        <pt x="718" y="216" on="0"/>
        <pt x="697" y="217" on="0"/>
        <pt x="690" y="222" on="1"/>
        <pt x="658" y="213" on="0"/>
        <pt x="627" y="213" on="1"/>
        <pt x="565" y="213" on="1"/>
        <pt x="542" y="213" on="0"/>
        <pt x="502" y="206" on="0"/>
        <pt x="482" y="194" on="1"/>
        <pt x="465" y="197" on="0"/>
        <pt x="447" y="197" on="1"/>
        <pt x="419" y="197" on="0"/>
        <pt x="365" y="183" on="0"/>
        <pt x="339" y="172" on="1"/>
        <pt x="349" y="140" on="0"/>
        <pt x="391" y="101" on="0"/>
        <pt x="414" y="79" on="1"/>
        <pt x="435" y="79" on="1"/>
        <pt x="451" y="64" on="0"/>
        <pt x="494" y="47" on="0"/>
        <pt x="542" y="38" on="0"/>
        <pt x="590" y="36" on="0"/>
        <pt x="611" y="36" on="1"/>
        <pt x="621" y="31" on="0"/>
        <pt x="643" y="28" on="0"/>
        <pt x="654" y="28" on="1"/>
        <pt x="683" y="28" on="0"/>
        <pt x="715" y="36" on="1"/>
        <pt x="720" y="36" on="1"/>
        <pt x="726" y="36" on="0"/>
        <pt x="731" y="27" on="0"/>
        <pt x="736" y="25" on="1"/>
        <pt x="742" y="28" on="0"/>
        <pt x="756" y="30" on="0"/>
        <pt x="762" y="30" on="1"/>
        <pt x="773" y="30" on="0"/>
        <pt x="793" y="28" on="0"/>
        <pt x="803" y="28" on="1"/>
        <pt x="816" y="28" on="0"/>
        <pt x="839" y="36" on="0"/>
        <pt x="851" y="36" on="1"/>
        <pt x="884" y="36" on="0"/>
        <pt x="948" y="52" on="0"/>
        <pt x="980" y="57" on="1"/>
        <pt x="998" y="61" on="0"/>
        <pt x="1031" y="75" on="0"/>
        <pt x="1049" y="79" on="1"/>
        <pt x="1056" y="80" on="0"/>
        <pt x="1073" y="81" on="0"/>
        <pt x="1088" y="82" on="0"/>
        <pt x="1102" y="88" on="0"/>
        <pt x="1106" y="96" on="1"/>
        <pt x="1112" y="97" on="0"/>
        <pt x="1112" y="85" on="0"/>
        <pt x="1116" y="85" on="1"/>
        <pt x="1118" y="85" on="0"/>
        <pt x="1120" y="86" on="1"/>
        <pt x="1129" y="88" on="0"/>
        <pt x="1146" y="96" on="0"/>
        <pt x="1154" y="98" on="1"/>
        <pt x="1178" y="107" on="0"/>
        <pt x="1231" y="122" on="0"/>
        <pt x="1256" y="122" on="1"/>
        <pt x="1264" y="122" on="1"/>
        <pt x="1286" y="129" on="0"/>
        <pt x="1327" y="149" on="0"/>
        <pt x="1369" y="167" on="0"/>
        <pt x="1413" y="183" on="0"/>
        <pt x="1436" y="186" on="1"/>
        <pt x="1441" y="179" on="0"/>
        <pt x="1454" y="168" on="0"/>
        <pt x="1465" y="155" on="0"/>
        <pt x="1473" y="141" on="0"/>
      </contour>
    </TTGlyph>
    <TTGlyph name="F" xMin="10" yMin="-200" xMax="1092" yMax="1063">
      <contour>
        <pt x="1092" y="587" on="1"/>
        <pt x="1092" y="571" on="0"/>
        <pt x="1081" y="537" on="0"/>
        <pt x="1073" y="523" on="1"/>
        <pt x="1060" y="521" on="0"/>
        <pt x="1039" y="507" on="0"/>
        <pt x="1033" y="505" on="1"/>
        <pt x="1020" y="503" on="0"/>
        <pt x="985" y="504" on="0"/>
        <pt x="971" y="503" on="1"/>
        <pt x="944" y="501" on="0"/>
        <pt x="891" y="493" on="0"/>
        <pt x="865" y="487" on="1"/>
        <pt x="863" y="487" on="0"/>
        <pt x="859" y="486" on="0"/>
        <pt x="859" y="484" on="1"/>
        <pt x="859" y="482" on="0"/>
        <pt x="861" y="478" on="0"/>
        <pt x="861" y="476" on="1"/>
        <pt x="861" y="473" on="0"/>
        <pt x="855" y="473" on="1"/>
        <pt x="844" y="473" on="0"/>
        <pt x="840" y="480" on="1"/>
        <pt x="808" y="472" on="0"/>
        <pt x="744" y="455" on="0"/>
        <pt x="712" y="447" on="1"/>
        <pt x="696" y="444" on="0"/>
        <pt x="665" y="438" on="0"/>
        <pt x="649" y="433" on="1"/>
        <pt x="641" y="431" on="0"/>
        <pt x="633" y="426" on="1"/>
        <pt x="617" y="416" on="1"/>
        <pt x="612" y="417" on="0"/>
        <pt x="604" y="418" on="0"/>
        <pt x="600" y="418" on="1"/>
        <pt x="583" y="418" on="0"/>
        <pt x="545" y="405" on="0"/>
        <pt x="531" y="394" on="1"/>
        <pt x="524" y="394" on="1"/>
        <pt x="514" y="394" on="0"/>
        <pt x="510" y="397" on="1"/>
        <pt x="501" y="398" on="0"/>
        <pt x="497" y="385" on="0"/>
        <pt x="492" y="380" on="1"/>
        <pt x="458" y="377" on="0"/>
        <pt x="392" y="359" on="0"/>
        <pt x="328" y="338" on="0"/>
        <pt x="263" y="317" on="0"/>
        <pt x="230" y="311" on="1"/>
        <pt x="226" y="291" on="0"/>
        <pt x="226" y="265" on="1"/>
        <pt x="226" y="245" on="0"/>
        <pt x="233" y="193" on="0"/>
        <pt x="245" y="175" on="1"/>
        <pt x="245" y="173" on="1"/>
        <pt x="245" y="168" on="0"/>
        <pt x="237" y="164" on="0"/>
        <pt x="237" y="159" on="1"/>
        <pt x="237" y="133" on="0"/>
        <pt x="248" y="87" on="0"/>
        <pt x="260" y="43" on="0"/>
        <pt x="271" y="-1" on="0"/>
        <pt x="271" y="-24" on="1"/>
        <pt x="271" y="-30" on="0"/>
        <pt x="270" y="-41" on="0"/>
        <pt x="269" y="-47" on="1"/>
        <pt x="272" y="-56" on="0"/>
        <pt x="286" y="-68" on="0"/>
        <pt x="291" y="-76" on="1"/>
        <pt x="292" y="-81" on="0"/>
        <pt x="292" y="-85" on="1"/>
        <pt x="292" y="-95" on="1"/>
        <pt x="292" y="-112" on="0"/>
        <pt x="284" y="-138" on="0"/>
        <pt x="272" y="-161" on="0"/>
        <pt x="258" y="-184" on="0"/>
        <pt x="252" y="-198" on="1"/>
        <pt x="242" y="-200" on="0"/>
        <pt x="236" y="-200" on="1"/>
        <pt x="221" y="-200" on="0"/>
        <pt x="202" y="-184" on="0"/>
        <pt x="188" y="-161" on="0"/>
        <pt x="175" y="-137" on="0"/>
        <pt x="166" y="-129" on="1"/>
        <pt x="167" y="-124" on="0"/>
        <pt x="168" y="-116" on="0"/>
        <pt x="168" y="-111" on="1"/>
        <pt x="168" y="-91" on="0"/>
        <pt x="155" y="-53" on="0"/>
        <pt x="147" y="-36" on="1"/>
        <pt x="146" y="-2" on="0"/>
        <pt x="134" y="64" on="0"/>
        <pt x="123" y="96" on="1"/>
        <pt x="125" y="108" on="0"/>
        <pt x="127" y="131" on="0"/>
        <pt x="127" y="142" on="1"/>
        <pt x="127" y="171" on="0"/>
        <pt x="121" y="229" on="0"/>
        <pt x="123" y="258" on="1"/>
        <pt x="120" y="263" on="0"/>
        <pt x="114" y="270" on="0"/>
        <pt x="112" y="275" on="1"/>
        <pt x="108" y="275" on="1"/>
        <pt x="93" y="275" on="0"/>
        <pt x="65" y="270" on="0"/>
        <pt x="51" y="270" on="1"/>
        <pt x="46" y="270" on="0"/>
        <pt x="38" y="271" on="0"/>
        <pt x="33" y="272" on="1"/>
        <pt x="22" y="283" on="0"/>
        <pt x="10" y="311" on="0"/>
        <pt x="10" y="326" on="1"/>
        <pt x="10" y="348" on="0"/>
        <pt x="22" y="366" on="1"/>
        <pt x="47" y="372" on="0"/>
        <pt x="96" y="389" on="0"/>
        <pt x="119" y="401" on="1"/>
        <pt x="122" y="416" on="0"/>
        <pt x="123" y="446" on="0"/>
        <pt x="133" y="459" on="1"/>
        <pt x="130" y="467" on="0"/>
        <pt x="117" y="480" on="0"/>
        <pt x="117" y="489" on="1"/>
        <pt x="117" y="494" on="0"/>
        <pt x="119" y="502" on="1"/>
        <pt x="129" y="513" on="0"/>
        <pt x="137" y="547" on="0"/>
        <pt x="143" y="585" on="0"/>
        <pt x="150" y="623" on="0"/>
        <pt x="159" y="638" on="1"/>
        <pt x="157" y="646" on="0"/>
        <pt x="155" y="665" on="0"/>
        <pt x="155" y="673" on="1"/>
        <pt x="155" y="685" on="0"/>
        <pt x="158" y="710" on="0"/>
        <pt x="162" y="721" on="1"/>
        <pt x="151" y="734" on="0"/>
        <pt x="137" y="769" on="0"/>
        <pt x="137" y="786" on="1"/>
        <pt x="137" y="819" on="0"/>
        <pt x="169" y="828" on="1"/>
        <pt x="168" y="832" on="0"/>
        <pt x="167" y="838" on="0"/>
        <pt x="167" y="841" on="1"/>
        <pt x="167" y="850" on="0"/>
        <pt x="177" y="866" on="0"/>
        <pt x="180" y="874" on="1"/>
        <pt x="175" y="887" on="0"/>
        <pt x="175" y="896" on="1"/>
        <pt x="175" y="904" on="0"/>
        <pt x="181" y="917" on="0"/>
        <pt x="183" y="925" on="1"/>
        <pt x="186" y="935" on="0"/>
        <pt x="189" y="951" on="0"/>
        <pt x="197" y="963" on="0"/>
        <pt x="210" y="969" on="0"/>
        <pt x="224" y="969" on="1"/>
        <pt x="246" y="969" on="0"/>
        <pt x="287" y="942" on="0"/>
        <pt x="298" y="925" on="1"/>
        <pt x="309" y="926" on="0"/>
        <pt x="326" y="933" on="0"/>
        <pt x="341" y="939" on="0"/>
        <pt x="358" y="944" on="0"/>
        <pt x="370" y="943" on="1"/>
        <pt x="373" y="950" on="0"/>
        <pt x="388" y="955" on="0"/>
        <pt x="404" y="958" on="0"/>
        <pt x="418" y="964" on="0"/>
        <pt x="420" y="972" on="1"/>
        <pt x="424" y="969" on="0"/>
        <pt x="429" y="969" on="1"/>
        <pt x="434" y="969" on="0"/>
        <pt x="444" y="972" on="0"/>
        <pt x="450" y="972" on="1"/>
        <pt x="456" y="972" on="0"/>
        <pt x="460" y="968" on="1"/>
        <pt x="486" y="982" on="0"/>
        <pt x="545" y="995" on="0"/>
        <pt x="574" y="996" on="1"/>
        <pt x="643" y="1034" on="0"/>
        <pt x="796" y="1062" on="0"/>
        <pt x="873" y="1062" on="1"/>
        <pt x="884" y="1062" on="0"/>
        <pt x="905" y="1063" on="0"/>
        <pt x="915" y="1061" on="1"/>
        <pt x="926" y="1059" on="0"/>
        <pt x="953" y="1049" on="0"/>
        <pt x="980" y="1035" on="0"/>
        <pt x="1004" y="1018" on="0"/>
        <pt x="1012" y="1011" on="1"/>
        <pt x="1020" y="993" on="0"/>
        <pt x="1020" y="976" on="1"/>
        <pt x="1020" y="968" on="0"/>
        <pt x="1018" y="953" on="0"/>
        <pt x="1018" y="945" on="1"/>
        <pt x="1018" y="933" on="0"/>
        <pt x="1023" y="918" on="1"/>
        <pt x="1020" y="919" on="0"/>
        <pt x="1013" y="919" on="1"/>
        <pt x="1004" y="919" on="0"/>
        <pt x="992" y="911" on="0"/>
        <pt x="982" y="901" on="0"/>
        <pt x="973" y="893" on="0"/>
        <pt x="969" y="893" on="1"/>
        <pt x="961" y="893" on="0"/>
        <pt x="950" y="899" on="0"/>
        <pt x="939" y="906" on="0"/>
        <pt x="927" y="911" on="0"/>
        <pt x="919" y="910" on="1"/>
        <pt x="919" y="914" on="1"/>
        <pt x="919" y="925" on="0"/>
        <pt x="905" y="932" on="0"/>
        <pt x="901" y="939" on="1"/>
        <pt x="886" y="940" on="0"/>
        <pt x="857" y="946" on="0"/>
        <pt x="842" y="946" on="1"/>
        <pt x="822" y="946" on="0"/>
        <pt x="811" y="932" on="1"/>
        <pt x="806" y="934" on="0"/>
        <pt x="799" y="940" on="0"/>
        <pt x="793" y="939" on="1"/>
        <pt x="790" y="939" on="1"/>
        <pt x="736" y="939" on="0"/>
        <pt x="632" y="916" on="0"/>
        <pt x="530" y="883" on="0"/>
        <pt x="428" y="845" on="0"/>
        <pt x="377" y="831" on="1"/>
        <pt x="365" y="815" on="0"/>
        <pt x="339" y="800" on="0"/>
        <pt x="314" y="790" on="0"/>
        <pt x="290" y="780" on="0"/>
        <pt x="273" y="758" on="0"/>
        <pt x="264" y="719" on="0"/>
        <pt x="266" y="685" on="1"/>
        <pt x="261" y="679" on="0"/>
        <pt x="259" y="665" on="0"/>
        <pt x="257" y="652" on="0"/>
        <pt x="253" y="640" on="0"/>
        <pt x="248" y="635" on="1"/>
        <pt x="250" y="625" on="0"/>
        <pt x="252" y="605" on="0"/>
        <pt x="252" y="595" on="1"/>
        <pt x="252" y="553" on="0"/>
        <pt x="238" y="513" on="1"/>
        <pt x="243" y="505" on="0"/>
        <pt x="243" y="495" on="1"/>
        <pt x="243" y="484" on="0"/>
        <pt x="237" y="466" on="0"/>
        <pt x="237" y="455" on="1"/>
        <pt x="237" y="444" on="0"/>
        <pt x="241" y="437" on="1"/>
        <pt x="247" y="437" on="0"/>
        <pt x="248" y="433" on="1"/>
        <pt x="254" y="433" on="1"/>
        <pt x="272" y="433" on="0"/>
        <pt x="298" y="451" on="0"/>
        <pt x="313" y="451" on="1"/>
        <pt x="316" y="451" on="0"/>
        <pt x="324" y="447" on="0"/>
        <pt x="327" y="447" on="1"/>
        <pt x="334" y="447" on="0"/>
        <pt x="332" y="457" on="0"/>
        <pt x="338" y="459" on="1"/>
        <pt x="374" y="465" on="1"/>
        <pt x="408" y="471" on="0"/>
        <pt x="469" y="488" on="0"/>
        <pt x="499" y="505" on="1"/>
        <pt x="506" y="502" on="0"/>
        <pt x="515" y="502" on="1"/>
        <pt x="523" y="502" on="0"/>
        <pt x="541" y="507" on="0"/>
        <pt x="549" y="507" on="1"/>
        <pt x="556" y="507" on="0"/>
        <pt x="560" y="505" on="1"/>
        <pt x="566" y="509" on="0"/>
        <pt x="584" y="514" on="0"/>
        <pt x="585" y="523" on="1"/>
        <pt x="587" y="523" on="1"/>
        <pt x="591" y="523" on="0"/>
        <pt x="595" y="519" on="0"/>
        <pt x="599" y="519" on="1"/>
        <pt x="603" y="519" on="1"/>
        <pt x="624" y="529" on="0"/>
        <pt x="641" y="534" on="1"/>
        <pt x="669" y="541" on="0"/>
        <pt x="733" y="552" on="0"/>
        <pt x="758" y="566" on="1"/>
        <pt x="787" y="566" on="0"/>
        <pt x="842" y="585" on="0"/>
        <pt x="870" y="585" on="1"/>
        <pt x="883" y="585" on="0"/>
        <pt x="894" y="581" on="1"/>
        <pt x="904" y="588" on="0"/>
        <pt x="931" y="594" on="0"/>
        <pt x="940" y="602" on="1"/>
        <pt x="946" y="601" on="0"/>
        <pt x="959" y="600" on="0"/>
        <pt x="966" y="600" on="1"/>
        <pt x="996" y="600" on="0"/>
        <pt x="1051" y="617" on="0"/>
        <pt x="1080" y="621" on="1"/>
        <pt x="1087" y="613" on="0"/>
        <pt x="1092" y="596" on="0"/>
      </contour>
    </TTGlyph>
    <TTGlyph name="G" xMin="20" yMin="-334" xMax="1448" yMax="1023">
      <contour>
        <pt x="1448" y="466" on="1"/>
        <pt x="1446" y="454" on="0"/>
        <pt x="1437" y="424" on="0"/>
        <pt x="1422" y="399" on="0"/>
        <pt x="1400" y="382" on="0"/>
        <pt x="1385" y="382" on="1"/>
        <pt x="1374" y="382" on="0"/>
        <pt x="1352" y="387" on="0"/>
        <pt x="1340" y="387" on="1"/>
        <pt x="1335" y="387" on="0"/>
        <pt x="1324" y="380" on="0"/>
        <pt x="1319" y="380" on="1"/>
        <pt x="1314" y="380" on="0"/>
        <pt x="1307" y="383" on="0"/>
        <pt x="1302" y="383" on="1"/>
        <pt x="1299" y="383" on="0"/>
        <pt x="1283" y="379" on="0"/>
        <pt x="1265" y="375" on="0"/>
        <pt x="1249" y="370" on="0"/>
        <pt x="1246" y="369" on="1"/>
        <pt x="1219" y="360" on="0"/>
        <pt x="1165" y="346" on="0"/>
        <pt x="1136" y="344" on="1"/>
        <pt x="1130" y="346" on="0"/>
        <pt x="1106" y="351" on="0"/>
        <pt x="1100" y="351" on="1"/>
        <pt x="1088" y="351" on="0"/>
        <pt x="1081" y="331" on="0"/>
        <pt x="1071" y="326" on="1"/>
        <pt x="1059" y="319" on="0"/>
        <pt x="1023" y="317" on="0"/>
        <pt x="987" y="313" on="0"/>
        <pt x="956" y="302" on="0"/>
        <pt x="949" y="287" on="1"/>
        <pt x="944" y="288" on="0"/>
        <pt x="933" y="289" on="0"/>
        <pt x="927" y="289" on="1"/>
        <pt x="895" y="289" on="0"/>
        <pt x="839" y="264" on="0"/>
        <pt x="810" y="254" on="1"/>
        <pt x="815" y="245" on="0"/>
        <pt x="819" y="219" on="0"/>
        <pt x="823" y="194" on="0"/>
        <pt x="830" y="171" on="0"/>
        <pt x="839" y="165" on="1"/>
        <pt x="839" y="159" on="0"/>
        <pt x="834" y="151" on="0"/>
        <pt x="831" y="148" on="1"/>
        <pt x="824" y="141" on="1"/>
        <pt x="821" y="138" on="0"/>
        <pt x="820" y="132" on="1"/>
        <pt x="817" y="120" on="0"/>
        <pt x="817" y="95" on="0"/>
        <pt x="803" y="89" on="1"/>
        <pt x="804" y="86" on="0"/>
        <pt x="804" y="78" on="1"/>
        <pt x="804" y="68" on="0"/>
        <pt x="798" y="50" on="0"/>
        <pt x="799" y="39" on="1"/>
        <pt x="782" y="20" on="0"/>
        <pt x="759" y="-20" on="0"/>
        <pt x="753" y="-43" on="1"/>
        <pt x="716" y="-80" on="0"/>
        <pt x="639" y="-155" on="0"/>
        <pt x="558" y="-225" on="0"/>
        <pt x="472" y="-288" on="0"/>
        <pt x="426" y="-312" on="1"/>
        <pt x="419" y="-312" on="1"/>
        <pt x="396" y="-312" on="0"/>
        <pt x="370" y="-328" on="0"/>
        <pt x="350" y="-334" on="1"/>
        <pt x="335" y="-330" on="0"/>
        <pt x="314" y="-330" on="1"/>
        <pt x="302" y="-330" on="0"/>
        <pt x="277" y="-332" on="0"/>
        <pt x="264" y="-332" on="1"/>
        <pt x="247" y="-332" on="0"/>
        <pt x="220" y="-324" on="0"/>
        <pt x="195" y="-314" on="0"/>
        <pt x="169" y="-304" on="0"/>
        <pt x="154" y="-302" on="1"/>
        <pt x="92" y="-240" on="0"/>
        <pt x="20" y="-75" on="0"/>
        <pt x="20" y="12" on="1"/>
        <pt x="20" y="52" on="0"/>
        <pt x="42" y="129" on="0"/>
        <pt x="42" y="168" on="1"/>
        <pt x="60" y="204" on="0"/>
        <pt x="87" y="280" on="0"/>
        <pt x="115" y="356" on="0"/>
        <pt x="148" y="429" on="0"/>
        <pt x="171" y="462" on="1"/>
        <pt x="176" y="488" on="0"/>
        <pt x="198" y="526" on="0"/>
        <pt x="211" y="549" on="1"/>
        <pt x="211" y="571" on="0"/>
        <pt x="230" y="608" on="0"/>
        <pt x="232" y="631" on="1"/>
        <pt x="248" y="646" on="0"/>
        <pt x="268" y="684" on="0"/>
        <pt x="286" y="724" on="0"/>
        <pt x="309" y="761" on="0"/>
        <pt x="329" y="774" on="1"/>
        <pt x="331" y="781" on="0"/>
        <pt x="332" y="798" on="0"/>
        <pt x="336" y="803" on="1"/>
        <pt x="357" y="826" on="1"/>
        <pt x="367" y="839" on="0"/>
        <pt x="384" y="866" on="0"/>
        <pt x="394" y="877" on="1"/>
        <pt x="400" y="883" on="0"/>
        <pt x="414" y="891" on="0"/>
        <pt x="419" y="896" on="1"/>
        <pt x="424" y="901" on="0"/>
        <pt x="421" y="917" on="0"/>
        <pt x="426" y="922" on="1"/>
        <pt x="428" y="924" on="0"/>
        <pt x="436" y="928" on="0"/>
        <pt x="439" y="930" on="1"/>
        <pt x="452" y="939" on="0"/>
        <pt x="470" y="957" on="0"/>
        <pt x="486" y="961" on="1"/>
        <pt x="500" y="972" on="0"/>
        <pt x="523" y="994" on="0"/>
        <pt x="547" y="1012" on="0"/>
        <pt x="575" y="1023" on="0"/>
        <pt x="596" y="1023" on="1"/>
        <pt x="600" y="1023" on="0"/>
        <pt x="608" y="1022" on="0"/>
        <pt x="612" y="1022" on="1"/>
        <pt x="653" y="984" on="0"/>
        <pt x="663" y="929" on="1"/>
        <pt x="652" y="915" on="0"/>
        <pt x="639" y="883" on="0"/>
        <pt x="631" y="867" on="1"/>
        <pt x="614" y="861" on="0"/>
        <pt x="584" y="838" on="0"/>
        <pt x="555" y="814" on="0"/>
        <pt x="524" y="796" on="0"/>
        <pt x="505" y="796" on="1"/>
        <pt x="497" y="789" on="0"/>
        <pt x="462" y="758" on="0"/>
        <pt x="425" y="724" on="0"/>
        <pt x="394" y="694" on="0"/>
        <pt x="390" y="688" on="1"/>
        <pt x="387" y="683" on="0"/>
        <pt x="383" y="675" on="0"/>
        <pt x="381" y="670" on="1"/>
        <pt x="355" y="626" on="1"/>
        <pt x="333" y="588" on="0"/>
        <pt x="287" y="515" on="0"/>
        <pt x="270" y="475" on="1"/>
        <pt x="262" y="457" on="0"/>
        <pt x="252" y="421" on="0"/>
        <pt x="247" y="401" on="1"/>
        <pt x="245" y="395" on="0"/>
        <pt x="239" y="383" on="0"/>
        <pt x="237" y="378" on="1"/>
        <pt x="226" y="357" on="0"/>
        <pt x="212" y="321" on="0"/>
        <pt x="211" y="297" on="1"/>
        <pt x="186" y="241" on="0"/>
        <pt x="143" y="128" on="0"/>
        <pt x="132" y="68" on="1"/>
        <pt x="138" y="48" on="0"/>
        <pt x="137" y="7" on="0"/>
        <pt x="137" y="-13" on="1"/>
        <pt x="137" y="-38" on="0"/>
        <pt x="144" y="-71" on="0"/>
        <pt x="157" y="-98" on="0"/>
        <pt x="173" y="-127" on="0"/>
        <pt x="182" y="-147" on="1"/>
        <pt x="197" y="-159" on="0"/>
        <pt x="221" y="-186" on="0"/>
        <pt x="232" y="-202" on="1"/>
        <pt x="270" y="-221" on="0"/>
        <pt x="309" y="-221" on="1"/>
        <pt x="337" y="-221" on="0"/>
        <pt x="395" y="-203" on="0"/>
        <pt x="450" y="-176" on="0"/>
        <pt x="502" y="-144" on="0"/>
        <pt x="526" y="-129" on="1"/>
        <pt x="568" y="-104" on="0"/>
        <pt x="630" y="-46" on="0"/>
        <pt x="681" y="18" on="0"/>
        <pt x="725" y="91" on="0"/>
        <pt x="749" y="132" on="1"/>
        <pt x="750" y="137" on="0"/>
        <pt x="753" y="144" on="1"/>
        <pt x="759" y="159" on="1"/>
        <pt x="762" y="167" on="0"/>
        <pt x="767" y="180" on="0"/>
        <pt x="767" y="182" on="1"/>
        <pt x="767" y="190" on="0"/>
        <pt x="760" y="197" on="0"/>
        <pt x="760" y="201" on="1"/>
        <pt x="760" y="209" on="0"/>
        <pt x="768" y="215" on="0"/>
        <pt x="779" y="221" on="0"/>
        <pt x="788" y="229" on="0"/>
        <pt x="788" y="240" on="1"/>
        <pt x="786" y="241" on="0"/>
        <pt x="781" y="241" on="1"/>
        <pt x="776" y="241" on="0"/>
        <pt x="766" y="239" on="0"/>
        <pt x="761" y="239" on="1"/>
        <pt x="749" y="239" on="0"/>
        <pt x="741" y="247" on="1"/>
        <pt x="736" y="245" on="0"/>
        <pt x="726" y="236" on="0"/>
        <pt x="717" y="226" on="0"/>
        <pt x="709" y="218" on="0"/>
        <pt x="706" y="218" on="1"/>
        <pt x="701" y="218" on="0"/>
        <pt x="696" y="222" on="0"/>
        <pt x="692" y="222" on="1"/>
        <pt x="675" y="222" on="0"/>
        <pt x="649" y="206" on="0"/>
        <pt x="634" y="201" on="1"/>
        <pt x="631" y="201" on="0"/>
        <pt x="625" y="202" on="0"/>
        <pt x="622" y="202" on="1"/>
        <pt x="611" y="202" on="0"/>
        <pt x="590" y="195" on="0"/>
        <pt x="571" y="187" on="0"/>
        <pt x="551" y="181" on="0"/>
        <pt x="541" y="182" on="1"/>
        <pt x="519" y="174" on="0"/>
        <pt x="482" y="156" on="0"/>
        <pt x="458" y="158" on="1"/>
        <pt x="451" y="155" on="0"/>
        <pt x="436" y="148" on="0"/>
        <pt x="429" y="143" on="1"/>
        <pt x="423" y="141" on="0"/>
        <pt x="420" y="141" on="1"/>
        <pt x="415" y="141" on="0"/>
        <pt x="412" y="146" on="1"/>
        <pt x="404" y="137" on="0"/>
        <pt x="378" y="130" on="0"/>
        <pt x="350" y="125" on="0"/>
        <pt x="325" y="118" on="0"/>
        <pt x="318" y="108" on="1"/>
        <pt x="307" y="117" on="0"/>
        <pt x="292" y="117" on="1"/>
        <pt x="277" y="117" on="0"/>
        <pt x="249" y="106" on="0"/>
        <pt x="233" y="106" on="1"/>
        <pt x="227" y="106" on="0"/>
        <pt x="225" y="108" on="1"/>
        <pt x="221" y="119" on="0"/>
        <pt x="211" y="141" on="0"/>
        <pt x="200" y="146" on="1"/>
        <pt x="198" y="157" on="0"/>
        <pt x="195" y="178" on="0"/>
        <pt x="195" y="188" on="1"/>
        <pt x="195" y="215" on="0"/>
        <pt x="211" y="237" on="1"/>
        <pt x="225" y="242" on="0"/>
        <pt x="254" y="249" on="0"/>
        <pt x="268" y="254" on="1"/>
        <pt x="279" y="252" on="0"/>
        <pt x="301" y="250" on="0"/>
        <pt x="312" y="250" on="1"/>
        <pt x="353" y="250" on="0"/>
        <pt x="431" y="271" on="0"/>
        <pt x="469" y="283" on="1"/>
        <pt x="505" y="294" on="0"/>
        <pt x="579" y="312" on="0"/>
        <pt x="616" y="323" on="1"/>
        <pt x="651" y="332" on="0"/>
        <pt x="719" y="355" on="0"/>
        <pt x="756" y="358" on="1"/>
        <pt x="780" y="375" on="0"/>
        <pt x="849" y="387" on="0"/>
        <pt x="878" y="394" on="1"/>
        <pt x="924" y="405" on="0"/>
        <pt x="1014" y="428" on="0"/>
        <pt x="1061" y="437" on="1"/>
        <pt x="1113" y="448" on="0"/>
        <pt x="1212" y="480" on="0"/>
        <pt x="1262" y="498" on="1"/>
        <pt x="1272" y="498" on="1"/>
        <pt x="1289" y="498" on="0"/>
        <pt x="1325" y="506" on="0"/>
        <pt x="1343" y="506" on="1"/>
        <pt x="1348" y="506" on="0"/>
        <pt x="1355" y="505" on="0"/>
        <pt x="1359" y="505" on="1"/>
        <pt x="1362" y="505" on="0"/>
        <pt x="1386" y="514" on="0"/>
        <pt x="1391" y="516" on="1"/>
        <pt x="1404" y="502" on="0"/>
        <pt x="1436" y="480" on="0"/>
      </contour>
    </TTGlyph>
    <TTGlyph name="H" xMin="-5" yMin="-312" xMax="945" yMax="1066">
      <contour>
        <pt x="945" y="353" on="1"/>
        <pt x="945" y="346" on="1"/>
        <pt x="945" y="343" on="0"/>
        <pt x="944" y="340" on="1"/>
        <pt x="933" y="319" on="0"/>
        <pt x="901" y="297" on="0"/>
        <pt x="877" y="297" on="1"/>
        <pt x="861" y="297" on="0"/>
        <pt x="846" y="303" on="0"/>
        <pt x="834" y="311" on="1"/>
        <pt x="816" y="309" on="0"/>
        <pt x="770" y="306" on="0"/>
        <pt x="724" y="299" on="0"/>
        <pt x="683" y="287" on="0"/>
        <pt x="669" y="275" on="1"/>
        <pt x="660" y="206" on="0"/>
        <pt x="659" y="69" on="0"/>
        <pt x="657" y="0" on="1"/>
        <pt x="665" y="-21" on="0"/>
        <pt x="671" y="-72" on="0"/>
        <pt x="672" y="-93" on="1"/>
        <pt x="679" y="-105" on="0"/>
        <pt x="687" y="-130" on="0"/>
        <pt x="695" y="-156" on="0"/>
        <pt x="706" y="-180" on="0"/>
        <pt x="715" y="-190" on="1"/>
        <pt x="723" y="-190" on="0"/>
        <pt x="736" y="-193" on="0"/>
        <pt x="743" y="-195" on="1"/>
        <pt x="743" y="-201" on="1"/>
        <pt x="743" y="-216" on="0"/>
        <pt x="761" y="-230" on="0"/>
        <pt x="772" y="-238" on="1"/>
        <pt x="775" y="-249" on="0"/>
        <pt x="775" y="-259" on="1"/>
        <pt x="775" y="-276" on="0"/>
        <pt x="760" y="-306" on="0"/>
        <pt x="743" y="-312" on="1"/>
        <pt x="733" y="-312" on="0"/>
        <pt x="715" y="-307" on="0"/>
        <pt x="705" y="-307" on="1"/>
        <pt x="698" y="-307" on="0"/>
        <pt x="690" y="-309" on="1"/>
        <pt x="685" y="-307" on="0"/>
        <pt x="678" y="-300" on="0"/>
        <pt x="670" y="-294" on="0"/>
        <pt x="661" y="-290" on="0"/>
        <pt x="654" y="-291" on="1"/>
        <pt x="649" y="-277" on="0"/>
        <pt x="627" y="-253" on="0"/>
        <pt x="611" y="-255" on="1"/>
        <pt x="612" y="-251" on="0"/>
        <pt x="612" y="-243" on="1"/>
        <pt x="612" y="-229" on="0"/>
        <pt x="601" y="-205" on="0"/>
        <pt x="590" y="-198" on="1"/>
        <pt x="585" y="-175" on="0"/>
        <pt x="577" y="-120" on="0"/>
        <pt x="564" y="-100" on="1"/>
        <pt x="564" y="-71" on="0"/>
        <pt x="552" y="-18" on="0"/>
        <pt x="547" y="10" on="1"/>
        <pt x="551" y="26" on="0"/>
        <pt x="551" y="46" on="1"/>
        <pt x="551" y="60" on="0"/>
        <pt x="549" y="87" on="0"/>
        <pt x="549" y="100" on="1"/>
        <pt x="549" y="114" on="0"/>
        <pt x="553" y="141" on="0"/>
        <pt x="561" y="154" on="1"/>
        <pt x="555" y="164" on="0"/>
        <pt x="551" y="185" on="0"/>
        <pt x="551" y="196" on="1"/>
        <pt x="551" y="213" on="0"/>
        <pt x="553" y="229" on="1"/>
        <pt x="557" y="261" on="1"/>
        <pt x="555" y="262" on="0"/>
        <pt x="550" y="262" on="1"/>
        <pt x="540" y="262" on="0"/>
        <pt x="533" y="258" on="1"/>
        <pt x="518" y="251" on="1"/>
        <pt x="513" y="252" on="0"/>
        <pt x="509" y="252" on="1"/>
        <pt x="500" y="252" on="1"/>
        <pt x="485" y="252" on="0"/>
        <pt x="456" y="243" on="0"/>
        <pt x="445" y="232" on="1"/>
        <pt x="411" y="232" on="0"/>
        <pt x="343" y="219" on="0"/>
        <pt x="276" y="201" on="0"/>
        <pt x="210" y="180" on="0"/>
        <pt x="177" y="172" on="1"/>
        <pt x="169" y="133" on="0"/>
        <pt x="161" y="54" on="0"/>
        <pt x="161" y="13" on="1"/>
        <pt x="161" y="-11" on="1"/>
        <pt x="161" y="-24" on="0"/>
        <pt x="163" y="-36" on="1"/>
        <pt x="164" y="-44" on="0"/>
        <pt x="173" y="-57" on="0"/>
        <pt x="173" y="-65" on="1"/>
        <pt x="173" y="-72" on="0"/>
        <pt x="170" y="-76" on="1"/>
        <pt x="177" y="-88" on="0"/>
        <pt x="191" y="-97" on="1"/>
        <pt x="206" y="-92" on="0"/>
        <pt x="217" y="-92" on="1"/>
        <pt x="235" y="-92" on="0"/>
        <pt x="267" y="-109" on="0"/>
        <pt x="285" y="-112" on="1"/>
        <pt x="281" y="-126" on="0"/>
        <pt x="265" y="-153" on="0"/>
        <pt x="263" y="-169" on="1"/>
        <pt x="259" y="-171" on="0"/>
        <pt x="252" y="-171" on="0"/>
        <pt x="246" y="-172" on="0"/>
        <pt x="243" y="-178" on="0"/>
        <pt x="245" y="-187" on="1"/>
        <pt x="231" y="-194" on="0"/>
        <pt x="203" y="-199" on="0"/>
        <pt x="174" y="-201" on="0"/>
        <pt x="145" y="-201" on="0"/>
        <pt x="130" y="-202" on="1"/>
        <pt x="130" y="-196" on="0"/>
        <pt x="125" y="-189" on="0"/>
        <pt x="117" y="-186" on="0"/>
        <pt x="108" y="-182" on="0"/>
        <pt x="105" y="-179" on="1"/>
        <pt x="97" y="-172" on="0"/>
        <pt x="88" y="-149" on="0"/>
        <pt x="79" y="-124" on="0"/>
        <pt x="69" y="-100" on="0"/>
        <pt x="62" y="-90" on="1"/>
        <pt x="60" y="-68" on="0"/>
        <pt x="58" y="-26" on="0"/>
        <pt x="58" y="-4" on="1"/>
        <pt x="58" y="37" on="0"/>
        <pt x="64" y="116" on="0"/>
        <pt x="66" y="158" on="1"/>
        <pt x="57" y="167" on="0"/>
        <pt x="34" y="165" on="0"/>
        <pt x="23" y="168" on="1"/>
        <pt x="11" y="183" on="0"/>
        <pt x="-5" y="220" on="0"/>
        <pt x="-5" y="240" on="1"/>
        <pt x="-5" y="250" on="0"/>
        <pt x="-2" y="261" on="1"/>
        <pt x="7" y="264" on="0"/>
        <pt x="29" y="270" on="0"/>
        <pt x="30" y="283" on="1"/>
        <pt x="37" y="279" on="0"/>
        <pt x="47" y="279" on="1"/>
        <pt x="57" y="279" on="0"/>
        <pt x="77" y="285" on="0"/>
        <pt x="87" y="287" on="1"/>
        <pt x="91" y="303" on="0"/>
        <pt x="96" y="334" on="0"/>
        <pt x="94" y="351" on="1"/>
        <pt x="108" y="372" on="0"/>
        <pt x="117" y="422" on="0"/>
        <pt x="119" y="445" on="1"/>
        <pt x="119" y="459" on="1"/>
        <pt x="119" y="466" on="0"/>
        <pt x="120" y="473" on="1"/>
        <pt x="122" y="484" on="0"/>
        <pt x="130" y="512" on="0"/>
        <pt x="133" y="524" on="1"/>
        <pt x="138" y="543" on="0"/>
        <pt x="141" y="577" on="0"/>
        <pt x="141" y="595" on="1"/>
        <pt x="141" y="599" on="1"/>
        <pt x="141" y="604" on="0"/>
        <pt x="133" y="609" on="0"/>
        <pt x="133" y="614" on="1"/>
        <pt x="134" y="616" on="1"/>
        <pt x="138" y="648" on="0"/>
        <pt x="149" y="711" on="0"/>
        <pt x="159" y="742" on="1"/>
        <pt x="151" y="765" on="0"/>
        <pt x="151" y="794" on="1"/>
        <pt x="151" y="832" on="0"/>
        <pt x="163" y="867" on="1"/>
        <pt x="157" y="883" on="0"/>
        <pt x="157" y="898" on="1"/>
        <pt x="157" y="910" on="0"/>
        <pt x="160" y="934" on="0"/>
        <pt x="159" y="946" on="1"/>
        <pt x="169" y="951" on="0"/>
        <pt x="182" y="969" on="0"/>
        <pt x="191" y="975" on="1"/>
        <pt x="221" y="976" on="0"/>
        <pt x="262" y="934" on="0"/>
        <pt x="262" y="904" on="1"/>
        <pt x="262" y="881" on="0"/>
        <pt x="249" y="860" on="1"/>
        <pt x="253" y="841" on="0"/>
        <pt x="253" y="816" on="1"/>
        <pt x="253" y="779" on="0"/>
        <pt x="243" y="705" on="0"/>
        <pt x="245" y="667" on="1"/>
        <pt x="239" y="653" on="0"/>
        <pt x="240" y="613" on="0"/>
        <pt x="238" y="599" on="1"/>
        <pt x="236" y="585" on="0"/>
        <pt x="228" y="556" on="0"/>
        <pt x="227" y="542" on="1"/>
        <pt x="226" y="519" on="0"/>
        <pt x="225" y="473" on="0"/>
        <pt x="220" y="452" on="1"/>
        <pt x="218" y="444" on="0"/>
        <pt x="211" y="433" on="0"/>
        <pt x="209" y="426" on="1"/>
        <pt x="205" y="405" on="0"/>
        <pt x="208" y="362" on="0"/>
        <pt x="206" y="340" on="1"/>
        <pt x="205" y="333" on="0"/>
        <pt x="200" y="319" on="0"/>
        <pt x="200" y="311" on="1"/>
        <pt x="200" y="307" on="0"/>
        <pt x="202" y="301" on="1"/>
        <pt x="293" y="309" on="0"/>
        <pt x="473" y="347" on="0"/>
        <pt x="564" y="361" on="1"/>
        <pt x="571" y="374" on="0"/>
        <pt x="571" y="388" on="1"/>
        <pt x="571" y="396" on="0"/>
        <pt x="568" y="404" on="1"/>
        <pt x="578" y="437" on="0"/>
        <pt x="589" y="504" on="0"/>
        <pt x="597" y="570" on="0"/>
        <pt x="603" y="637" on="0"/>
        <pt x="608" y="670" on="1"/>
        <pt x="614" y="704" on="1"/>
        <pt x="617" y="721" on="0"/>
        <pt x="622" y="737" on="1"/>
        <pt x="624" y="743" on="0"/>
        <pt x="629" y="755" on="0"/>
        <pt x="629" y="760" on="1"/>
        <pt x="629" y="765" on="0"/>
        <pt x="618" y="769" on="0"/>
        <pt x="618" y="772" on="1"/>
        <pt x="618" y="774" on="0"/>
        <pt x="621" y="775" on="0"/>
        <pt x="622" y="774" on="1"/>
        <pt x="627" y="783" on="0"/>
        <pt x="629" y="803" on="0"/>
        <pt x="630" y="823" on="0"/>
        <pt x="634" y="842" on="0"/>
        <pt x="640" y="850" on="1"/>
        <pt x="639" y="857" on="0"/>
        <pt x="633" y="869" on="0"/>
        <pt x="633" y="877" on="1"/>
        <pt x="632" y="878" on="0"/>
        <pt x="633" y="879" on="1"/>
        <pt x="635" y="888" on="0"/>
        <pt x="636" y="901" on="0"/>
        <pt x="636" y="910" on="1"/>
        <pt x="636" y="922" on="0"/>
        <pt x="647" y="929" on="1"/>
        <pt x="642" y="946" on="0"/>
        <pt x="638" y="986" on="0"/>
        <pt x="638" y="1005" on="1"/>
        <pt x="638" y="1031" on="0"/>
        <pt x="663" y="1066" on="0"/>
        <pt x="692" y="1066" on="1"/>
        <pt x="707" y="1066" on="0"/>
        <pt x="734" y="1054" on="0"/>
        <pt x="743" y="1043" on="1"/>
        <pt x="748" y="1020" on="0"/>
        <pt x="748" y="1000" on="1"/>
        <pt x="748" y="986" on="0"/>
        <pt x="745" y="961" on="0"/>
        <pt x="745" y="947" on="1"/>
        <pt x="745" y="936" on="0"/>
        <pt x="749" y="917" on="0"/>
        <pt x="751" y="907" on="1"/>
        <pt x="742" y="893" on="0"/>
        <pt x="734" y="859" on="0"/>
        <pt x="731" y="823" on="0"/>
        <pt x="730" y="786" on="0"/>
        <pt x="729" y="771" on="1"/>
        <pt x="726" y="738" on="0"/>
        <pt x="713" y="674" on="0"/>
        <pt x="705" y="642" on="1"/>
        <pt x="708" y="631" on="0"/>
        <pt x="708" y="622" on="1"/>
        <pt x="708" y="604" on="0"/>
        <pt x="698" y="569" on="0"/>
        <pt x="700" y="552" on="1"/>
        <pt x="693" y="534" on="0"/>
        <pt x="689" y="497" on="0"/>
        <pt x="688" y="477" on="1"/>
        <pt x="686" y="438" on="1"/>
        <pt x="685" y="419" on="0"/>
        <pt x="679" y="401" on="1"/>
        <pt x="681" y="396" on="0"/>
        <pt x="692" y="395" on="0"/>
        <pt x="690" y="387" on="1"/>
        <pt x="713" y="394" on="0"/>
        <pt x="765" y="393" on="0"/>
        <pt x="788" y="393" on="1"/>
        <pt x="803" y="393" on="0"/>
        <pt x="833" y="394" on="0"/>
        <pt x="848" y="397" on="1"/>
        <pt x="863" y="401" on="0"/>
        <pt x="894" y="412" on="0"/>
        <pt x="909" y="412" on="1"/>
        <pt x="930" y="412" on="0"/>
        <pt x="941" y="397" on="1"/>
        <pt x="943" y="386" on="0"/>
        <pt x="945" y="364" on="0"/>
      </contour>
    </TTGlyph>
    <TTGlyph name="I" xMin="72" yMin="-126" xMax="301" yMax="958">
      <contour>
        <pt x="301" y="-50" on="1"/>
        <pt x="301" y="-66" on="0"/>
        <pt x="279" y="-92" on="0"/>
        <pt x="271" y="-104" on="1"/>
        <pt x="257" y="-111" on="0"/>
        <pt x="232" y="-114" on="0"/>
        <pt x="218" y="-119" on="1"/>
        <pt x="213" y="-120" on="0"/>
        <pt x="207" y="-126" on="1"/>
        <pt x="199" y="-125" on="0"/>
        <pt x="183" y="-114" on="0"/>
        <pt x="175" y="-112" on="1"/>
        <pt x="164" y="-108" on="0"/>
        <pt x="129" y="-106" on="0"/>
        <pt x="121" y="-97" on="1"/>
        <pt x="107" y="-83" on="0"/>
        <pt x="88" y="-37" on="0"/>
        <pt x="77" y="15" on="0"/>
        <pt x="72" y="66" on="0"/>
        <pt x="72" y="85" on="1"/>
        <pt x="72" y="117" on="0"/>
        <pt x="80" y="181" on="0"/>
        <pt x="88" y="211" on="1"/>
        <pt x="88" y="216" on="1"/>
        <pt x="88" y="221" on="0"/>
        <pt x="89" y="228" on="0"/>
        <pt x="89" y="233" on="1"/>
        <pt x="89" y="236" on="0"/>
        <pt x="88" y="242" on="0"/>
        <pt x="85" y="244" on="1"/>
        <pt x="98" y="277" on="0"/>
        <pt x="110" y="347" on="0"/>
        <pt x="117" y="418" on="0"/>
        <pt x="126" y="489" on="0"/>
        <pt x="135" y="523" on="1"/>
        <pt x="134" y="529" on="0"/>
        <pt x="133" y="543" on="0"/>
        <pt x="133" y="549" on="1"/>
        <pt x="133" y="567" on="0"/>
        <pt x="141" y="602" on="0"/>
        <pt x="142" y="621" on="1"/>
        <pt x="143" y="627" on="0"/>
        <pt x="141" y="640" on="0"/>
        <pt x="141" y="647" on="1"/>
        <pt x="141" y="691" on="0"/>
        <pt x="150" y="775" on="0"/>
        <pt x="150" y="818" on="1"/>
        <pt x="150" y="841" on="0"/>
        <pt x="143" y="884" on="0"/>
        <pt x="143" y="906" on="1"/>
        <pt x="143" y="916" on="0"/>
        <pt x="145" y="935" on="0"/>
        <pt x="150" y="943" on="1"/>
        <pt x="172" y="958" on="0"/>
        <pt x="202" y="958" on="1"/>
        <pt x="224" y="958" on="0"/>
        <pt x="240" y="946" on="1"/>
        <pt x="239" y="944" on="0"/>
        <pt x="239" y="940" on="1"/>
        <pt x="239" y="935" on="0"/>
        <pt x="241" y="927" on="0"/>
        <pt x="241" y="922" on="1"/>
        <pt x="241" y="918" on="1"/>
        <pt x="241" y="916" on="0"/>
        <pt x="240" y="914" on="1"/>
        <pt x="247" y="902" on="0"/>
        <pt x="252" y="875" on="0"/>
        <pt x="252" y="861" on="1"/>
        <pt x="252" y="848" on="0"/>
        <pt x="250" y="823" on="0"/>
        <pt x="250" y="810" on="1"/>
        <pt x="250" y="792" on="0"/>
        <pt x="251" y="756" on="0"/>
        <pt x="251" y="738" on="1"/>
        <pt x="251" y="690" on="0"/>
        <pt x="242" y="597" on="0"/>
        <pt x="240" y="549" on="1"/>
        <pt x="238" y="508" on="0"/>
        <pt x="221" y="430" on="0"/>
        <pt x="218" y="390" on="1"/>
        <pt x="217" y="382" on="0"/>
        <pt x="218" y="367" on="0"/>
        <pt x="218" y="358" on="1"/>
        <pt x="218" y="335" on="0"/>
        <pt x="200" y="290" on="0"/>
        <pt x="200" y="265" on="1"/>
        <pt x="200" y="253" on="0"/>
        <pt x="204" y="244" on="1"/>
        <pt x="198" y="228" on="0"/>
        <pt x="189" y="184" on="0"/>
        <pt x="182" y="137" on="0"/>
        <pt x="178" y="92" on="0"/>
        <pt x="178" y="75" on="1"/>
        <pt x="178" y="51" on="0"/>
        <pt x="190" y="2" on="0"/>
        <pt x="204" y="-18" on="1"/>
        <pt x="214" y="-21" on="0"/>
        <pt x="242" y="-21" on="0"/>
        <pt x="270" y="-23" on="0"/>
        <pt x="294" y="-31" on="0"/>
        <pt x="300" y="-43" on="1"/>
        <pt x="301" y="-45" on="0"/>
        <pt x="301" y="-47" on="1"/>
      </contour>
    </TTGlyph>
    <TTGlyph name="Iacute" xMin="72" yMin="-126" xMax="450" yMax="1483">
      <component glyphName="I" x="0" y="0" flags="0x4"/>
      <component glyphName="acute" x="113" y="297" flags="0x4"/>
    </TTGlyph>
    <TTGlyph name="Icircumflex" xMin="-152" yMin="-126" xMax="609" yMax="1357">
      <component glyphName="I" x="0" y="0" flags="0x4"/>
      <component glyphName="circumflex" x="-152" y="174" flags="0x4"/>
    </TTGlyph>
    <TTGlyph name="Idieresis" xMin="-100" yMin="-126" xMax="523" yMax="1292">
      <component glyphName="I" x="0" y="0" flags="0x4"/>
      <component glyphName="dieresis" x="-100" y="287" flags="0x4"/>
    </TTGlyph>
    <TTGlyph name="Igrave" xMin="-203" yMin="-126" xMax="332" yMax="1536">
      <component glyphName="I" x="31" y="0" flags="0x4"/>
      <component glyphName="grave" x="-203" y="645" flags="0x4"/>
    </TTGlyph>
    <TTGlyph name="J" xMin="-133" yMin="-198" xMax="867" yMax="1041">
      <contour>
        <pt x="867" y="1007" on="1"/>
        <pt x="853" y="993" on="0"/>
        <pt x="825" y="966" on="0"/>
        <pt x="817" y="946" on="1"/>
        <pt x="805" y="944" on="0"/>
        <pt x="779" y="938" on="0"/>
        <pt x="767" y="938" on="1"/>
        <pt x="759" y="938" on="0"/>
        <pt x="743" y="943" on="0"/>
        <pt x="735" y="943" on="1"/>
        <pt x="728" y="943" on="0"/>
        <pt x="728" y="929" on="0"/>
        <pt x="724" y="925" on="1"/>
        <pt x="716" y="928" on="0"/>
        <pt x="698" y="930" on="0"/>
        <pt x="689" y="930" on="1"/>
        <pt x="668" y="930" on="0"/>
        <pt x="627" y="917" on="0"/>
        <pt x="587" y="900" on="0"/>
        <pt x="547" y="882" on="0"/>
        <pt x="526" y="877" on="1"/>
        <pt x="527" y="876" on="0"/>
        <pt x="527" y="872" on="1"/>
        <pt x="527" y="865" on="0"/>
        <pt x="519" y="856" on="0"/>
        <pt x="519" y="849" on="1"/>
        <pt x="519" y="846" on="1"/>
        <pt x="531" y="820" on="0"/>
        <pt x="555" y="772" on="0"/>
        <pt x="566" y="746" on="1"/>
        <pt x="572" y="733" on="0"/>
        <pt x="580" y="709" on="0"/>
        <pt x="585" y="695" on="1"/>
        <pt x="587" y="687" on="0"/>
        <pt x="597" y="682" on="0"/>
        <pt x="602" y="677" on="1"/>
        <pt x="600" y="671" on="0"/>
        <pt x="600" y="666" on="1"/>
        <pt x="600" y="647" on="0"/>
        <pt x="618" y="612" on="0"/>
        <pt x="618" y="594" on="1"/>
        <pt x="618" y="589" on="0"/>
        <pt x="616" y="581" on="1"/>
        <pt x="628" y="564" on="0"/>
        <pt x="638" y="520" on="0"/>
        <pt x="646" y="475" on="0"/>
        <pt x="655" y="432" on="0"/>
        <pt x="667" y="415" on="1"/>
        <pt x="660" y="403" on="0"/>
        <pt x="656" y="376" on="0"/>
        <pt x="656" y="362" on="1"/>
        <pt x="656" y="330" on="0"/>
        <pt x="669" y="265" on="0"/>
        <pt x="669" y="233" on="1"/>
        <pt x="669" y="211" on="0"/>
        <pt x="664" y="197" on="1"/>
        <pt x="666" y="182" on="0"/>
        <pt x="674" y="175" on="1"/>
        <pt x="670" y="168" on="0"/>
        <pt x="672" y="149" on="0"/>
        <pt x="667" y="142" on="1"/>
        <pt x="672" y="122" on="0"/>
        <pt x="672" y="105" on="1"/>
        <pt x="672" y="80" on="0"/>
        <pt x="659" y="31" on="0"/>
        <pt x="659" y="5" on="1"/>
        <pt x="659" y="-2" on="0"/>
        <pt x="661" y="-15" on="0"/>
        <pt x="664" y="-23" on="1"/>
        <pt x="662" y="-29" on="0"/>
        <pt x="651" y="-32" on="0"/>
        <pt x="649" y="-37" on="1"/>
        <pt x="649" y="-40" on="1"/>
        <pt x="649" y="-55" on="0"/>
        <pt x="642" y="-78" on="0"/>
        <pt x="637" y="-88" on="1"/>
        <pt x="628" y="-109" on="1"/>
        <pt x="624" y="-120" on="0"/>
        <pt x="621" y="-133" on="1"/>
        <pt x="595" y="-147" on="0"/>
        <pt x="548" y="-173" on="0"/>
        <pt x="526" y="-195" on="1"/>
        <pt x="522" y="-196" on="0"/>
        <pt x="514" y="-196" on="1"/>
        <pt x="507" y="-196" on="0"/>
        <pt x="493" y="-195" on="0"/>
        <pt x="485" y="-195" on="1"/>
        <pt x="474" y="-195" on="0"/>
        <pt x="462" y="-198" on="1"/>
        <pt x="446" y="-183" on="0"/>
        <pt x="400" y="-170" on="0"/>
        <pt x="380" y="-159" on="1"/>
        <pt x="373" y="-150" on="0"/>
        <pt x="364" y="-143" on="1"/>
        <pt x="346" y="-129" on="1"/>
        <pt x="337" y="-122" on="0"/>
        <pt x="321" y="-108" on="0"/>
        <pt x="315" y="-97" on="1"/>
        <pt x="301" y="-97" on="1"/>
        <pt x="301" y="-96" on="0"/>
        <pt x="302" y="-94" on="0"/>
        <pt x="302" y="-93" on="1"/>
        <pt x="302" y="-88" on="0"/>
        <pt x="292" y="-86" on="0"/>
        <pt x="294" y="-80" on="1"/>
        <pt x="282" y="-71" on="0"/>
        <pt x="266" y="-47" on="0"/>
        <pt x="250" y="-22" on="0"/>
        <pt x="234" y="1" on="0"/>
        <pt x="222" y="10" on="1"/>
        <pt x="222" y="12" on="1"/>
        <pt x="222" y="17" on="0"/>
        <pt x="216" y="20" on="0"/>
        <pt x="218" y="28" on="1"/>
        <pt x="202" y="49" on="0"/>
        <pt x="180" y="95" on="0"/>
        <pt x="161" y="144" on="0"/>
        <pt x="142" y="192" on="0"/>
        <pt x="129" y="214" on="1"/>
        <pt x="127" y="224" on="0"/>
        <pt x="127" y="234" on="1"/>
        <pt x="127" y="254" on="1"/>
        <pt x="127" y="283" on="0"/>
        <pt x="137" y="336" on="0"/>
        <pt x="151" y="361" on="1"/>
        <pt x="159" y="363" on="0"/>
        <pt x="180" y="362" on="0"/>
        <pt x="189" y="362" on="1"/>
        <pt x="198" y="362" on="0"/>
        <pt x="215" y="365" on="0"/>
        <pt x="222" y="372" on="1"/>
        <pt x="221" y="368" on="0"/>
        <pt x="227" y="365" on="0"/>
        <pt x="230" y="365" on="1"/>
        <pt x="235" y="365" on="0"/>
        <pt x="244" y="368" on="0"/>
        <pt x="249" y="368" on="1"/>
        <pt x="251" y="368" on="0"/>
        <pt x="258" y="366" on="0"/>
        <pt x="258" y="361" on="1"/>
        <pt x="264" y="363" on="0"/>
        <pt x="274" y="369" on="0"/>
        <pt x="280" y="372" on="1"/>
        <pt x="297" y="357" on="0"/>
        <pt x="343" y="342" on="0"/>
        <pt x="391" y="329" on="0"/>
        <pt x="437" y="314" on="0"/>
        <pt x="455" y="300" on="1"/>
        <pt x="460" y="290" on="0"/>
        <pt x="460" y="279" on="1"/>
        <pt x="460" y="262" on="0"/>
        <pt x="432" y="237" on="0"/>
        <pt x="416" y="232" on="1"/>
        <pt x="393" y="248" on="0"/>
        <pt x="336" y="262" on="0"/>
        <pt x="311" y="275" on="1"/>
        <pt x="291" y="267" on="0"/>
        <pt x="244" y="266" on="0"/>
        <pt x="222" y="264" on="1"/>
        <pt x="217" y="260" on="0"/>
        <pt x="220" y="240" on="0"/>
        <pt x="215" y="235" on="1"/>
        <pt x="228" y="196" on="0"/>
        <pt x="270" y="123" on="0"/>
        <pt x="287" y="85" on="1"/>
        <pt x="289" y="79" on="0"/>
        <pt x="299" y="74" on="0"/>
        <pt x="304" y="71" on="1"/>
        <pt x="304" y="68" on="1"/>
        <pt x="304" y="62" on="0"/>
        <pt x="310" y="57" on="0"/>
        <pt x="308" y="49" on="1"/>
        <pt x="320" y="47" on="0"/>
        <pt x="331" y="25" on="0"/>
        <pt x="337" y="17" on="1"/>
        <pt x="341" y="12" on="0"/>
        <pt x="350" y="4" on="0"/>
        <pt x="354" y="-1" on="1"/>
        <pt x="371" y="-20" on="0"/>
        <pt x="411" y="-62" on="0"/>
        <pt x="433" y="-73" on="1"/>
        <pt x="436" y="-75" on="0"/>
        <pt x="441" y="-75" on="0"/>
        <pt x="444" y="-76" on="1"/>
        <pt x="455" y="-82" on="0"/>
        <pt x="481" y="-93" on="0"/>
        <pt x="495" y="-93" on="1"/>
        <pt x="502" y="-93" on="0"/>
        <pt x="517" y="-87" on="0"/>
        <pt x="519" y="-80" on="1"/>
        <pt x="524" y="-71" on="0"/>
        <pt x="529" y="-48" on="0"/>
        <pt x="531" y="-38" on="1"/>
        <pt x="539" y="-9" on="0"/>
        <pt x="554" y="49" on="0"/>
        <pt x="559" y="78" on="1"/>
        <pt x="557" y="91" on="0"/>
        <pt x="555" y="117" on="0"/>
        <pt x="555" y="130" on="1"/>
        <pt x="555" y="153" on="0"/>
        <pt x="558" y="199" on="0"/>
        <pt x="558" y="222" on="1"/>
        <pt x="558" y="243" on="0"/>
        <pt x="553" y="284" on="0"/>
        <pt x="545" y="304" on="1"/>
        <pt x="547" y="308" on="0"/>
        <pt x="553" y="312" on="0"/>
        <pt x="553" y="317" on="1"/>
        <pt x="553" y="323" on="0"/>
        <pt x="546" y="344" on="0"/>
        <pt x="541" y="347" on="1"/>
        <pt x="548" y="357" on="0"/>
        <pt x="548" y="372" on="1"/>
        <pt x="548" y="389" on="0"/>
        <pt x="538" y="423" on="0"/>
        <pt x="538" y="440" on="1"/>
        <pt x="538" y="451" on="0"/>
        <pt x="541" y="462" on="1"/>
        <pt x="541" y="469" on="0"/>
        <pt x="527" y="469" on="0"/>
        <pt x="526" y="476" on="1"/>
        <pt x="526" y="478" on="0"/>
        <pt x="527" y="482" on="0"/>
        <pt x="527" y="484" on="1"/>
        <pt x="527" y="497" on="0"/>
        <pt x="520" y="520" on="0"/>
        <pt x="519" y="533" on="1"/>
        <pt x="510" y="543" on="0"/>
        <pt x="502" y="573" on="0"/>
        <pt x="494" y="604" on="0"/>
        <pt x="484" y="632" on="0"/>
        <pt x="473" y="641" on="1"/>
        <pt x="473" y="654" on="0"/>
        <pt x="466" y="682" on="0"/>
        <pt x="452" y="688" on="1"/>
        <pt x="446" y="711" on="0"/>
        <pt x="426" y="751" on="0"/>
        <pt x="409" y="767" on="1"/>
        <pt x="409" y="791" on="0"/>
        <pt x="390" y="817" on="0"/>
        <pt x="376" y="834" on="1"/>
        <pt x="353" y="832" on="0"/>
        <pt x="307" y="818" on="0"/>
        <pt x="284" y="818" on="1"/>
        <pt x="278" y="818" on="0"/>
        <pt x="267" y="819" on="0"/>
        <pt x="261" y="820" on="1"/>
        <pt x="256" y="817" on="0"/>
        <pt x="254" y="804" on="0"/>
        <pt x="254" y="799" on="1"/>
        <pt x="236" y="797" on="0"/>
        <pt x="202" y="788" on="0"/>
        <pt x="167" y="779" on="0"/>
        <pt x="133" y="773" on="0"/>
        <pt x="115" y="774" on="1"/>
        <pt x="108" y="760" on="0"/>
        <pt x="82" y="751" on="0"/>
        <pt x="53" y="747" on="0"/>
        <pt x="25" y="741" on="0"/>
        <pt x="17" y="731" on="1"/>
        <pt x="13" y="735" on="0"/>
        <pt x="7" y="735" on="1"/>
        <pt x="-1" y="735" on="0"/>
        <pt x="-16" y="727" on="0"/>
        <pt x="-25" y="727" on="1"/>
        <pt x="-32" y="727" on="0"/>
        <pt x="-36" y="731" on="1"/>
        <pt x="-43" y="726" on="0"/>
        <pt x="-60" y="721" on="0"/>
        <pt x="-65" y="713" on="1"/>
        <pt x="-82" y="716" on="0"/>
        <pt x="-108" y="736" on="0"/>
        <pt x="-125" y="764" on="0"/>
        <pt x="-133" y="797" on="0"/>
        <pt x="-133" y="813" on="1"/>
        <pt x="-127" y="824" on="0"/>
        <pt x="-101" y="832" on="0"/>
        <pt x="-93" y="842" on="1"/>
        <pt x="-86" y="839" on="0"/>
        <pt x="-73" y="834" on="0"/>
        <pt x="-65" y="834" on="1"/>
        <pt x="-55" y="834" on="0"/>
        <pt x="-41" y="842" on="0"/>
        <pt x="-33" y="842" on="1"/>
        <pt x="-28" y="842" on="0"/>
        <pt x="-22" y="839" on="1"/>
        <pt x="-15" y="845" on="0"/>
        <pt x="5" y="848" on="0"/>
        <pt x="24" y="851" on="0"/>
        <pt x="40" y="857" on="0"/>
        <pt x="43" y="867" on="1"/>
        <pt x="52" y="864" on="0"/>
        <pt x="62" y="864" on="1"/>
        <pt x="74" y="864" on="0"/>
        <pt x="98" y="871" on="0"/>
        <pt x="118" y="879" on="0"/>
        <pt x="134" y="886" on="0"/>
        <pt x="137" y="886" on="1"/>
        <pt x="142" y="886" on="0"/>
        <pt x="152" y="881" on="0"/>
        <pt x="157" y="881" on="1"/>
        <pt x="167" y="881" on="0"/>
        <pt x="186" y="893" on="0"/>
        <pt x="194" y="899" on="1"/>
        <pt x="202" y="895" on="0"/>
        <pt x="209" y="895" on="1"/>
        <pt x="223" y="895" on="0"/>
        <pt x="252" y="911" on="0"/>
        <pt x="269" y="911" on="1"/>
        <pt x="276" y="911" on="0"/>
        <pt x="280" y="910" on="1"/>
        <pt x="303" y="921" on="0"/>
        <pt x="368" y="939" on="0"/>
        <pt x="394" y="939" on="1"/>
        <pt x="408" y="951" on="0"/>
        <pt x="446" y="961" on="0"/>
        <pt x="486" y="967" on="0"/>
        <pt x="525" y="977" on="0"/>
        <pt x="541" y="989" on="1"/>
        <pt x="546" y="987" on="0"/>
        <pt x="560" y="986" on="0"/>
        <pt x="563" y="982" on="1"/>
        <pt x="568" y="984" on="0"/>
        <pt x="572" y="994" on="0"/>
        <pt x="573" y="999" on="1"/>
        <pt x="574" y="1000" on="0"/>
        <pt x="577" y="1000" on="1"/>
        <pt x="582" y="1000" on="0"/>
        <pt x="580" y="992" on="0"/>
        <pt x="585" y="992" on="1"/>
        <pt x="588" y="992" on="0"/>
        <pt x="603" y="999" on="0"/>
        <pt x="625" y="1007" on="0"/>
        <pt x="651" y="1014" on="0"/>
        <pt x="663" y="1014" on="1"/>
        <pt x="667" y="1014" on="1"/>
        <pt x="672" y="1015" on="1"/>
        <pt x="677" y="1017" on="0"/>
        <pt x="689" y="1020" on="0"/>
        <pt x="700" y="1024" on="0"/>
        <pt x="702" y="1024" on="1"/>
        <pt x="724" y="1031" on="0"/>
        <pt x="771" y="1041" on="0"/>
        <pt x="794" y="1041" on="1"/>
        <pt x="816" y="1041" on="0"/>
        <pt x="854" y="1026" on="0"/>
      </contour>
    </TTGlyph>
    <TTGlyph name="K" xMin="-67" yMin="-265" xMax="1402" yMax="1032">
      <contour>
        <pt x="1402" y="-224" on="1"/>
        <pt x="1402" y="-235" on="0"/>
        <pt x="1397" y="-245" on="1"/>
        <pt x="1377" y="-256" on="0"/>
        <pt x="1334" y="-265" on="0"/>
        <pt x="1313" y="-265" on="1"/>
        <pt x="1303" y="-265" on="0"/>
        <pt x="1280" y="-264" on="0"/>
        <pt x="1271" y="-262" on="1"/>
        <pt x="1268" y="-261" on="0"/>
        <pt x="1260" y="-255" on="0"/>
        <pt x="1256" y="-255" on="1"/>
        <pt x="1246" y="-255" on="0"/>
        <pt x="1228" y="-262" on="0"/>
        <pt x="1218" y="-262" on="1"/>
        <pt x="1213" y="-262" on="0"/>
        <pt x="1204" y="-256" on="0"/>
        <pt x="1199" y="-255" on="1"/>
        <pt x="1192" y="-253" on="0"/>
        <pt x="1178" y="-255" on="0"/>
        <pt x="1170" y="-255" on="1"/>
        <pt x="1159" y="-255" on="0"/>
        <pt x="1142" y="-249" on="0"/>
        <pt x="1135" y="-241" on="1"/>
        <pt x="1110" y="-238" on="0"/>
        <pt x="1062" y="-225" on="0"/>
        <pt x="1014" y="-210" on="0"/>
        <pt x="966" y="-197" on="0"/>
        <pt x="941" y="-195" on="1"/>
        <pt x="935" y="-188" on="0"/>
        <pt x="919" y="-181" on="0"/>
        <pt x="915" y="-173" on="1"/>
        <pt x="910" y="-173" on="0"/>
        <pt x="906" y="-176" on="0"/>
        <pt x="901" y="-176" on="1"/>
        <pt x="884" y="-162" on="0"/>
        <pt x="845" y="-142" on="0"/>
        <pt x="804" y="-124" on="0"/>
        <pt x="765" y="-105" on="0"/>
        <pt x="748" y="-90" on="1"/>
        <pt x="743" y="-90" on="1"/>
        <pt x="735" y="-91" on="0"/>
        <pt x="724" y="-82" on="0"/>
        <pt x="716" y="-82" on="1"/>
        <pt x="711" y="-82" on="0"/>
        <pt x="708" y="-83" on="1"/>
        <pt x="705" y="-75" on="0"/>
        <pt x="693" y="-65" on="0"/>
        <pt x="680" y="-56" on="0"/>
        <pt x="668" y="-47" on="0"/>
        <pt x="665" y="-40" on="1"/>
        <pt x="640" y="-31" on="0"/>
        <pt x="593" y="-6" on="0"/>
        <pt x="575" y="14" on="1"/>
        <pt x="555" y="16" on="0"/>
        <pt x="529" y="37" on="0"/>
        <pt x="518" y="53" on="1"/>
        <pt x="494" y="61" on="0"/>
        <pt x="454" y="87" on="0"/>
        <pt x="415" y="115" on="0"/>
        <pt x="372" y="138" on="0"/>
        <pt x="345" y="143" on="1"/>
        <pt x="344" y="150" on="0"/>
        <pt x="334" y="157" on="0"/>
        <pt x="321" y="162" on="0"/>
        <pt x="309" y="166" on="0"/>
        <pt x="306" y="172" on="1"/>
        <pt x="303" y="172" on="0"/>
        <pt x="297" y="173" on="0"/>
        <pt x="294" y="173" on="1"/>
        <pt x="291" y="173" on="0"/>
        <pt x="284" y="172" on="0"/>
        <pt x="281" y="172" on="1"/>
        <pt x="282" y="175" on="1"/>
        <pt x="282" y="179" on="0"/>
        <pt x="277" y="181" on="0"/>
        <pt x="269" y="183" on="0"/>
        <pt x="263" y="187" on="0"/>
        <pt x="263" y="194" on="1"/>
        <pt x="260" y="194" on="1"/>
        <pt x="249" y="194" on="0"/>
        <pt x="231" y="202" on="0"/>
        <pt x="220" y="204" on="1"/>
        <pt x="218" y="193" on="0"/>
        <pt x="218" y="183" on="1"/>
        <pt x="218" y="165" on="1"/>
        <pt x="218" y="120" on="0"/>
        <pt x="238" y="21" on="0"/>
        <pt x="259" y="-18" on="1"/>
        <pt x="280" y="-26" on="0"/>
        <pt x="310" y="-52" on="0"/>
        <pt x="324" y="-69" on="1"/>
        <pt x="325" y="-96" on="0"/>
        <pt x="284" y="-133" on="0"/>
        <pt x="257" y="-133" on="1"/>
        <pt x="242" y="-133" on="0"/>
        <pt x="217" y="-118" on="0"/>
        <pt x="209" y="-104" on="1"/>
        <pt x="203" y="-104" on="0"/>
        <pt x="193" y="-109" on="0"/>
        <pt x="186" y="-109" on="1"/>
        <pt x="183" y="-109" on="0"/>
        <pt x="180" y="-108" on="1"/>
        <pt x="170" y="-91" on="0"/>
        <pt x="151" y="-65" on="0"/>
        <pt x="148" y="-43" on="1"/>
        <pt x="137" y="-38" on="0"/>
        <pt x="132" y="-12" on="0"/>
        <pt x="123" y="-4" on="1"/>
        <pt x="119" y="41" on="0"/>
        <pt x="106" y="131" on="0"/>
        <pt x="106" y="176" on="1"/>
        <pt x="106" y="186" on="0"/>
        <pt x="108" y="207" on="0"/>
        <pt x="109" y="218" on="1"/>
        <pt x="107" y="223" on="0"/>
        <pt x="100" y="232" on="0"/>
        <pt x="98" y="237" on="1"/>
        <pt x="78" y="232" on="0"/>
        <pt x="35" y="223" on="0"/>
        <pt x="13" y="223" on="1"/>
        <pt x="-1" y="223" on="0"/>
        <pt x="-41" y="232" on="0"/>
        <pt x="-52" y="240" on="1"/>
        <pt x="-60" y="245" on="0"/>
        <pt x="-67" y="272" on="0"/>
        <pt x="-67" y="282" on="1"/>
        <pt x="-67" y="299" on="0"/>
        <pt x="-55" y="334" on="0"/>
        <pt x="-45" y="347" on="1"/>
        <pt x="4" y="367" on="0"/>
        <pt x="89" y="425" on="0"/>
        <pt x="130" y="459" on="1"/>
        <pt x="131" y="469" on="0"/>
        <pt x="136" y="489" on="0"/>
        <pt x="136" y="500" on="1"/>
        <pt x="136" y="512" on="0"/>
        <pt x="130" y="523" on="1"/>
        <pt x="136" y="529" on="0"/>
        <pt x="136" y="548" on="0"/>
        <pt x="141" y="556" on="1"/>
        <pt x="141" y="562" on="1"/>
        <pt x="141" y="566" on="0"/>
        <pt x="140" y="574" on="0"/>
        <pt x="137" y="578" on="1"/>
        <pt x="144" y="617" on="0"/>
        <pt x="152" y="694" on="0"/>
        <pt x="152" y="735" on="1"/>
        <pt x="152" y="738" on="0"/>
        <pt x="159" y="765" on="0"/>
        <pt x="160" y="770" on="1"/>
        <pt x="164" y="793" on="0"/>
        <pt x="167" y="838" on="0"/>
        <pt x="170" y="861" on="1"/>
        <pt x="171" y="869" on="0"/>
        <pt x="177" y="895" on="0"/>
        <pt x="177" y="900" on="1"/>
        <pt x="177" y="907" on="0"/>
        <pt x="172" y="912" on="0"/>
        <pt x="170" y="918" on="1"/>
        <pt x="176" y="941" on="0"/>
        <pt x="177" y="988" on="0"/>
        <pt x="180" y="1011" on="1"/>
        <pt x="197" y="1018" on="0"/>
        <pt x="217" y="1032" on="0"/>
        <pt x="236" y="1032" on="1"/>
        <pt x="238" y="1032" on="1"/>
        <pt x="240" y="1020" on="0"/>
        <pt x="254" y="999" on="0"/>
        <pt x="269" y="978" on="0"/>
        <pt x="281" y="959" on="0"/>
        <pt x="281" y="950" on="1"/>
        <pt x="281" y="933" on="0"/>
        <pt x="275" y="893" on="0"/>
        <pt x="273" y="876" on="1"/>
        <pt x="268" y="831" on="0"/>
        <pt x="260" y="744" on="0"/>
        <pt x="252" y="699" on="1"/>
        <pt x="255" y="685" on="0"/>
        <pt x="255" y="673" on="1"/>
        <pt x="255" y="655" on="0"/>
        <pt x="249" y="619" on="0"/>
        <pt x="249" y="600" on="1"/>
        <pt x="249" y="591" on="0"/>
        <pt x="252" y="571" on="0"/>
        <pt x="256" y="563" on="1"/>
        <pt x="290" y="572" on="0"/>
        <pt x="317" y="600" on="1"/>
        <pt x="321" y="604" on="0"/>
        <pt x="330" y="617" on="0"/>
        <pt x="335" y="621" on="1"/>
        <pt x="345" y="629" on="0"/>
        <pt x="368" y="642" on="0"/>
        <pt x="379" y="649" on="1"/>
        <pt x="405" y="666" on="0"/>
        <pt x="454" y="703" on="0"/>
        <pt x="479" y="721" on="1"/>
        <pt x="553" y="775" on="0"/>
        <pt x="692" y="892" on="0"/>
        <pt x="758" y="957" on="1"/>
        <pt x="761" y="974" on="0"/>
        <pt x="779" y="994" on="0"/>
        <pt x="786" y="1008" on="1"/>
        <pt x="805" y="1015" on="0"/>
        <pt x="819" y="1029" on="1"/>
        <pt x="825" y="1027" on="0"/>
        <pt x="838" y="1026" on="0"/>
        <pt x="851" y="1026" on="0"/>
        <pt x="864" y="1025" on="0"/>
        <pt x="869" y="1022" on="1"/>
        <pt x="870" y="1007" on="0"/>
        <pt x="874" y="983" on="0"/>
        <pt x="884" y="972" on="1"/>
        <pt x="884" y="970" on="0"/>
        <pt x="885" y="966" on="0"/>
        <pt x="885" y="964" on="1"/>
        <pt x="885" y="953" on="0"/>
        <pt x="873" y="939" on="0"/>
        <pt x="872" y="929" on="1"/>
        <pt x="820" y="877" on="1"/>
        <pt x="794" y="851" on="0"/>
        <pt x="772" y="821" on="1"/>
        <pt x="764" y="820" on="0"/>
        <pt x="752" y="812" on="0"/>
        <pt x="741" y="803" on="0"/>
        <pt x="729" y="795" on="0"/>
        <pt x="722" y="793" on="1"/>
        <pt x="704" y="769" on="0"/>
        <pt x="658" y="730" on="0"/>
        <pt x="610" y="694" on="0"/>
        <pt x="563" y="657" on="0"/>
        <pt x="543" y="635" on="1"/>
        <pt x="522" y="625" on="0"/>
        <pt x="483" y="598" on="0"/>
        <pt x="471" y="578" on="1"/>
        <pt x="466" y="578" on="1"/>
        <pt x="461" y="578" on="0"/>
        <pt x="455" y="573" on="0"/>
        <pt x="450" y="573" on="1"/>
        <pt x="396" y="526" on="0"/>
        <pt x="280" y="443" on="0"/>
        <pt x="227" y="394" on="1"/>
        <pt x="227" y="369" on="1"/>
        <pt x="244" y="359" on="0"/>
        <pt x="284" y="342" on="0"/>
        <pt x="323" y="322" on="0"/>
        <pt x="358" y="299" on="0"/>
        <pt x="371" y="283" on="1"/>
        <pt x="373" y="284" on="0"/>
        <pt x="376" y="284" on="1"/>
        <pt x="385" y="284" on="0"/>
        <pt x="395" y="273" on="0"/>
        <pt x="407" y="275" on="1"/>
        <pt x="411" y="259" on="0"/>
        <pt x="439" y="245" on="0"/>
        <pt x="453" y="240" on="1"/>
        <pt x="465" y="228" on="0"/>
        <pt x="485" y="207" on="0"/>
        <pt x="504" y="204" on="1"/>
        <pt x="506" y="200" on="0"/>
        <pt x="508" y="190" on="0"/>
        <pt x="511" y="186" on="1"/>
        <pt x="530" y="180" on="0"/>
        <pt x="565" y="158" on="0"/>
        <pt x="599" y="135" on="0"/>
        <pt x="634" y="114" on="0"/>
        <pt x="654" y="108" on="1"/>
        <pt x="657" y="98" on="0"/>
        <pt x="674" y="90" on="0"/>
        <pt x="679" y="82" on="1"/>
        <pt x="697" y="82" on="1"/>
        <pt x="700" y="77" on="0"/>
        <pt x="710" y="68" on="0"/>
        <pt x="712" y="60" on="1"/>
        <pt x="720" y="58" on="0"/>
        <pt x="740" y="51" on="0"/>
        <pt x="748" y="46" on="1"/>
        <pt x="751" y="43" on="0"/>
        <pt x="754" y="35" on="0"/>
        <pt x="758" y="32" on="1"/>
        <pt x="764" y="27" on="0"/>
        <pt x="789" y="22" on="0"/>
        <pt x="798" y="17" on="1"/>
        <pt x="816" y="7" on="0"/>
        <pt x="850" y="-18" on="0"/>
        <pt x="869" y="-29" on="1"/>
        <pt x="908" y="-50" on="1"/>
        <pt x="918" y="-55" on="0"/>
        <pt x="935" y="-67" on="0"/>
        <pt x="944" y="-72" on="1"/>
        <pt x="962" y="-80" on="0"/>
        <pt x="1003" y="-85" on="0"/>
        <pt x="1020" y="-93" on="1"/>
        <pt x="1025" y="-96" on="0"/>
        <pt x="1029" y="-105" on="0"/>
        <pt x="1034" y="-108" on="1"/>
        <pt x="1042" y="-113" on="0"/>
        <pt x="1076" y="-117" on="0"/>
        <pt x="1087" y="-122" on="1"/>
        <pt x="1101" y="-128" on="0"/>
        <pt x="1128" y="-139" on="0"/>
        <pt x="1142" y="-147" on="1"/>
        <pt x="1172" y="-149" on="0"/>
        <pt x="1231" y="-159" on="0"/>
        <pt x="1289" y="-169" on="0"/>
        <pt x="1348" y="-177" on="0"/>
        <pt x="1378" y="-176" on="1"/>
        <pt x="1378" y="-178" on="0"/>
        <pt x="1383" y="-179" on="0"/>
        <pt x="1385" y="-179" on="1"/>
        <pt x="1392" y="-190" on="0"/>
        <pt x="1402" y="-212" on="0"/>
      </contour>
    </TTGlyph>
    <TTGlyph name="L" xMin="51" yMin="-200" xMax="997" yMax="947">
      <contour>
        <pt x="997" y="229" on="1"/>
        <pt x="997" y="209" on="0"/>
        <pt x="984" y="184" on="0"/>
        <pt x="976" y="168" on="1"/>
        <pt x="974" y="169" on="0"/>
        <pt x="971" y="169" on="1"/>
        <pt x="965" y="169" on="0"/>
        <pt x="955" y="163" on="0"/>
        <pt x="950" y="161" on="1"/>
        <pt x="921" y="129" on="0"/>
        <pt x="860" y="69" on="0"/>
        <pt x="823" y="46" on="1"/>
        <pt x="813" y="40" on="0"/>
        <pt x="793" y="29" on="0"/>
        <pt x="782" y="24" on="1"/>
        <pt x="778" y="22" on="0"/>
        <pt x="771" y="19" on="0"/>
        <pt x="768" y="17" on="1"/>
        <pt x="761" y="13" on="0"/>
        <pt x="746" y="-5" on="0"/>
        <pt x="727" y="-24" on="0"/>
        <pt x="705" y="-37" on="0"/>
        <pt x="692" y="-36" on="1"/>
        <pt x="684" y="-41" on="0"/>
        <pt x="672" y="-57" on="0"/>
        <pt x="664" y="-65" on="1"/>
        <pt x="621" y="-80" on="0"/>
        <pt x="550" y="-129" on="0"/>
        <pt x="512" y="-152" on="1"/>
        <pt x="489" y="-167" on="0"/>
        <pt x="466" y="-176" on="1"/>
        <pt x="461" y="-178" on="0"/>
        <pt x="448" y="-180" on="0"/>
        <pt x="441" y="-182" on="1"/>
        <pt x="408" y="-190" on="0"/>
        <pt x="341" y="-200" on="0"/>
        <pt x="307" y="-200" on="1"/>
        <pt x="265" y="-200" on="0"/>
        <pt x="226" y="-190" on="1"/>
        <pt x="226" y="-187" on="0"/>
        <pt x="222" y="-185" on="0"/>
        <pt x="217" y="-183" on="0"/>
        <pt x="213" y="-180" on="0"/>
        <pt x="215" y="-176" on="1"/>
        <pt x="193" y="-174" on="0"/>
        <pt x="160" y="-156" on="0"/>
        <pt x="155" y="-133" on="1"/>
        <pt x="152" y="-135" on="0"/>
        <pt x="148" y="-141" on="0"/>
        <pt x="143" y="-140" on="1"/>
        <pt x="129" y="-120" on="0"/>
        <pt x="95" y="-86" on="0"/>
        <pt x="87" y="-62" on="1"/>
        <pt x="85" y="-57" on="0"/>
        <pt x="84" y="-48" on="0"/>
        <pt x="83" y="-43" on="1"/>
        <pt x="78" y="-29" on="0"/>
        <pt x="65" y="-29" on="1"/>
        <pt x="67" y="-25" on="0"/>
        <pt x="67" y="-19" on="1"/>
        <pt x="67" y="-16" on="0"/>
        <pt x="66" y="-10" on="0"/>
        <pt x="66" y="-7" on="1"/>
        <pt x="66" y="-2" on="0"/>
        <pt x="69" y="3" on="1"/>
        <pt x="59" y="26" on="0"/>
        <pt x="51" y="71" on="0"/>
        <pt x="51" y="95" on="1"/>
        <pt x="51" y="126" on="0"/>
        <pt x="57" y="187" on="0"/>
        <pt x="57" y="218" on="1"/>
        <pt x="63" y="230" on="0"/>
        <pt x="70" y="262" on="0"/>
        <pt x="79" y="272" on="1"/>
        <pt x="78" y="278" on="0"/>
        <pt x="72" y="279" on="0"/>
        <pt x="72" y="284" on="1"/>
        <pt x="72" y="302" on="0"/>
        <pt x="86" y="344" on="0"/>
        <pt x="86" y="366" on="1"/>
        <pt x="95" y="371" on="0"/>
        <pt x="100" y="391" on="0"/>
        <pt x="108" y="397" on="1"/>
        <pt x="108" y="402" on="1"/>
        <pt x="108" y="417" on="0"/>
        <pt x="115" y="447" on="0"/>
        <pt x="122" y="476" on="0"/>
        <pt x="127" y="505" on="0"/>
        <pt x="126" y="519" on="1"/>
        <pt x="128" y="522" on="0"/>
        <pt x="135" y="539" on="0"/>
        <pt x="142" y="558" on="0"/>
        <pt x="147" y="576" on="0"/>
        <pt x="147" y="580" on="1"/>
        <pt x="147" y="586" on="0"/>
        <pt x="143" y="596" on="0"/>
        <pt x="143" y="602" on="1"/>
        <pt x="143" y="607" on="0"/>
        <pt x="149" y="626" on="0"/>
        <pt x="151" y="632" on="1"/>
        <pt x="155" y="649" on="0"/>
        <pt x="162" y="686" on="0"/>
        <pt x="165" y="703" on="1"/>
        <pt x="174" y="758" on="0"/>
        <pt x="182" y="869" on="0"/>
        <pt x="183" y="925" on="1"/>
        <pt x="197" y="933" on="0"/>
        <pt x="228" y="947" on="0"/>
        <pt x="245" y="947" on="1"/>
        <pt x="250" y="947" on="0"/>
        <pt x="260" y="945" on="0"/>
        <pt x="265" y="943" on="1"/>
        <pt x="270" y="923" on="0"/>
        <pt x="292" y="899" on="0"/>
        <pt x="301" y="882" on="1"/>
        <pt x="295" y="866" on="0"/>
        <pt x="293" y="849" on="1"/>
        <pt x="290" y="815" on="1"/>
        <pt x="289" y="798" on="0"/>
        <pt x="283" y="765" on="0"/>
        <pt x="276" y="750" on="1"/>
        <pt x="278" y="745" on="0"/>
        <pt x="278" y="740" on="1"/>
        <pt x="278" y="730" on="1"/>
        <pt x="278" y="716" on="0"/>
        <pt x="273" y="690" on="0"/>
        <pt x="267" y="663" on="0"/>
        <pt x="263" y="637" on="0"/>
        <pt x="265" y="624" on="1"/>
        <pt x="262" y="619" on="0"/>
        <pt x="256" y="614" on="0"/>
        <pt x="255" y="609" on="1"/>
        <pt x="253" y="590" on="1"/>
        <pt x="251" y="579" on="0"/>
        <pt x="248" y="558" on="0"/>
        <pt x="246" y="547" on="1"/>
        <pt x="239" y="517" on="0"/>
        <pt x="222" y="457" on="0"/>
        <pt x="222" y="425" on="1"/>
        <pt x="222" y="419" on="1"/>
        <pt x="213" y="405" on="0"/>
        <pt x="203" y="364" on="0"/>
        <pt x="205" y="347" on="1"/>
        <pt x="194" y="318" on="0"/>
        <pt x="174" y="262" on="0"/>
        <pt x="174" y="232" on="1"/>
        <pt x="174" y="227" on="0"/>
        <pt x="175" y="216" on="0"/>
        <pt x="176" y="211" on="1"/>
        <pt x="168" y="191" on="0"/>
        <pt x="164" y="150" on="0"/>
        <pt x="164" y="130" on="1"/>
        <pt x="164" y="116" on="0"/>
        <pt x="167" y="79" on="0"/>
        <pt x="174" y="40" on="0"/>
        <pt x="184" y="4" on="0"/>
        <pt x="190" y="-7" on="1"/>
        <pt x="213" y="-44" on="0"/>
        <pt x="288" y="-87" on="0"/>
        <pt x="330" y="-93" on="1"/>
        <pt x="347" y="-87" on="0"/>
        <pt x="368" y="-85" on="0"/>
        <pt x="387" y="-86" on="1"/>
        <pt x="403" y="-78" on="0"/>
        <pt x="436" y="-70" on="0"/>
        <pt x="453" y="-65" on="1"/>
        <pt x="458" y="-63" on="0"/>
        <pt x="469" y="-59" on="0"/>
        <pt x="473" y="-57" on="1"/>
        <pt x="478" y="-55" on="0"/>
        <pt x="490" y="-41" on="0"/>
        <pt x="495" y="-36" on="1"/>
        <pt x="516" y="-30" on="0"/>
        <pt x="554" y="-9" on="0"/>
        <pt x="572" y="2" on="1"/>
        <pt x="609" y="24" on="1"/>
        <pt x="628" y="35" on="0"/>
        <pt x="649" y="43" on="1"/>
        <pt x="657" y="46" on="0"/>
        <pt x="660" y="57" on="0"/>
        <pt x="664" y="65" on="1"/>
        <pt x="666" y="63" on="0"/>
        <pt x="670" y="63" on="1"/>
        <pt x="682" y="63" on="0"/>
        <pt x="692" y="78" on="0"/>
        <pt x="699" y="86" on="1"/>
        <pt x="712" y="88" on="0"/>
        <pt x="736" y="99" on="0"/>
        <pt x="742" y="111" on="1"/>
        <pt x="767" y="116" on="0"/>
        <pt x="805" y="142" on="0"/>
        <pt x="841" y="173" on="0"/>
        <pt x="877" y="202" on="0"/>
        <pt x="900" y="211" on="1"/>
        <pt x="903" y="216" on="0"/>
        <pt x="905" y="224" on="0"/>
        <pt x="907" y="229" on="1"/>
        <pt x="924" y="231" on="0"/>
        <pt x="944" y="246" on="0"/>
        <pt x="957" y="254" on="1"/>
        <pt x="985" y="251" on="0"/>
      </contour>
    </TTGlyph>
    <TTGlyph name="Lslash" xMin="-102" yMin="-200" xMax="1017" yMax="947">
      <contour>
        <pt x="517" y="525" on="1"/>
        <pt x="509" y="520" on="0"/>
        <pt x="501" y="506" on="0"/>
        <pt x="494" y="501" on="1"/>
        <pt x="497" y="498" on="0"/>
        <pt x="497" y="496" on="1"/>
        <pt x="497" y="489" on="1"/>
        <pt x="497" y="486" on="0"/>
        <pt x="499" y="482" on="0"/>
        <pt x="501" y="480" on="1"/>
        <pt x="492" y="465" on="0"/>
        <pt x="467" y="443" on="0"/>
        <pt x="441" y="423" on="0"/>
        <pt x="417" y="401" on="0"/>
        <pt x="409" y="386" on="1"/>
        <pt x="403" y="396" on="1"/>
        <pt x="396" y="385" on="0"/>
        <pt x="378" y="376" on="0"/>
        <pt x="360" y="371" on="0"/>
        <pt x="343" y="365" on="0"/>
        <pt x="338" y="357" on="1"/>
        <pt x="332" y="354" on="0"/>
        <pt x="325" y="354" on="1"/>
        <pt x="320" y="354" on="0"/>
        <pt x="311" y="355" on="0"/>
        <pt x="306" y="356" on="1"/>
        <pt x="306" y="347" on="0"/>
        <pt x="293" y="334" on="0"/>
        <pt x="274" y="324" on="0"/>
        <pt x="254" y="316" on="0"/>
        <pt x="248" y="313" on="1"/>
        <pt x="237" y="303" on="0"/>
        <pt x="214" y="290" on="0"/>
        <pt x="202" y="283" on="1"/>
        <pt x="198" y="270" on="0"/>
        <pt x="194" y="246" on="0"/>
        <pt x="194" y="232" on="1"/>
        <pt x="194" y="221" on="1"/>
        <pt x="194" y="216" on="0"/>
        <pt x="195" y="211" on="1"/>
        <pt x="187" y="191" on="0"/>
        <pt x="182" y="151" on="0"/>
        <pt x="182" y="130" on="1"/>
        <pt x="182" y="116" on="0"/>
        <pt x="185" y="79" on="0"/>
        <pt x="192" y="40" on="0"/>
        <pt x="202" y="4" on="0"/>
        <pt x="209" y="-7" on="1"/>
        <pt x="232" y="-44" on="0"/>
        <pt x="308" y="-87" on="0"/>
        <pt x="349" y="-93" on="1"/>
        <pt x="366" y="-87" on="0"/>
        <pt x="389" y="-85" on="0"/>
        <pt x="407" y="-86" on="1"/>
        <pt x="422" y="-78" on="0"/>
        <pt x="455" y="-70" on="0"/>
        <pt x="472" y="-65" on="1"/>
        <pt x="477" y="-63" on="0"/>
        <pt x="488" y="-60" on="0"/>
        <pt x="493" y="-57" on="1"/>
        <pt x="498" y="-55" on="0"/>
        <pt x="509" y="-41" on="0"/>
        <pt x="514" y="-36" on="1"/>
        <pt x="545" y="-27" on="0"/>
        <pt x="599" y="7" on="0"/>
        <pt x="628" y="24" on="1"/>
        <pt x="647" y="34" on="0"/>
        <pt x="669" y="43" on="1"/>
        <pt x="677" y="46" on="0"/>
        <pt x="679" y="57" on="0"/>
        <pt x="683" y="65" on="1"/>
        <pt x="685" y="63" on="0"/>
        <pt x="689" y="63" on="1"/>
        <pt x="701" y="63" on="0"/>
        <pt x="712" y="78" on="0"/>
        <pt x="719" y="86" on="1"/>
        <pt x="731" y="88" on="0"/>
        <pt x="756" y="99" on="0"/>
        <pt x="762" y="111" on="1"/>
        <pt x="786" y="116" on="0"/>
        <pt x="824" y="142" on="0"/>
        <pt x="860" y="173" on="0"/>
        <pt x="897" y="202" on="0"/>
        <pt x="920" y="211" on="1"/>
        <pt x="922" y="216" on="0"/>
        <pt x="925" y="224" on="0"/>
        <pt x="927" y="229" on="1"/>
        <pt x="943" y="231" on="0"/>
        <pt x="963" y="246" on="0"/>
        <pt x="977" y="254" on="1"/>
        <pt x="989" y="252" on="0"/>
        <pt x="1010" y="240" on="0"/>
        <pt x="1017" y="229" on="1"/>
        <pt x="1017" y="210" on="0"/>
        <pt x="1004" y="184" on="0"/>
        <pt x="994" y="168" on="1"/>
        <pt x="993" y="169" on="0"/>
        <pt x="990" y="169" on="1"/>
        <pt x="984" y="169" on="0"/>
        <pt x="975" y="163" on="0"/>
        <pt x="970" y="161" on="1"/>
        <pt x="941" y="129" on="0"/>
        <pt x="879" y="69" on="0"/>
        <pt x="843" y="46" on="1"/>
        <pt x="833" y="40" on="0"/>
        <pt x="813" y="29" on="0"/>
        <pt x="802" y="24" on="1"/>
        <pt x="798" y="22" on="0"/>
        <pt x="791" y="19" on="0"/>
        <pt x="786" y="17" on="1"/>
        <pt x="777" y="12" on="0"/>
        <pt x="762" y="-7" on="0"/>
        <pt x="745" y="-25" on="0"/>
        <pt x="726" y="-38" on="0"/>
        <pt x="712" y="-36" on="1"/>
        <pt x="702" y="-42" on="0"/>
        <pt x="690" y="-57" on="0"/>
        <pt x="683" y="-65" on="1"/>
        <pt x="641" y="-79" on="0"/>
        <pt x="568" y="-129" on="0"/>
        <pt x="530" y="-152" on="1"/>
        <pt x="519" y="-158" on="0"/>
        <pt x="498" y="-171" on="0"/>
        <pt x="485" y="-176" on="1"/>
        <pt x="473" y="-181" on="0"/>
        <pt x="461" y="-182" on="1"/>
        <pt x="427" y="-190" on="0"/>
        <pt x="361" y="-200" on="0"/>
        <pt x="326" y="-200" on="1"/>
        <pt x="306" y="-200" on="0"/>
        <pt x="265" y="-195" on="0"/>
        <pt x="245" y="-190" on="1"/>
        <pt x="246" y="-187" on="0"/>
        <pt x="243" y="-186" on="1"/>
        <pt x="238" y="-184" on="1"/>
        <pt x="236" y="-183" on="0"/>
        <pt x="232" y="-180" on="0"/>
        <pt x="234" y="-176" on="1"/>
        <pt x="213" y="-174" on="0"/>
        <pt x="178" y="-156" on="0"/>
        <pt x="173" y="-133" on="1"/>
        <pt x="171" y="-135" on="0"/>
        <pt x="167" y="-141" on="0"/>
        <pt x="163" y="-140" on="1"/>
        <pt x="149" y="-121" on="0"/>
        <pt x="113" y="-86" on="0"/>
        <pt x="106" y="-62" on="1"/>
        <pt x="101" y="-43" on="1"/>
        <pt x="97" y="-29" on="0"/>
        <pt x="84" y="-29" on="1"/>
        <pt x="86" y="-25" on="0"/>
        <pt x="86" y="-19" on="1"/>
        <pt x="86" y="-16" on="0"/>
        <pt x="85" y="-10" on="0"/>
        <pt x="85" y="-7" on="1"/>
        <pt x="85" y="-3" on="0"/>
        <pt x="87" y="3" on="1"/>
        <pt x="71" y="47" on="0"/>
        <pt x="71" y="95" on="1"/>
        <pt x="71" y="124" on="0"/>
        <pt x="76" y="183" on="0"/>
        <pt x="77" y="212" on="1"/>
        <pt x="63" y="206" on="0"/>
        <pt x="41" y="187" on="0"/>
        <pt x="27" y="179" on="1"/>
        <pt x="21" y="176" on="0"/>
        <pt x="8" y="174" on="0"/>
        <pt x="3" y="171" on="1"/>
        <pt x="-2" y="168" on="0"/>
        <pt x="-6" y="161" on="0"/>
        <pt x="-7" y="154" on="0"/>
        <pt x="-11" y="146" on="0"/>
        <pt x="-16" y="143" on="1"/>
        <pt x="-22" y="141" on="0"/>
        <pt x="-25" y="141" on="1"/>
        <pt x="-31" y="141" on="0"/>
        <pt x="-42" y="146" on="0"/>
        <pt x="-48" y="144" on="1"/>
        <pt x="-53" y="154" on="0"/>
        <pt x="-68" y="167" on="0"/>
        <pt x="-84" y="179" on="0"/>
        <pt x="-98" y="195" on="0"/>
        <pt x="-102" y="209" on="1"/>
        <pt x="-101" y="220" on="0"/>
        <pt x="-85" y="247" on="0"/>
        <pt x="-63" y="270" on="0"/>
        <pt x="-37" y="286" on="0"/>
        <pt x="-26" y="286" on="1"/>
        <pt x="-17" y="286" on="0"/>
        <pt x="-8" y="283" on="1"/>
        <pt x="20" y="302" on="0"/>
        <pt x="76" y="338" on="0"/>
        <pt x="104" y="355" on="1"/>
        <pt x="105" y="366" on="1"/>
        <pt x="115" y="371" on="0"/>
        <pt x="119" y="391" on="0"/>
        <pt x="127" y="397" on="1"/>
        <pt x="127" y="402" on="1"/>
        <pt x="127" y="417" on="0"/>
        <pt x="130" y="431" on="1"/>
        <pt x="137" y="460" on="1"/>
        <pt x="141" y="475" on="0"/>
        <pt x="146" y="504" on="0"/>
        <pt x="144" y="519" on="1"/>
        <pt x="147" y="522" on="0"/>
        <pt x="154" y="539" on="0"/>
        <pt x="162" y="558" on="0"/>
        <pt x="167" y="576" on="0"/>
        <pt x="167" y="580" on="1"/>
        <pt x="167" y="585" on="0"/>
        <pt x="163" y="596" on="0"/>
        <pt x="163" y="602" on="1"/>
        <pt x="163" y="609" on="0"/>
        <pt x="168" y="625" on="0"/>
        <pt x="170" y="632" on="1"/>
        <pt x="174" y="649" on="0"/>
        <pt x="181" y="686" on="0"/>
        <pt x="183" y="703" on="1"/>
        <pt x="192" y="758" on="0"/>
        <pt x="202" y="869" on="0"/>
        <pt x="202" y="925" on="1"/>
        <pt x="216" y="933" on="0"/>
        <pt x="247" y="947" on="0"/>
        <pt x="263" y="947" on="1"/>
        <pt x="268" y="947" on="0"/>
        <pt x="280" y="945" on="0"/>
        <pt x="285" y="943" on="1"/>
        <pt x="289" y="923" on="0"/>
        <pt x="311" y="899" on="0"/>
        <pt x="321" y="882" on="1"/>
        <pt x="315" y="866" on="0"/>
        <pt x="311" y="833" on="0"/>
        <pt x="308" y="799" on="0"/>
        <pt x="302" y="765" on="0"/>
        <pt x="295" y="750" on="1"/>
        <pt x="297" y="745" on="0"/>
        <pt x="297" y="740" on="1"/>
        <pt x="297" y="730" on="1"/>
        <pt x="297" y="716" on="0"/>
        <pt x="292" y="690" on="0"/>
        <pt x="286" y="663" on="0"/>
        <pt x="283" y="637" on="0"/>
        <pt x="285" y="624" on="1"/>
        <pt x="282" y="619" on="0"/>
        <pt x="275" y="614" on="0"/>
        <pt x="273" y="609" on="1"/>
        <pt x="272" y="604" on="0"/>
        <pt x="273" y="595" on="0"/>
        <pt x="272" y="590" on="1"/>
        <pt x="272" y="579" on="0"/>
        <pt x="267" y="558" on="0"/>
        <pt x="265" y="547" on="1"/>
        <pt x="259" y="520" on="0"/>
        <pt x="244" y="466" on="0"/>
        <pt x="242" y="437" on="1"/>
        <pt x="245" y="439" on="0"/>
        <pt x="268" y="453" on="0"/>
        <pt x="293" y="468" on="0"/>
        <pt x="312" y="482" on="0"/>
        <pt x="312" y="484" on="1"/>
        <pt x="312" y="486" on="0"/>
        <pt x="310" y="491" on="0"/>
        <pt x="310" y="494" on="1"/>
        <pt x="310" y="498" on="0"/>
        <pt x="318" y="502" on="0"/>
        <pt x="322" y="502" on="1"/>
        <pt x="327" y="502" on="0"/>
        <pt x="334" y="498" on="0"/>
        <pt x="339" y="498" on="1"/>
        <pt x="343" y="498" on="0"/>
        <pt x="344" y="499" on="1"/>
        <pt x="349" y="506" on="0"/>
        <pt x="364" y="517" on="0"/>
        <pt x="379" y="529" on="0"/>
        <pt x="391" y="542" on="0"/>
        <pt x="394" y="550" on="1"/>
        <pt x="396" y="551" on="0"/>
        <pt x="399" y="551" on="1"/>
        <pt x="402" y="551" on="0"/>
        <pt x="409" y="547" on="0"/>
        <pt x="413" y="547" on="1"/>
        <pt x="422" y="555" on="0"/>
        <pt x="429" y="562" on="0"/>
        <pt x="442" y="567" on="1"/>
        <pt x="459" y="554" on="0"/>
        <pt x="500" y="539" on="0"/>
      </contour>
    </TTGlyph>
</ttFont>
